SplineFontDB: 3.0
FontName: WreatheItal
FullName: WreatheItal
FamilyName: WreatheItal
Weight: Book
Copyright: 23 May 2012. Design based on Centaur.
Version: 001.000
ItalicAngle: 0
UnderlinePosition: 13
UnderlineWidth: 50
Ascent: 800
Descent: 200
LayerCount: 2
Layer: 0 1 "Back"  1
Layer: 1 1 "Fore"  0
XUID: [1021 420 915814174 16203036]
FSType: 0
OS2Version: 1
OS2_WeightWidthSlopeOnly: 0
OS2_UseTypoMetrics: 1
CreationTime: 1337820061
ModificationTime: 1337825923
PfmFamily: 17
TTFWeight: 400
TTFWidth: 5
LineGap: 90
VLineGap: 0
Panose: 2 0 5 3 0 0 0 0 0 0
OS2TypoAscent: 0
OS2TypoAOffset: 1
OS2TypoDescent: 0
OS2TypoDOffset: 1
OS2TypoLinegap: 90
OS2WinAscent: 1
OS2WinAOffset: 1
OS2WinDescent: -10
OS2WinDOffset: 1
HheadAscent: 1
HheadAOffset: 1
HheadDescent: 1
HheadDOffset: 1
OS2SubXSize: 650
OS2SubYSize: 699
OS2SubXOff: 0
OS2SubYOff: 140
OS2SupXSize: 650
OS2SupYSize: 699
OS2SupXOff: 0
OS2SupYOff: 479
OS2StrikeYSize: 49
OS2StrikeYPos: 258
OS2Vendor: 'PfEd'
OS2CodePages: 20000001.00000000
OS2UnicodeRanges: 800000af.5000205b.00000000.00000000
DEI: 91125
ShortTable: maxp 16
  1
  0
  434
  437
  14
  0
  0
  2
  0
  1
  1
  0
  64
  0
  0
  0
EndShort
LangName: 1033 "" "" "" "FontForge 2.0 : Wreathe Italic : 23-5-2012" 
GaspTable: 1 65535 2
Encoding: UnicodeBmp
UnicodeInterp: none
NameList: Adobe Glyph List
DisplaySize: -36
AntiAlias: 1
FitToEm: 1
WinInfo: 51 17 10
BeginChars: 65537 434

StartChar: .null
Encoding: 0 -1 1
AltUni2: 000000.ffffffff.0
Width: 0
Flags: W
LayerCount: 2
Fore
SplineSet
0 132 m 1,0,-1
 4 128 l 1,1,-1
 0 132 l 1,0,-1
EndSplineSet
EndChar

StartChar: nonmarkingreturn
Encoding: 13 13 2
Width: 240
Flags: W
LayerCount: 2
Fore
SplineSet
0 132 m 1,0,-1
 4 128 l 1,1,-1
 0 132 l 1,0,-1
EndSplineSet
EndChar

StartChar: space
Encoding: 32 32 3
Width: 240
Flags: W
LayerCount: 2
Fore
SplineSet
0 132 m 1,0,-1
 4 128 l 1,1,-1
 0 132 l 1,0,-1
EndSplineSet
EndChar

StartChar: exclam
Encoding: 33 33 4
Width: 167
Flags: W
LayerCount: 2
Fore
SplineSet
90 206 m 0,0,1
 116 210 116 210 118 180 c 0,2,3
 121 147 121 147 98 127 c 0,4,5
 91 120 91 120 82 118 c 0,6,7
 55 112 55 112 52 142 c 0,8,9
 49 174 49 174 71 196 c 0,10,11
 80 204 80 204 90 206 c 0,0,1
230 761 m 1,12,-1
 234 757 l 1,13,-1
 230 761 l 1,12,-1
102 331 m 1,14,-1
 151 620 l 1,15,-1
 173 740 l 1,16,-1
 230 761 l 1,17,18
 234 745 234 745 230 724.5 c 128,-1,19
 226 704 226 704 216.5 676 c 128,-1,20
 207 648 207 648 205 640 c 0,21,22
 196 607 196 607 175.5 544 c 128,-1,23
 155 481 155 481 141.5 429 c 128,-1,24
 128 377 128 377 125 331 c 1,25,-1
 102 331 l 1,14,-1
EndSplineSet
EndChar

StartChar: quotedbl
Encoding: 34 34 5
Width: 448
Flags: W
LayerCount: 2
Fore
SplineSet
371 464 m 1,0,1
 371 482 371 482 373 500.5 c 128,-1,2
 375 519 375 519 379.5 545 c 128,-1,3
 384 571 384 571 385 581 c 0,4,5
 387 594 387 594 389.5 621.5 c 128,-1,6
 392 649 392 649 395 663 c 1,7,8
 402 719 402 719 430 739 c 1,9,10
 445 752 445 752 467 748.5 c 128,-1,11
 489 745 489 745 496 726 c 0,12,13
 500 716 500 716 500.5 706 c 128,-1,14
 501 696 501 696 497 684.5 c 128,-1,15
 493 673 493 673 490.5 666.5 c 128,-1,16
 488 660 488 660 481 648 c 0,17,18
 422 528 422 528 417 519 c 0,19,20
 415 516 415 516 408.5 503 c 128,-1,21
 402 490 402 490 398.5 484.5 c 128,-1,22
 395 479 395 479 387.5 472 c 128,-1,23
 380 465 380 465 371 464 c 1,0,1
156 464 m 1,24,25
 158 485 158 485 164 524 c 128,-1,26
 170 563 170 563 172 581 c 0,27,28
 173 586 173 586 176 616.5 c 128,-1,29
 179 647 179 647 181 663 c 0,30,31
 191 720 191 720 215 739 c 0,32,33
 232 753 232 753 255.5 748.5 c 128,-1,34
 279 744 279 744 285 722 c 0,35,36
 292 695 292 695 280 660.5 c 128,-1,37
 268 626 268 626 237 574.5 c 128,-1,38
 206 523 206 523 204 519 c 0,39,40
 203 516 203 516 198 505.5 c 128,-1,41
 193 495 193 495 190 490.5 c 128,-1,42
 187 486 187 486 182 478.5 c 128,-1,43
 177 471 177 471 170.5 468 c 128,-1,44
 164 465 164 465 156 464 c 1,24,25
EndSplineSet
EndChar

StartChar: numbersign
Encoding: 35 35 6
Width: 667
Flags: W
LayerCount: 2
Fore
SplineSet
230 374 m 1,0,-1
 469 374 l 1,1,-1
 512 585 l 1,2,-1
 340 585 l 1,3,-1
 276 581 l 1,4,-1
 259 527 l 1,5,-1
 230 374 l 1,0,-1
285 851 m 1,6,-1
 328 851 l 1,7,8
 311 721 311 721 277 632 c 1,9,-1
 453 632 l 1,10,-1
 517 638 l 1,11,-1
 530 683 l 1,12,-1
 555 804 l 1,13,-1
 569 847 l 1,14,-1
 609 851 l 1,15,-1
 562 632 l 1,16,-1
 676 632 l 1,17,-1
 676 585 l 1,18,-1
 555 585 l 1,19,-1
 512 374 l 1,20,-1
 676 374 l 1,21,-1
 676 327 l 1,22,-1
 500 327 l 1,23,-1
 457 109 l 1,24,-1
 414 109 l 1,25,-1
 457 327 l 1,26,-1
 285 327 l 1,27,-1
 222 321 l 1,28,-1
 204 261 l 1,29,-1
 172 109 l 1,30,-1
 129 109 l 1,31,-1
 172 327 l 1,32,-1
 62 327 l 1,33,-1
 62 374 l 1,34,-1
 184 374 l 1,35,-1
 227 585 l 1,36,-1
 62 585 l 1,37,-1
 62 632 l 1,38,-1
 238 632 l 1,39,-1
 285 851 l 1,6,-1
EndSplineSet
EndChar

StartChar: dollar
Encoding: 36 36 7
Width: 479
Flags: W
LayerCount: 2
Fore
SplineSet
297 499 m 1,0,-1
 340 718 l 1,1,2
 299 717 299 717 270 700.5 c 128,-1,3
 241 684 241 684 229.5 658 c 128,-1,4
 218 632 218 632 219.5 603 c 128,-1,5
 221 574 221 574 241.5 545.5 c 128,-1,6
 262 517 262 517 297 499 c 1,0,-1
297 413 m 1,7,-1
 246 148 l 1,8,9
 282 148 282 148 307.5 152.5 c 128,-1,10
 333 157 333 157 355 173 c 0,11,12
 390 199 390 199 399.5 235 c 128,-1,13
 409 271 409 271 397 305 c 128,-1,14
 385 339 385 339 358 369 c 128,-1,15
 331 399 331 399 297 413 c 1,7,-1
355 788 m 1,16,-1
 375 788 l 1,17,-1
 363 738 l 1,18,19
 400 735 400 735 432.5 719 c 128,-1,20
 465 703 465 703 504 675 c 1,21,-1
 461 605 l 1,22,-1
 445 609 l 1,23,24
 460 687 460 687 363 718 c 1,25,-1
 312 484 l 1,26,27
 359 464 359 464 393 425.5 c 128,-1,28
 427 387 427 387 441 343 c 128,-1,29
 455 299 455 299 442 251.5 c 128,-1,30
 429 204 429 204 387 168 c 1,31,32
 350 138 350 138 297 130 c 0,33,34
 295 130 295 130 275 129.5 c 128,-1,35
 255 129 255 129 248 124 c 0,36,37
 239 118 239 118 236 106 c 128,-1,38
 233 94 233 94 233 83.5 c 128,-1,39
 233 73 233 73 227 64 c 128,-1,40
 221 55 221 55 207 54 c 1,41,-1
 223 132 l 1,42,43
 159 141 159 141 105 195 c 2,44,45
 105 195 105 195 99 201 c 128,-1,46
 93 207 93 207 90.5 210 c 128,-1,47
 88 213 88 213 83.5 218 c 128,-1,48
 79 223 79 223 77 228 c 128,-1,49
 75 233 75 233 75 238 c 0,50,51
 74 252 74 252 90.5 280.5 c 128,-1,52
 107 309 107 309 109 316 c 1,53,-1
 125 312 l 1,54,55
 116 261 116 261 146.5 217.5 c 128,-1,56
 177 174 177 174 227 152 c 1,57,58
 234 182 234 182 266 339 c 0,59,60
 267 345 267 345 272 363.5 c 128,-1,61
 277 382 277 382 279.5 396 c 128,-1,62
 282 410 282 410 280 421 c 0,63,64
 279 430 279 430 272.5 437 c 128,-1,65
 266 444 266 444 253 453 c 128,-1,66
 240 462 240 462 238 463 c 0,67,68
 202 492 202 492 181 530 c 1,69,70
 150 591 150 591 171 637 c 128,-1,71
 192 683 192 683 241.5 710 c 128,-1,72
 291 737 291 737 348 738 c 1,73,-1
 355 788 l 1,16,-1
EndSplineSet
EndChar

StartChar: percent
Encoding: 37 37 8
Width: 792
Flags: W
LayerCount: 2
Fore
SplineSet
641 450 m 0,0,1
 611 443 611 443 589 416 c 128,-1,2
 567 389 567 389 557 352.5 c 128,-1,3
 547 316 547 316 542.5 282 c 128,-1,4
 538 248 538 248 539 218 c 0,5,6
 540 183 540 183 558 156.5 c 128,-1,7
 576 130 576 130 609 138 c 0,8,9
 637 145 637 145 659 172.5 c 128,-1,10
 681 200 681 200 692.5 236.5 c 128,-1,11
 704 273 704 273 709.5 308 c 128,-1,12
 715 343 715 343 715 370 c 0,13,14
 714 407 714 407 695 432.5 c 128,-1,15
 676 458 676 458 641 450 c 0,0,1
629 466 m 0,16,17
 686 475 686 475 723.5 442 c 128,-1,18
 761 409 761 409 765 351 c 0,19,20
 769 304 769 304 754 255 c 128,-1,21
 739 206 739 206 704 167 c 128,-1,22
 669 128 669 128 621 121 c 0,23,24
 565 113 565 113 529.5 148.5 c 128,-1,25
 494 184 494 184 489 241 c 0,26,27
 485 287 485 287 499 335.5 c 128,-1,28
 513 384 513 384 548 421.5 c 128,-1,29
 583 459 583 459 629 466 c 0,16,17
277 778 m 0,30,31
 247 771 247 771 225 745 c 128,-1,32
 203 719 203 719 192 683 c 128,-1,33
 181 647 181 647 176.5 614 c 128,-1,34
 172 581 172 581 172 550 c 0,35,36
 172 515 172 515 190.5 487 c 128,-1,37
 209 459 209 459 242 465 c 0,38,39
 271 470 271 470 294 497.5 c 128,-1,40
 317 525 317 525 329 562 c 128,-1,41
 341 599 341 599 346.5 635 c 128,-1,42
 352 671 352 671 352 698 c 0,43,44
 351 735 351 735 331.5 760.5 c 128,-1,45
 312 786 312 786 277 778 c 0,30,31
156 120 m 1,46,47
 210 201 210 201 278 287 c 128,-1,48
 346 373 346 373 434.5 477.5 c 128,-1,49
 523 582 523 582 566 636 c 0,50,51
 575 647 575 647 597.5 679.5 c 128,-1,52
 620 712 620 712 637 734.5 c 128,-1,53
 654 757 654 757 679 776.5 c 128,-1,54
 704 796 704 796 727 796 c 1,55,56
 707 767 707 767 683 736.5 c 128,-1,57
 659 706 659 706 628 669.5 c 128,-1,58
 597 633 597 633 581 612 c 2,59,-1
 316 280 l 2,60,61
 308 270 308 270 285 237 c 128,-1,62
 262 204 262 204 245.5 182 c 128,-1,63
 229 160 229 160 203.5 140 c 128,-1,64
 178 120 178 120 156 120 c 1,46,47
262 794 m 0,65,66
 320 805 320 805 359 771.5 c 128,-1,67
 398 738 398 738 402 679 c 0,68,69
 405 633 405 633 390.5 584.5 c 128,-1,70
 376 536 376 536 342 497.5 c 128,-1,71
 308 459 308 459 262 450 c 0,72,73
 205 440 205 440 166 475.5 c 128,-1,74
 127 511 127 511 122 570 c 1,75,76
 117 615 117 615 132 663 c 128,-1,77
 147 711 147 711 181.5 748.5 c 128,-1,78
 216 786 216 786 262 794 c 0,65,66
EndSplineSet
EndChar

StartChar: ampersand
Encoding: 38 38 9
Width: 719
Flags: W
LayerCount: 2
Fore
SplineSet
246 519 m 1,0,1
 239 526 239 526 222 540.5 c 128,-1,2
 205 555 205 555 196.5 564 c 128,-1,3
 188 573 188 573 181 589.5 c 128,-1,4
 174 606 174 606 177 624 c 0,5,6
 181 651 181 651 206 677.5 c 128,-1,7
 231 704 231 704 264 719.5 c 128,-1,8
 297 735 297 735 332 738 c 128,-1,9
 367 741 367 741 390 720 c 0,10,11
 397 714 397 714 402.5 706.5 c 128,-1,12
 408 699 408 699 408.5 690.5 c 128,-1,13
 409 682 409 682 398 677 c 0,14,15
 388 673 388 673 378.5 677.5 c 128,-1,16
 369 682 369 682 359 692 c 128,-1,17
 349 702 349 702 344 704 c 0,18,19
 317 718 317 718 270 700 c 0,20,21
 235 687 235 687 226 651.5 c 128,-1,22
 217 616 217 616 240 589 c 0,23,24
 253 574 253 574 271.5 563 c 128,-1,25
 290 552 290 552 304.5 546.5 c 128,-1,26
 319 541 319 541 344 534 c 1,27,-1
 336 507 l 1,28,29
 256 507 256 507 211 484 c 0,30,31
 169 463 169 463 148 420 c 128,-1,32
 127 377 127 377 133 329 c 128,-1,33
 139 281 139 281 169 245 c 0,34,35
 213 192 213 192 291 171.5 c 128,-1,36
 369 151 369 151 434 175 c 0,37,38
 468 188 468 188 497 218.5 c 128,-1,39
 526 249 526 249 537 287 c 128,-1,40
 548 325 548 325 526 362 c 0,41,42
 519 373 519 373 499.5 374.5 c 128,-1,43
 480 376 480 376 459 370 c 128,-1,44
 438 364 438 364 420 353 c 128,-1,45
 402 342 402 342 398 331 c 0,46,47
 394 317 394 317 402.5 289.5 c 128,-1,48
 411 262 411 262 398 245 c 1,49,50
 370 256 370 256 364.5 285.5 c 128,-1,51
 359 315 359 315 372 344.5 c 128,-1,52
 385 374 385 374 406 390 c 0,53,54
 435 411 435 411 481.5 417 c 128,-1,55
 528 423 528 423 567 419 c 128,-1,56
 606 415 606 415 648 422 c 0,57,58
 675 427 675 427 694.5 443 c 128,-1,59
 714 459 714 459 695 480 c 1,60,61
 699 487 699 487 707.5 494 c 128,-1,62
 716 501 716 501 725 503 c 128,-1,63
 734 505 734 505 740 494 c 0,64,65
 747 479 747 479 739.5 457 c 128,-1,66
 732 435 732 435 718 421 c 0,67,68
 701 403 701 403 672.5 392.5 c 128,-1,69
 644 382 644 382 624 379.5 c 128,-1,70
 604 377 604 377 569 375 c 0,71,72
 562 374 562 374 559 374 c 1,73,74
 574 297 574 297 557 253 c 0,75,76
 538 205 538 205 497 173 c 128,-1,77
 456 141 456 141 405 130 c 128,-1,78
 354 119 354 119 301 123 c 128,-1,79
 248 127 248 127 199.5 150 c 128,-1,80
 151 173 151 173 121 210 c 0,81,82
 89 250 89 250 83 302.5 c 128,-1,83
 77 355 77 355 95 401 c 128,-1,84
 113 447 113 447 153.5 480.5 c 128,-1,85
 194 514 194 514 246 519 c 1,0,1
EndSplineSet
EndChar

StartChar: quotesingle
Encoding: 39 39 10
Width: 229
Flags: W
LayerCount: 2
Fore
SplineSet
148 464 m 1,0,1
 149 477 149 477 163 581 c 0,2,3
 172 651 172 651 174 663 c 0,4,5
 184 717 184 717 204 736 c 0,6,7
 221 752 221 752 246 748.5 c 128,-1,8
 271 745 271 745 279 722 c 0,9,10
 280 718 280 718 280.5 714 c 128,-1,11
 281 710 281 710 281.5 706.5 c 128,-1,12
 282 703 282 703 281 698.5 c 128,-1,13
 280 694 280 694 280 691.5 c 128,-1,14
 280 689 280 689 278 683.5 c 128,-1,15
 276 678 276 678 275.5 676.5 c 128,-1,16
 275 675 275 675 272.5 669 c 128,-1,17
 270 663 270 663 269.5 662 c 128,-1,18
 269 661 269 661 266 654.5 c 128,-1,19
 263 648 263 648 263 648 c 1,20,-1
 198 519 l 2,21,22
 196 515 196 515 191.5 504.5 c 128,-1,23
 187 494 187 494 184 489 c 128,-1,24
 181 484 181 484 176 477 c 128,-1,25
 171 470 171 470 164 467 c 128,-1,26
 157 464 157 464 148 464 c 1,0,1
EndSplineSet
EndChar

StartChar: parenleft
Encoding: 40 40 11
Width: 313
Flags: W
LayerCount: 2
Fore
SplineSet
234 -153 m 1,0,1
 232 -150 232 -150 215.5 -128.5 c 128,-1,2
 199 -107 199 -107 195.5 -102.5 c 128,-1,3
 192 -98 192 -98 178.5 -79.5 c 128,-1,4
 165 -61 165 -61 160.5 -53.5 c 128,-1,5
 156 -46 156 -46 145.5 -29 c 128,-1,6
 135 -12 135 -12 130 -1.5 c 128,-1,7
 125 9 125 9 118 24.5 c 128,-1,8
 111 40 111 40 106 54.5 c 128,-1,9
 101 69 101 69 97 85 c 0,10,11
 83 142 83 142 81.5 204.5 c 128,-1,12
 80 267 80 267 91 329.5 c 128,-1,13
 102 392 102 392 123.5 453 c 128,-1,14
 145 514 145 514 178.5 568.5 c 128,-1,15
 212 623 212 623 253.5 668 c 128,-1,16
 295 713 295 713 348.5 746.5 c 128,-1,17
 402 780 402 780 461 796 c 1,18,19
 456 770 456 770 427 748.5 c 128,-1,20
 398 727 398 727 359 706.5 c 128,-1,21
 320 686 320 686 305 671 c 0,22,23
 166 539 166 539 127 359 c 1,24,25
 84 167 84 167 146 30 c 0,26,27
 171 -26 171 -26 203 -67 c 0,28,29
 207 -73 207 -73 214 -81 c 128,-1,30
 221 -89 221 -89 225 -94 c 128,-1,31
 229 -99 229 -99 234 -106.5 c 128,-1,32
 239 -114 239 -114 240.5 -120.5 c 128,-1,33
 242 -127 242 -127 242 -135.5 c 128,-1,34
 242 -144 242 -144 238 -153 c 1,35,-1
 234 -153 l 1,0,1
EndSplineSet
EndChar

StartChar: parenright
Encoding: 41 41 12
Width: 313
Flags: W
LayerCount: 2
Fore
SplineSet
113 796 m 1,0,1
 186 745 186 745 237 620 c 1,2,3
 294 469 294 469 262.5 301 c 128,-1,4
 231 133 231 133 130 7 c 1,5,6
 82 -51 82 -51 19 -97.5 c 128,-1,7
 -44 -144 -44 -144 -105 -153 c 1,8,9
 -99 -128 -99 -128 -72.5 -108 c 128,-1,10
 -46 -88 -46 -88 -9 -69 c 128,-1,11
 28 -50 28 -50 43 -36 c 0,12,13
 178 88 178 88 223 261 c 0,14,15
 274 456 274 456 207 616 c 0,16,17
 198 639 198 639 172 673 c 128,-1,18
 146 707 146 707 128.5 737.5 c 128,-1,19
 111 768 111 768 113 796 c 1,0,1
EndSplineSet
EndChar

StartChar: asterisk
Encoding: 42 42 13
Width: 354
Flags: W
LayerCount: 2
Fore
SplineSet
242 661 m 256,0,1
 219 655 219 655 207 638 c 128,-1,2
 195 621 195 621 196.5 601.5 c 128,-1,3
 198 582 198 582 207 565 c 128,-1,4
 216 548 216 548 235 539 c 128,-1,5
 254 530 254 530 277 536.5 c 128,-1,6
 300 543 300 543 312 559.5 c 128,-1,7
 324 576 324 576 322.5 595.5 c 128,-1,8
 321 615 321 615 312.5 632.5 c 128,-1,9
 304 650 304 650 284.5 658.5 c 128,-1,10
 265 667 265 667 242 661 c 256,0,1
215 425 m 1,11,-1
 219 421 l 1,12,-1
 215 425 l 1,11,-1
125 726 m 1,13,14
 134 723 134 723 157 708 c 128,-1,15
 180 693 180 693 200.5 684.5 c 128,-1,16
 221 676 221 676 234 683 c 0,17,18
 244 688 244 688 253.5 704.5 c 128,-1,19
 263 721 263 721 268.5 737 c 128,-1,20
 274 753 274 753 284.5 764.5 c 128,-1,21
 295 776 295 776 309 773 c 1,22,-1
 312 659 l 1,23,24
 322 658 322 658 354 660.5 c 128,-1,25
 386 663 386 663 409 660 c 128,-1,26
 432 657 432 657 438 644 c 1,27,28
 410 635 410 635 378.5 615.5 c 128,-1,29
 347 596 347 596 346 577 c 0,30,31
 345 566 345 566 352 551.5 c 128,-1,32
 359 537 359 537 365.5 528 c 128,-1,33
 372 519 372 519 386.5 502 c 128,-1,34
 401 485 401 485 402 484 c 1,35,-1
 395 472 l 1,36,37
 385 475 385 475 362 489.5 c 128,-1,38
 339 504 339 504 318.5 512.5 c 128,-1,39
 298 521 298 521 285 515 c 256,40,41
 272 509 272 509 263 493.5 c 128,-1,42
 254 478 254 478 250 463 c 128,-1,43
 246 448 246 448 236 435.5 c 128,-1,44
 226 423 226 423 211 421 c 1,45,46
 215 440 215 440 217 463.5 c 128,-1,47
 219 487 219 487 212 512 c 128,-1,48
 205 537 205 537 187 541 c 0,49,50
 177 543 177 543 152.5 539.5 c 128,-1,51
 128 536 128 536 109 537 c 128,-1,52
 90 538 90 538 82 550 c 1,53,-1
 180 612 l 1,54,55
 175 623 175 623 158.5 647 c 128,-1,56
 142 671 142 671 131.5 692 c 128,-1,57
 121 713 121 713 125 726 c 1,13,14
EndSplineSet
EndChar

StartChar: plus
Encoding: 43 43 14
Width: 667
Flags: W
LayerCount: 2
Fore
SplineSet
352 687 m 1,0,-1
 398 687 l 1,1,-1
 398 429 l 1,2,-1
 656 429 l 1,3,-1
 656 382 l 1,4,-1
 398 382 l 1,5,-1
 398 128 l 1,6,-1
 352 128 l 1,7,-1
 352 382 l 1,8,-1
 94 382 l 1,9,-1
 94 429 l 1,10,-1
 352 429 l 1,11,-1
 352 687 l 1,0,-1
EndSplineSet
EndChar

StartChar: comma
Encoding: 44 44 15
Width: 177
Flags: W
LayerCount: 2
Fore
SplineSet
90 187 m 1,0,1
 126 161 126 161 130 117.5 c 128,-1,2
 134 74 134 74 113.5 34 c 128,-1,3
 93 -6 93 -6 57 -38 c 128,-1,4
 21 -70 21 -70 -16 -75 c 1,5,6
 -13 -64 -13 -64 -5 -56.5 c 128,-1,7
 3 -49 3 -49 16 -42.5 c 128,-1,8
 29 -36 29 -36 35 -31 c 0,9,10
 52 -16 52 -16 65.5 7.5 c 128,-1,11
 79 31 79 31 84 55.5 c 128,-1,12
 89 80 89 80 77 100 c 128,-1,13
 65 120 65 120 35 124 c 1,14,-1
 90 187 l 1,0,1
EndSplineSet
EndChar

StartChar: hyphen
Encoding: 45 45 16
Width: 354
Flags: W
LayerCount: 2
Fore
SplineSet
348 370 m 1,0,-1
 352 366 l 1,1,-1
 348 370 l 1,0,-1
51 249 m 1,2,3
 64 290 64 290 89 310 c 128,-1,4
 114 330 114 330 143 331.5 c 128,-1,5
 172 333 172 333 207.5 333.5 c 128,-1,6
 243 334 243 334 277 335 c 1,7,8
 290 337 290 337 311.5 354.5 c 128,-1,9
 333 372 333 372 352 366 c 1,10,-1
 303 284 l 1,11,-1
 254 284 l 1,12,-1
 125 287 l 1,13,-1
 51 249 l 1,2,3
EndSplineSet
EndChar

StartChar: period
Encoding: 46 46 17
Width: 188
Flags: W
LayerCount: 2
Fore
SplineSet
98 206 m 0,0,1
 124 210 124 210 126 180 c 0,2,3
 128 147 128 147 106 127 c 0,4,5
 99 120 99 120 90 118 c 0,6,7
 63 112 63 112 60 142 c 0,8,9
 57 174 57 174 79 196 c 0,10,11
 88 204 88 204 98 206 c 0,0,1
EndSplineSet
EndChar

StartChar: slash
Encoding: 47 47 18
Width: 531
Flags: W
LayerCount: 2
Fore
SplineSet
90 -16 m 1,0,1
 99 16 99 16 116.5 52 c 128,-1,2
 134 88 134 88 159 133 c 128,-1,3
 184 178 184 178 194 198 c 0,4,5
 220 250 220 250 269 345.5 c 128,-1,6
 318 441 318 441 357 519 c 128,-1,7
 396 597 396 597 428 667 c 0,8,9
 448 709 448 709 499 812 c 0,10,11
 501 816 501 816 505.5 825.5 c 128,-1,12
 510 835 510 835 512 838.5 c 128,-1,13
 514 842 514 842 518 849 c 128,-1,14
 522 856 522 856 525.5 858.5 c 128,-1,15
 529 861 529 861 534.5 864.5 c 128,-1,16
 540 868 540 868 547 869 c 128,-1,17
 554 870 554 870 562 870 c 1,18,19
 520 767 520 767 463.5 653.5 c 128,-1,20
 407 540 407 540 333.5 402 c 128,-1,21
 260 264 260 264 224 191 c 0,22,23
 171 85 171 85 151 42 c 0,24,25
 150 40 150 40 146 30.5 c 128,-1,26
 142 21 142 21 141 19 c 128,-1,27
 140 17 140 17 136 10 c 128,-1,28
 132 3 132 3 129.5 0.5 c 128,-1,29
 127 -2 127 -2 122.5 -6.5 c 128,-1,30
 118 -11 118 -11 113.5 -12 c 128,-1,31
 109 -13 109 -13 103 -14.5 c 128,-1,32
 97 -16 97 -16 90 -16 c 1,0,1
EndSplineSet
EndChar

StartChar: zero
Encoding: 48 48 19
Width: 480
Flags: W
LayerCount: 2
Fore
SplineSet
328 724 m 0,0,1
 295 717 295 717 271.5 691.5 c 128,-1,2
 248 666 248 666 227 628 c 0,3,4
 188 557 188 557 168 463.5 c 128,-1,5
 148 370 148 370 148 280 c 0,6,7
 148 254 148 254 154 229 c 128,-1,8
 160 204 160 204 172 181.5 c 128,-1,9
 184 159 184 159 206.5 147.5 c 128,-1,10
 229 136 229 136 258 141 c 0,11,12
 281 145 281 145 301 163 c 128,-1,13
 321 181 321 181 332 198 c 128,-1,14
 343 215 343 215 356 241 c 0,15,16
 395 319 395 319 417.5 411 c 128,-1,17
 440 503 440 503 441 589 c 0,18,19
 442 616 442 616 435.5 641 c 128,-1,20
 429 666 429 666 416.5 687.5 c 128,-1,21
 404 709 404 709 381 719.5 c 128,-1,22
 358 730 358 730 328 724 c 0,0,1
316 743 m 1,23,24
 355 751 355 751 387 738.5 c 128,-1,25
 419 726 419 726 439 699.5 c 128,-1,26
 459 673 459 673 471.5 641.5 c 128,-1,27
 484 610 484 610 489 573 c 0,28,29
 502 488 502 488 477.5 392 c 128,-1,30
 453 296 453 296 403 222 c 0,31,32
 343 134 343 134 270 122 c 0,33,34
 231 116 231 116 199 129.5 c 128,-1,35
 167 143 167 143 145.5 171 c 128,-1,36
 124 199 124 199 111 231.5 c 128,-1,37
 98 264 98 264 92 300 c 0,38,39
 83 358 83 358 93.5 429 c 128,-1,40
 104 500 104 500 130.5 566.5 c 128,-1,41
 157 633 157 633 206 683 c 128,-1,42
 255 733 255 733 316 743 c 1,23,24
EndSplineSet
EndChar

StartChar: one
Encoding: 49 49 20
Width: 480
Flags: W
LayerCount: 2
Fore
SplineSet
199 726 m 1,0,-1
 203 722 l 1,1,-1
 199 726 l 1,0,-1
203 726 m 1,2,3
 205 732 205 732 208.5 735.5 c 128,-1,4
 212 739 212 739 218 740 c 128,-1,5
 224 741 224 741 227.5 741.5 c 128,-1,6
 231 742 231 742 239.5 741.5 c 128,-1,7
 248 741 248 741 250 741 c 0,8,9
 277 741 277 741 326 743 c 128,-1,10
 375 745 375 745 391 745 c 1,11,12
 380 669 380 669 342 526 c 128,-1,13
 304 383 304 383 293 316 c 0,14,15
 291 306 291 306 284.5 284 c 128,-1,16
 278 262 278 262 272.5 245 c 128,-1,17
 267 228 267 228 264 206.5 c 128,-1,18
 261 185 261 185 267 176 c 1,19,20
 274 160 274 160 298.5 155.5 c 128,-1,21
 323 151 323 151 348.5 147 c 128,-1,22
 374 143 374 143 383 128 c 1,23,-1
 180 124 l 1,24,25
 262 377 262 377 324 698 c 1,26,-1
 203 726 l 1,2,3
EndSplineSet
EndChar

StartChar: two
Encoding: 50 50 21
Width: 480
Flags: W
LayerCount: 2
Fore
SplineSet
137 589 m 1,0,1
 161 696 161 696 242 732 c 1,2,3
 278 750 278 750 316 745.5 c 128,-1,4
 354 741 354 741 385.5 724 c 128,-1,5
 417 707 417 707 438.5 675 c 128,-1,6
 460 643 460 643 464 605 c 0,7,8
 468 571 468 571 459 538 c 128,-1,9
 450 505 450 505 430 474 c 128,-1,10
 410 443 410 443 391 420.5 c 128,-1,11
 372 398 372 398 344 370 c 2,12,-1
 141 167 l 1,13,-1
 406 180 l 1,14,-1
 453 195 l 1,15,-1
 413 132 l 1,16,-1
 309 128 l 1,17,-1
 55 120 l 1,18,19
 59 136 59 136 78.5 154.5 c 128,-1,20
 98 173 98 173 124.5 193 c 128,-1,21
 151 213 151 213 160 222 c 0,22,23
 168 230 168 230 203 264 c 128,-1,24
 238 298 238 298 252 312.5 c 128,-1,25
 266 327 266 327 294.5 359.5 c 128,-1,26
 323 392 323 392 337.5 414 c 128,-1,27
 352 436 352 436 368 467 c 128,-1,28
 384 498 384 498 391 527 c 0,29,30
 412 611 412 611 375 667 c 1,31,32
 337 720 337 720 281.5 715.5 c 128,-1,33
 226 711 226 711 190 659 c 0,34,35
 167 626 167 626 156 581 c 1,36,-1
 137 589 l 1,0,1
EndSplineSet
EndChar

StartChar: three
Encoding: 51 51 22
Width: 480
Flags: W
LayerCount: 2
Fore
SplineSet
195 628 m 1,0,1
 202 679 202 679 252 713 c 128,-1,2
 302 747 302 747 355 745 c 0,3,4
 404 743 404 743 430.5 707.5 c 128,-1,5
 457 672 457 672 445 624 c 1,6,7
 441 603 441 603 423 577 c 0,8,9
 414 565 414 565 402.5 551.5 c 128,-1,10
 391 538 391 538 383 530.5 c 128,-1,11
 375 523 375 523 358.5 508.5 c 128,-1,12
 342 494 342 494 336 488 c 1,13,14
 369 483 369 483 392.5 464.5 c 128,-1,15
 416 446 416 446 426 420.5 c 128,-1,16
 436 395 436 395 437.5 364 c 128,-1,17
 439 333 439 333 427 304 c 1,18,19
 403 236 403 236 343 186.5 c 128,-1,20
 283 137 283 137 211 124 c 1,21,22
 181 121 181 121 152 121 c 128,-1,23
 123 121 123 121 97 137 c 128,-1,24
 71 153 71 153 62 183 c 1,25,26
 86 186 86 186 112.5 167.5 c 128,-1,27
 139 149 139 149 148 146 c 0,28,29
 207 125 207 125 289 181 c 1,30,31
 315 200 315 200 340 232 c 128,-1,32
 365 264 365 264 380 301 c 128,-1,33
 395 338 395 338 386.5 374 c 128,-1,34
 378 410 378 410 340 431 c 0,35,36
 327 438 327 438 311 441 c 128,-1,37
 295 444 295 444 284.5 443 c 128,-1,38
 274 442 274 442 254.5 439.5 c 128,-1,39
 235 437 235 437 227 437 c 1,40,41
 232 450 232 450 241.5 458 c 128,-1,42
 251 466 251 466 269 474 c 128,-1,43
 287 482 287 482 293 485 c 0,44,45
 353 521 353 521 379 566 c 0,46,47
 392 588 392 588 393 614 c 128,-1,48
 394 640 394 640 384.5 661 c 128,-1,49
 375 682 375 682 352.5 694 c 128,-1,50
 330 706 330 706 301 701 c 0,51,52
 280 698 280 698 262.5 686 c 128,-1,53
 245 674 245 674 226 655 c 128,-1,54
 207 636 207 636 195 628 c 1,0,1
EndSplineSet
EndChar

StartChar: four
Encoding: 52 52 23
Width: 480
Flags: W
LayerCount: 2
Fore
SplineSet
74 362 m 1,0,-1
 78 359 l 1,1,-1
 74 362 l 1,0,-1
398 687 m 1,2,3
 393 683 393 683 383 675 c 0,4,5
 334 637 334 637 307 615 c 128,-1,6
 280 593 280 593 239.5 556 c 128,-1,7
 199 519 199 519 171 482 c 128,-1,8
 143 445 143 445 125 405 c 1,9,-1
 273 409 l 1,10,-1
 323 412 l 1,11,-1
 348 476 l 1,12,-1
 388 629 l 1,13,-1
 398 687 l 1,2,3
78 362 m 1,14,15
 91 408 91 408 121 454 c 128,-1,16
 151 500 151 500 193.5 542 c 128,-1,17
 236 584 236 584 273 615 c 128,-1,18
 310 646 310 646 355 680 c 0,19,20
 363 686 363 686 381.5 701 c 128,-1,21
 400 716 400 716 411.5 724.5 c 128,-1,22
 423 733 423 733 440 742 c 128,-1,23
 457 751 457 751 473 753 c 1,24,-1
 387 409 l 1,25,-1
 477 413 l 1,26,27
 475 402 475 402 471.5 393.5 c 128,-1,28
 468 385 468 385 460.5 380 c 128,-1,29
 453 375 453 375 448 372 c 128,-1,30
 443 369 443 369 431.5 367.5 c 128,-1,31
 420 366 420 366 414.5 366 c 128,-1,32
 409 366 409 366 394 366 c 128,-1,33
 379 366 379 366 375 366 c 1,34,-1
 334 195 l 1,35,-1
 316 130 l 1,36,-1
 258 116 l 1,37,38
 267 224 267 224 320 366 c 1,39,-1
 78 362 l 1,14,15
EndSplineSet
EndChar

StartChar: five
Encoding: 53 53 24
Width: 480
Flags: W
LayerCount: 2
Fore
SplineSet
477 757 m 1,0,-1
 480 753 l 1,1,-1
 477 757 l 1,0,-1
211 554 m 1,2,-1
 259 691 l 1,3,-1
 283 739 l 1,4,-1
 379 734 l 1,5,-1
 477 753 l 1,6,7
 461 710 461 710 443.5 698.5 c 128,-1,8
 426 687 426 687 394.5 691 c 128,-1,9
 363 695 363 695 339 701 c 128,-1,10
 315 707 315 707 290 694 c 0,11,12
 283 690 283 690 276.5 679 c 128,-1,13
 270 668 270 668 267 658 c 128,-1,14
 264 648 264 648 259.5 632.5 c 128,-1,15
 255 617 255 617 254 612 c 1,16,17
 352 584 352 584 397 530 c 1,18,19
 448 465 448 465 435 389 c 128,-1,20
 422 313 422 313 373 247 c 128,-1,21
 324 181 324 181 262 147 c 0,22,23
 182 103 182 103 98 120 c 0,24,25
 83 123 83 123 76 125 c 128,-1,26
 69 127 69 127 58.5 133 c 128,-1,27
 48 139 48 139 43 148 c 1,28,29
 198 112 198 112 300 211 c 0,30,31
 333 242 333 242 356 287 c 128,-1,32
 379 332 379 332 383.5 382 c 128,-1,33
 388 432 388 432 360 472 c 0,34,35
 317 532 317 532 211 554 c 1,2,-1
207 554 m 1,36,-1
 211 550 l 1,37,-1
 207 554 l 1,36,-1
EndSplineSet
EndChar

StartChar: six
Encoding: 54 54 25
Width: 480
Flags: W
LayerCount: 2
Fore
SplineSet
457 745 m 1,0,-1
 457 741 l 1,1,-1
 488 738 l 1,2,-1
 457 745 l 1,0,-1
285 466 m 0,3,4
 238 459 238 459 206 423 c 128,-1,5
 174 387 174 387 163 342 c 128,-1,6
 152 297 152 297 157 249 c 0,7,8
 162 200 162 200 194 166.5 c 128,-1,9
 226 133 226 133 273 141 c 0,10,11
 307 147 307 147 332.5 172.5 c 128,-1,12
 358 198 358 198 371.5 233.5 c 128,-1,13
 385 269 385 269 390.5 305.5 c 128,-1,14
 396 342 396 342 394 374 c 0,15,16
 391 421 391 421 361 447 c 128,-1,17
 331 473 331 473 285 466 c 0,3,4
195 441 m 1,18,19
 241 479 241 479 298 485 c 128,-1,20
 355 491 355 491 400 458.5 c 128,-1,21
 445 426 445 426 455 362 c 0,22,23
 461 324 461 324 449.5 283 c 128,-1,24
 438 242 438 242 414.5 209 c 128,-1,25
 391 176 391 176 357.5 152.5 c 128,-1,26
 324 129 324 129 288 120.5 c 128,-1,27
 252 112 252 112 214.5 125 c 128,-1,28
 177 138 177 138 146 175 c 1,29,30
 124 203 124 203 112 238 c 0,31,32
 88 313 88 313 108 397 c 128,-1,33
 128 481 128 481 173.5 555.5 c 128,-1,34
 219 630 219 630 277 679 c 0,35,36
 355 745 355 745 430 745 c 0,37,38
 477 745 477 745 488 730 c 1,39,40
 417 730 417 730 352 687 c 128,-1,41
 287 644 287 644 246.5 578.5 c 128,-1,42
 206 513 206 513 195 441 c 1,18,19
EndSplineSet
EndChar

StartChar: seven
Encoding: 55 55 26
Width: 480
Flags: W
LayerCount: 2
Fore
SplineSet
148 632 m 1,0,1
 150 637 150 637 156.5 655 c 128,-1,2
 163 673 163 673 169 687.5 c 128,-1,3
 175 702 175 702 183 718.5 c 128,-1,4
 191 735 191 735 200.5 743 c 128,-1,5
 210 751 210 751 219 749 c 1,6,-1
 215 734 l 1,7,-1
 516 741 l 1,8,9
 493 688 493 688 420 542.5 c 128,-1,10
 347 397 347 397 319 312 c 0,11,12
 318 310 318 310 317 306 c 0,13,14
 311 289 311 289 308 279 c 128,-1,15
 305 269 305 269 300.5 250 c 128,-1,16
 296 231 296 231 296 218 c 128,-1,17
 296 205 296 205 298 190.5 c 128,-1,18
 300 176 300 176 309 166 c 128,-1,19
 318 156 318 156 332 152 c 1,20,21
 325 140 325 140 313.5 132 c 128,-1,22
 302 124 302 124 290.5 121 c 128,-1,23
 279 118 279 118 268.5 124.5 c 128,-1,24
 258 131 258 131 253 148 c 0,25,26
 244 174 244 174 261 230 c 0,27,28
 326 452 326 452 461 683 c 1,29,30
 407 693 407 693 340 694 c 128,-1,31
 273 695 273 695 219 685 c 0,32,33
 206 682 206 682 194.5 667.5 c 128,-1,34
 183 653 183 653 172.5 641.5 c 128,-1,35
 162 630 162 630 148 632 c 1,0,1
EndSplineSet
EndChar

StartChar: eight
Encoding: 56 56 27
Width: 480
Flags: W
LayerCount: 2
Fore
SplineSet
320 499 m 1,0,1
 366 524 366 524 387 550 c 0,2,3
 409 576 409 576 417 605 c 0,4,5
 424 630 424 630 421 655 c 0,6,7
 415 713 415 713 362 723 c 0,8,9
 313 733 313 733 270 699 c 0,10,11
 226 664 226 664 236 612 c 0,12,13
 240 591 240 591 258 566 c 0,14,15
 264 557 264 557 272.5 547.5 c 128,-1,16
 281 538 281 538 287.5 531.5 c 128,-1,17
 294 525 294 525 304.5 514.5 c 128,-1,18
 315 504 315 504 320 499 c 1,0,1
273 452 m 0,19,20
 268 452 268 452 261.5 449.5 c 128,-1,21
 255 447 255 447 246.5 441.5 c 128,-1,22
 238 436 238 436 234 433 c 128,-1,23
 230 430 230 430 221 422.5 c 128,-1,24
 212 415 212 415 211 415 c 0,25,26
 182 392 182 392 162.5 355.5 c 128,-1,27
 143 319 143 319 138.5 281 c 128,-1,28
 134 243 134 243 142.5 209.5 c 128,-1,29
 151 176 151 176 182 156 c 128,-1,30
 213 136 213 136 262 140 c 0,31,32
 322 144 322 144 356 189 c 128,-1,33
 390 234 390 234 387 291 c 128,-1,34
 384 348 384 348 347 390 c 0,35,36
 344 393 344 393 336 402.5 c 128,-1,37
 328 412 328 412 321 419.5 c 128,-1,38
 314 427 314 427 305.5 435.5 c 128,-1,39
 297 444 297 444 288.5 448.5 c 128,-1,40
 280 453 280 453 273 452 c 0,19,20
262 464 m 1,41,42
 214 511 214 511 199 546 c 128,-1,43
 184 581 184 581 189 616 c 0,44,45
 196 667 196 667 236 703 c 128,-1,46
 276 739 276 739 328 745 c 0,47,48
 390 751 390 751 427.5 710 c 128,-1,49
 465 669 465 669 449 609 c 0,50,51
 441 580 441 580 421 554 c 0,52,53
 411 540 411 540 397 528.5 c 128,-1,54
 383 517 383 517 364 504 c 128,-1,55
 345 491 345 491 336 484 c 1,56,57
 377 464 377 464 402.5 429.5 c 128,-1,58
 428 395 428 395 435 356.5 c 128,-1,59
 442 318 442 318 433.5 277 c 128,-1,60
 425 236 425 236 403.5 202.5 c 128,-1,61
 382 169 382 169 346 146.5 c 128,-1,62
 310 124 310 124 266 120 c 0,63,64
 208 116 208 116 163.5 144 c 128,-1,65
 119 172 119 172 104.5 218.5 c 128,-1,66
 90 265 90 265 108 323 c 1,67,68
 124 370 124 370 167.5 407.5 c 128,-1,69
 211 445 211 445 262 464 c 1,41,42
EndSplineSet
EndChar

StartChar: nine
Encoding: 57 57 28
Width: 480
Flags: W
LayerCount: 2
Fore
SplineSet
301 724 m 0,0,1
 267 717 267 717 242 691.5 c 128,-1,2
 217 666 217 666 205 630.5 c 128,-1,3
 193 595 193 595 188 560 c 128,-1,4
 183 525 183 525 184 491 c 0,5,6
 185 446 185 446 214.5 418.5 c 128,-1,7
 244 391 244 391 289 399 c 0,8,9
 335 408 335 408 366.5 445 c 128,-1,10
 398 482 398 482 408.5 528.5 c 128,-1,11
 419 575 419 575 412 620 c 0,12,13
 405 670 405 670 376.5 701.5 c 128,-1,14
 348 733 348 733 301 724 c 0,0,1
86 128 m 1,15,-1
 117 120 l 1,16,-1
 86 128 l 1,15,-1
383 425 m 1,17,18
 344 394 344 394 312 386 c 1,19,20
 249 368 249 368 200 394.5 c 128,-1,21
 151 421 151 421 132 475 c 128,-1,22
 113 529 113 529 128 589 c 0,23,24
 142 641 142 641 181 680.5 c 128,-1,25
 220 720 220 720 266.5 736 c 128,-1,26
 313 752 313 752 362.5 736 c 128,-1,27
 412 720 412 720 444 667 c 0,28,29
 495 580 495 580 455 441 c 0,30,31
 440 390 440 390 417 342 c 128,-1,32
 394 294 394 294 359.5 250 c 128,-1,33
 325 206 325 206 284.5 175 c 128,-1,34
 244 144 244 144 192.5 131 c 128,-1,35
 141 118 141 118 86 128 c 1,36,37
 90 134 90 134 99 136 c 128,-1,38
 108 138 108 138 116 137 c 128,-1,39
 124 136 124 136 133 137 c 0,40,41
 175 143 175 143 211 166 c 0,42,43
 272 205 272 205 317 276 c 128,-1,44
 362 347 362 347 383 425 c 1,17,18
EndSplineSet
EndChar

StartChar: colon
Encoding: 58 58 29
Width: 188
Flags: W
LayerCount: 2
Fore
SplineSet
86 206 m 0,0,1
 112 210 112 210 114 180 c 0,2,3
 117 147 117 147 95 127 c 0,4,5
 87 120 87 120 78 118 c 0,6,7
 51 112 51 112 48 142 c 0,8,9
 45 174 45 174 67 196 c 0,10,11
 76 204 76 204 86 206 c 0,0,1
144 453 m 0,12,13
 169 459 169 459 173 430 c 0,14,15
 177 397 177 397 155 375 c 0,16,17
 147 367 147 367 137 364 c 0,18,19
 108 358 108 358 107 389 c 0,20,21
 105 421 105 421 128 443 c 0,22,23
 136 451 136 451 144 453 c 0,12,13
EndSplineSet
EndChar

StartChar: semicolon
Encoding: 59 59 30
Width: 188
Flags: W
LayerCount: 2
Fore
SplineSet
20 -36 m 1,0,-1
 27 -48 l 1,1,-1
 20 -36 l 1,0,-1
74 187 m 1,2,3
 107 176 107 176 121.5 150.5 c 128,-1,4
 136 125 136 125 132 95 c 128,-1,5
 128 65 128 65 114.5 35 c 128,-1,6
 101 5 101 5 77 -17.5 c 128,-1,7
 53 -40 53 -40 27 -48 c 1,8,-1
 20 -32 l 1,9,10
 51 -11 51 -11 70.5 20 c 128,-1,11
 90 51 90 51 85 83.5 c 128,-1,12
 80 116 80 116 39 132 c 1,13,-1
 74 187 l 1,2,3
35 132 m 1,14,-1
 39 128 l 1,15,-1
 35 132 l 1,14,-1
144 453 m 0,16,17
 169 459 169 459 173 430 c 0,18,19
 177 397 177 397 155 375 c 0,20,21
 147 367 147 367 137 364 c 0,22,23
 108 358 108 358 107 389 c 0,24,25
 105 421 105 421 128 443 c 0,26,27
 136 451 136 451 144 453 c 0,16,17
EndSplineSet
EndChar

StartChar: less
Encoding: 60 60 31
Width: 667
Flags: W
LayerCount: 2
Fore
SplineSet
652 663 m 1,0,1
 657 652 657 652 657 642 c 128,-1,2
 657 632 657 632 653.5 624.5 c 128,-1,3
 650 617 650 617 643 610.5 c 128,-1,4
 636 604 636 604 627.5 599.5 c 128,-1,5
 619 595 619 595 608 590.5 c 128,-1,6
 597 586 597 586 588 582.5 c 128,-1,7
 579 579 579 579 568 575.5 c 128,-1,8
 557 572 557 572 551 569 c 0,9,10
 535 562 535 562 384 503 c 128,-1,11
 233 444 233 444 160 405 c 1,12,13
 292 354 292 354 539 248 c 0,14,15
 546 245 546 245 574.5 236 c 128,-1,16
 603 227 603 227 624 217.5 c 128,-1,17
 645 208 645 208 652 197 c 0,18,19
 655 192 655 192 656 185.5 c 128,-1,20
 657 179 657 179 657 173.5 c 128,-1,21
 657 168 657 168 656.5 159.5 c 128,-1,22
 656 151 656 151 656 148 c 1,23,24
 570 177 570 177 415 246.5 c 128,-1,25
 260 316 260 316 219 333 c 0,26,27
 213 335 213 335 192 342 c 128,-1,28
 171 349 171 349 156.5 355 c 128,-1,29
 142 361 142 361 125 370.5 c 128,-1,30
 108 380 108 380 101 393 c 128,-1,31
 94 406 94 406 99 420 c 0,32,33
 100 425 100 425 105 429.5 c 128,-1,34
 110 434 110 434 114.5 435.5 c 128,-1,35
 119 437 119 437 126.5 440 c 128,-1,36
 134 443 134 443 137 444 c 2,37,-1
 238 487 l 2,38,39
 284 507 284 507 370 539.5 c 128,-1,40
 456 572 456 572 526 601.5 c 128,-1,41
 596 631 596 631 652 663 c 1,0,1
EndSplineSet
EndChar

StartChar: equal
Encoding: 61 61 32
Width: 667
Flags: W
LayerCount: 2
Fore
SplineSet
98 312 m 1,0,-1
 656 312 l 1,1,-1
 656 265 l 1,2,-1
 98 265 l 1,3,-1
 98 312 l 1,0,-1
98 554 m 1,4,-1
 656 554 l 1,5,-1
 656 507 l 1,6,-1
 98 507 l 1,7,-1
 98 554 l 1,4,-1
EndSplineSet
EndChar

StartChar: greater
Encoding: 62 62 33
Width: 667
Flags: W
LayerCount: 2
Fore
SplineSet
94 152 m 1,0,-1
 98 148 l 1,1,-1
 94 152 l 1,0,-1
98 663 m 1,2,3
 162 638 162 638 228 610 c 128,-1,4
 294 582 294 582 390 540 c 128,-1,5
 486 498 486 498 520 484 c 2,6,-1
 621 441 l 2,7,8
 623 440 623 440 628.5 437.5 c 128,-1,9
 634 435 634 435 637 433.5 c 128,-1,10
 640 432 640 432 644.5 429.5 c 128,-1,11
 649 427 649 427 651.5 424 c 128,-1,12
 654 421 654 421 655 417 c 0,13,14
 659 403 659 403 651.5 391 c 128,-1,15
 644 379 644 379 627.5 370 c 128,-1,16
 611 361 611 361 596 355 c 128,-1,17
 581 349 581 349 561 342 c 128,-1,18
 541 335 541 335 535 333 c 2,19,-1
 258 216 l 2,20,21
 243 210 243 210 209 194 c 128,-1,22
 175 178 175 178 148.5 167.5 c 128,-1,23
 122 157 122 157 98 152 c 1,24,25
 98 155 98 155 97.5 162.5 c 128,-1,26
 97 170 97 170 97 175 c 128,-1,27
 97 180 97 180 98 186.5 c 128,-1,28
 99 193 99 193 102 196 c 0,29,30
 110 208 110 208 131 218 c 128,-1,31
 152 228 152 228 182.5 237.5 c 128,-1,32
 213 247 213 247 219 249 c 0,33,34
 504 363 504 363 594 405 c 1,35,36
 536 425 536 425 473 451 c 128,-1,37
 410 477 410 477 332.5 511 c 128,-1,38
 255 545 255 545 215 562 c 0,39,40
 209 564 209 564 179.5 573.5 c 128,-1,41
 150 583 150 583 129.5 593 c 128,-1,42
 109 603 109 603 102 614 c 0,43,44
 98 620 98 620 97 627.5 c 128,-1,45
 96 635 96 635 97 648.5 c 128,-1,46
 98 662 98 662 98 663 c 1,2,3
EndSplineSet
EndChar

StartChar: question
Encoding: 63 63 34
Width: 323
Flags: W
LayerCount: 2
Fore
SplineSet
86 206 m 0,0,1
 112 210 112 210 114 180 c 0,2,3
 117 147 117 147 95 127 c 0,4,5
 87 120 87 120 78 118 c 0,6,7
 51 112 51 112 48 142 c 0,8,9
 45 174 45 174 67 196 c 0,10,11
 76 204 76 204 86 206 c 0,0,1
156 632 m 1,12,13
 157 670 157 670 180.5 691.5 c 128,-1,14
 204 713 204 713 235 714 c 128,-1,15
 266 715 266 715 297.5 699.5 c 128,-1,16
 329 684 329 684 346 655 c 0,17,18
 372 608 372 608 350.5 531 c 128,-1,19
 329 454 329 454 281 428 c 0,20,21
 262 417 262 417 214 406 c 128,-1,22
 166 395 166 395 145 380 c 0,23,24
 132 371 132 371 113 331 c 128,-1,25
 94 291 94 291 78 288 c 1,26,27
 78 402 78 402 172 440 c 0,28,29
 185 445 185 445 214.5 452.5 c 128,-1,30
 244 460 244 460 264.5 469.5 c 128,-1,31
 285 479 285 479 300 495 c 0,32,33
 323 521 323 521 324 557 c 128,-1,34
 325 593 325 593 305 622.5 c 128,-1,35
 285 652 285 652 250 658 c 0,36,37
 228 662 228 662 198 648 c 128,-1,38
 168 634 168 634 156 632 c 1,12,13
EndSplineSet
EndChar

StartChar: at
Encoding: 64 64 35
Width: 979
Flags: W
LayerCount: 2
Fore
SplineSet
578 603 m 1,0,1
 542 594 542 594 509 563 c 128,-1,2
 476 532 476 532 452.5 489.5 c 128,-1,3
 429 447 429 447 413.5 406 c 128,-1,4
 398 365 398 365 389 327 c 1,5,6
 383 307 383 307 385 284.5 c 128,-1,7
 387 262 387 262 393 243 c 128,-1,8
 399 224 399 224 417 213.5 c 128,-1,9
 435 203 435 203 461 208 c 0,10,11
 510 217 510 217 553.5 264 c 128,-1,12
 597 311 597 311 622 366 c 128,-1,13
 647 421 647 421 655 472 c 1,14,15
 660 493 660 493 658 518 c 128,-1,16
 656 543 656 543 650.5 564.5 c 128,-1,17
 645 586 645 586 626 597.5 c 128,-1,18
 607 609 607 609 578 603 c 1,0,1
1000 218 m 1,19,20
 990 161 990 161 950 104.5 c 128,-1,21
 910 48 910 48 859 6 c 0,22,23
 796 -45 796 -45 718 -71 c 128,-1,24
 640 -97 640 -97 562 -97.5 c 128,-1,25
 484 -98 484 -98 407.5 -74 c 128,-1,26
 331 -50 331 -50 269.5 -5.5 c 128,-1,27
 208 39 208 39 163 108 c 128,-1,28
 118 177 118 177 103 261 c 0,29,30
 78 401 78 401 122 536 c 128,-1,31
 166 671 166 671 273 759 c 0,32,33
 339 813 339 813 427.5 842.5 c 128,-1,34
 516 872 516 872 605 871.5 c 128,-1,35
 694 871 694 871 775.5 830 c 128,-1,36
 857 789 857 789 904 710 c 1,37,38
 964 605 964 605 956 483 c 128,-1,39
 948 361 948 361 881 261 c 0,40,41
 848 213 848 213 801.5 182.5 c 128,-1,42
 755 152 755 152 699 145 c 0,43,44
 633 137 633 137 608 168 c 0,45,46
 595 184 595 184 594 205.5 c 128,-1,47
 593 227 593 227 596.5 252 c 128,-1,48
 600 277 600 277 598 292 c 1,49,50
 585 265 585 265 557.5 234.5 c 128,-1,51
 530 204 530 204 495 181.5 c 128,-1,52
 460 159 460 159 425 148.5 c 128,-1,53
 390 138 390 138 358.5 153 c 128,-1,54
 327 168 327 168 310 210 c 1,55,56
 296 255 296 255 300 299.5 c 128,-1,57
 304 344 304 344 325.5 391 c 128,-1,58
 347 438 347 438 373 476.5 c 128,-1,59
 399 515 399 515 430 546 c 0,60,61
 448 565 448 565 474.5 584 c 128,-1,62
 501 603 501 603 533.5 616.5 c 128,-1,63
 566 630 566 630 594.5 632.5 c 128,-1,64
 623 635 623 635 647 617.5 c 128,-1,65
 671 600 671 600 680 562 c 1,66,-1
 684 562 l 1,67,68
 686 579 686 579 691.5 591 c 128,-1,69
 697 603 697 603 703 609.5 c 128,-1,70
 709 616 709 616 723 620 c 128,-1,71
 737 624 737 624 746.5 625 c 128,-1,72
 756 626 756 626 777 628 c 1,73,74
 729 478 729 478 686 308 c 0,75,76
 685 305 685 305 678 281 c 128,-1,77
 671 257 671 257 669.5 246.5 c 128,-1,78
 668 236 668 236 670.5 219 c 128,-1,79
 673 202 673 202 684 192 c 0,80,81
 729 153 729 153 824 249 c 0,82,83
 888 315 888 315 912.5 412 c 128,-1,84
 937 509 937 509 916 601 c 0,85,86
 899 679 899 679 845.5 736 c 128,-1,87
 792 793 792 793 722.5 817.5 c 128,-1,88
 653 842 653 842 574 840.5 c 128,-1,89
 495 839 495 839 426 808 c 0,90,91
 323 763 323 763 253 670.5 c 128,-1,92
 183 578 183 578 158 464 c 0,93,94
 129 335 129 335 164.5 211 c 128,-1,95
 200 87 200 87 301 11 c 0,96,97
 364 -37 364 -37 445 -57 c 128,-1,98
 526 -77 526 -77 607 -65.5 c 128,-1,99
 688 -54 688 -54 761.5 -20 c 128,-1,100
 835 14 835 14 890.5 76.5 c 128,-1,101
 946 139 946 139 969 218 c 1,102,-1
 1000 218 l 1,19,20
EndSplineSet
EndChar

StartChar: A
Encoding: 65 65 36
Width: 552
Flags: W
LayerCount: 2
Fore
SplineSet
320 128 m 1,0,-1
 320 124 l 1,1,-1
 445 124 l 1,2,-1
 320 128 l 1,0,-1
-4 128 m 1,3,-1
 0 124 l 1,4,-1
 -4 128 l 1,3,-1
398 632 m 1,5,-1
 254 398 l 1,6,7
 302 386 302 386 395 398 c 1,8,-1
 406 632 l 1,9,-1
 398 632 l 1,5,-1
0 128 m 1,10,11
 3 138 3 138 14 142 c 128,-1,12
 25 146 25 146 40 147.5 c 128,-1,13
 55 149 55 149 62 153 c 0,14,15
 69 156 69 156 75 161.5 c 128,-1,16
 81 167 81 167 85 171 c 128,-1,17
 89 175 89 175 95.5 184 c 128,-1,18
 102 193 102 193 104 195.5 c 128,-1,19
 106 198 106 198 112.5 209.5 c 128,-1,20
 119 221 119 221 120 222 c 0,21,22
 143 261 143 261 194 348.5 c 128,-1,23
 245 436 245 436 284.5 501 c 128,-1,24
 324 566 324 566 363 624 c 0,25,26
 368 632 368 632 383 657 c 128,-1,27
 398 682 398 682 409 699.5 c 128,-1,28
 420 717 420 717 437 734 c 128,-1,29
 454 751 454 751 469 753 c 1,30,31
 469 538 469 538 457 362 c 0,32,33
 456 356 456 356 450 307.5 c 128,-1,34
 444 259 444 259 444.5 227.5 c 128,-1,35
 445 196 445 196 455 175 c 0,36,37
 462 161 462 161 472.5 155 c 128,-1,38
 483 149 483 149 497 151 c 128,-1,39
 511 153 511 153 520.5 155.5 c 128,-1,40
 530 158 530 158 546 165 c 0,41,42
 549 167 549 167 551 167 c 1,43,44
 550 131 550 131 496 125 c 0,45,46
 467 121 467 121 401 124 c 128,-1,47
 335 127 335 127 305 124 c 1,48,-1
 309 148 l 1,49,50
 339 149 339 149 357 163.5 c 128,-1,51
 375 178 375 178 381.5 204 c 128,-1,52
 388 230 388 230 390 254.5 c 128,-1,53
 392 279 392 279 392 312.5 c 128,-1,54
 392 346 392 346 395 362 c 1,55,56
 391 363 391 363 359 366.5 c 128,-1,57
 327 370 327 370 309 371 c 128,-1,58
 291 372 291 372 267 368 c 128,-1,59
 243 364 243 364 233 353 c 0,60,61
 218 338 218 338 205.5 315.5 c 128,-1,62
 193 293 193 293 178 258 c 128,-1,63
 163 223 163 223 159 214 c 0,64,65
 159 213 159 213 154.5 205 c 128,-1,66
 150 197 150 197 148.5 194 c 128,-1,67
 147 191 147 191 143.5 182 c 128,-1,68
 140 173 140 173 141 170.5 c 128,-1,69
 142 168 142 168 143 160 c 1,70,71
 149 144 149 144 195 144 c 1,72,-1
 195 124 l 1,73,-1
 0 128 l 1,10,11
EndSplineSet
EndChar

StartChar: B
Encoding: 66 66 37
Width: 500
Flags: W
LayerCount: 2
Fore
SplineSet
293 710 m 1,0,-1
 242 484 l 1,1,2
 251 483 251 483 275 482 c 128,-1,3
 299 481 299 481 311.5 481 c 128,-1,4
 324 481 324 481 343 483 c 128,-1,5
 362 485 362 485 377 492.5 c 128,-1,6
 392 500 392 500 406 512 c 0,7,8
 439 543 439 543 438.5 599.5 c 128,-1,9
 438 656 438 656 402 685 c 0,10,11
 388 696 388 696 367.5 702 c 128,-1,12
 347 708 347 708 332 709 c 128,-1,13
 317 710 317 710 293 710 c 1,0,-1
234 452 m 1,14,15
 232 420 232 420 216.5 370 c 128,-1,16
 201 320 201 320 190 273.5 c 128,-1,17
 179 227 179 227 184 191 c 0,18,19
 189 157 189 157 228.5 149 c 128,-1,20
 268 141 268 141 308.5 151.5 c 128,-1,21
 349 162 349 162 371 176 c 0,22,23
 414 205 414 205 427.5 253 c 128,-1,24
 441 301 441 301 424 349 c 128,-1,25
 407 397 407 397 367 427 c 0,26,27
 318 463 318 463 234 452 c 1,14,15
129 738 m 1,28,29
 148 738 148 738 218 741.5 c 128,-1,30
 288 745 288 745 336 742 c 128,-1,31
 384 739 384 739 422 724 c 0,32,33
 476 702 476 702 496 649 c 128,-1,34
 516 596 516 596 484 546 c 0,35,36
 478 537 478 537 470 528.5 c 128,-1,37
 462 520 462 520 455.5 514 c 128,-1,38
 449 508 449 508 437.5 500.5 c 128,-1,39
 426 493 426 493 420.5 490 c 128,-1,40
 415 487 415 487 401 478.5 c 128,-1,41
 387 470 387 470 383 468 c 1,42,43
 431 448 431 448 462.5 405.5 c 128,-1,44
 494 363 494 363 501.5 316.5 c 128,-1,45
 509 270 509 270 487 224 c 128,-1,46
 465 178 465 178 414 151 c 0,47,48
 388 137 388 137 355 131 c 128,-1,49
 322 125 322 125 303.5 125 c 128,-1,50
 285 125 285 125 239.5 128 c 128,-1,51
 194 131 194 131 184 132 c 0,52,53
 151 133 151 133 92 130.5 c 128,-1,54
 33 128 33 128 12 128 c 1,55,-1
 12 152 l 1,56,57
 13 152 13 152 23 151.5 c 128,-1,58
 33 151 33 151 36 151.5 c 128,-1,59
 39 152 39 152 48 152 c 128,-1,60
 57 152 57 152 61.5 153.5 c 128,-1,61
 66 155 66 155 72.5 156.5 c 128,-1,62
 79 158 79 158 84 161 c 128,-1,63
 89 164 89 164 93 168 c 0,64,65
 102 177 102 177 108.5 191 c 128,-1,66
 115 205 115 205 118 216.5 c 128,-1,67
 121 228 121 228 125 247 c 128,-1,68
 129 266 129 266 130 273 c 0,69,70
 143 324 143 324 163.5 419 c 128,-1,71
 184 514 184 514 191 542 c 0,72,73
 193 550 193 550 198.5 568 c 128,-1,74
 204 586 204 586 208.5 603 c 128,-1,75
 213 620 213 620 217 638.5 c 128,-1,76
 221 657 221 657 220.5 672.5 c 128,-1,77
 220 688 220 688 215 698 c 0,78,79
 211 704 211 704 203 708 c 128,-1,80
 195 712 195 712 184.5 713.5 c 128,-1,81
 174 715 174 715 165.5 715 c 128,-1,82
 157 715 157 715 145 714.5 c 128,-1,83
 133 714 133 714 129 714 c 1,84,-1
 129 738 l 1,28,29
EndSplineSet
EndChar

StartChar: C
Encoding: 67 67 38
Width: 615
Flags: W
LayerCount: 2
Fore
SplineSet
594 257 m 1,0,1
 592 254 592 254 577 214 c 128,-1,2
 562 174 562 174 549 162 c 0,3,4
 545 158 545 158 539.5 154.5 c 128,-1,5
 534 151 534 151 526.5 147.5 c 128,-1,6
 519 144 519 144 514 142 c 128,-1,7
 509 140 509 140 499.5 137 c 128,-1,8
 490 134 490 134 485.5 132.5 c 128,-1,9
 481 131 481 131 470 128.5 c 128,-1,10
 459 126 459 126 456.5 125.5 c 128,-1,11
 454 125 454 125 442 122.5 c 128,-1,12
 430 120 430 120 430 120 c 1,13,14
 380 108 380 108 328 115 c 128,-1,15
 276 122 276 122 231.5 141 c 128,-1,16
 187 160 187 160 152 198.5 c 128,-1,17
 117 237 117 237 102 288 c 0,18,19
 75 377 75 377 107 484 c 1,20,21
 133 567 133 567 198 632.5 c 128,-1,22
 263 698 263 698 350 729 c 128,-1,23
 437 760 437 760 523 747 c 0,24,25
 571 739 571 739 618.5 722.5 c 128,-1,26
 666 706 666 706 679 678 c 0,27,28
 686 664 686 664 677 623 c 128,-1,29
 668 582 668 582 668 577 c 1,30,-1
 645 573 l 1,31,32
 644 621 644 621 620.5 655.5 c 128,-1,33
 597 690 597 690 560 705.5 c 128,-1,34
 523 721 523 721 479 721 c 128,-1,35
 435 721 435 721 395 704 c 1,36,37
 303 668 303 668 243 586.5 c 128,-1,38
 183 505 183 505 170 405 c 0,39,40
 159 326 159 326 197 251 c 128,-1,41
 235 176 235 176 309 150 c 1,42,43
 361 135 361 135 410.5 147.5 c 128,-1,44
 460 160 460 160 504 193 c 0,45,46
 512 200 512 200 529 222.5 c 128,-1,47
 546 245 546 245 561.5 255.5 c 128,-1,48
 577 266 577 266 594 257 c 1,0,1
EndSplineSet
EndChar

StartChar: D
Encoding: 68 68 39
Width: 667
Flags: W
LayerCount: 2
Fore
SplineSet
297 710 m 1,0,1
 289 653 289 653 275.5 590.5 c 128,-1,2
 262 528 262 528 240.5 445 c 128,-1,3
 219 362 219 362 211 327 c 0,4,5
 209 319 209 319 204 301 c 128,-1,6
 199 283 199 283 195 267.5 c 128,-1,7
 191 252 191 252 187.5 234 c 128,-1,8
 184 216 184 216 185 200.5 c 128,-1,9
 186 185 186 185 191 175 c 1,10,11
 198 164 198 164 215.5 158 c 128,-1,12
 233 152 233 152 242.5 152 c 128,-1,13
 252 152 252 152 273 152 c 0,14,15
 323 151 323 151 350.5 153 c 128,-1,16
 378 155 378 155 418.5 165.5 c 128,-1,17
 459 176 459 176 488 198 c 0,18,19
 555 248 555 248 586.5 333 c 128,-1,20
 618 418 618 418 601 507 c 128,-1,21
 584 596 584 596 520 650 c 0,22,23
 477 687 477 687 423 698.5 c 128,-1,24
 369 710 369 710 297 710 c 1,0,1
90 714 m 1,25,-1
 94 710 l 1,26,-1
 90 714 l 1,25,-1
94 738 m 1,27,28
 122 738 122 738 182.5 740 c 128,-1,29
 243 742 243 742 282 741.5 c 128,-1,30
 321 741 321 741 373 737 c 128,-1,31
 425 733 425 733 469 720 c 128,-1,32
 513 707 513 707 551 685 c 0,33,34
 618 645 618 645 652 574.5 c 128,-1,35
 686 504 686 504 683.5 431 c 128,-1,36
 681 358 681 358 644.5 287.5 c 128,-1,37
 608 217 608 217 543 177 c 0,38,39
 489 144 489 144 423.5 134 c 128,-1,40
 358 124 358 124 270 124 c 2,41,-1
 0 124 l 1,42,-1
 0 152 l 1,43,44
 4 152 4 152 21.5 151 c 128,-1,45
 39 150 39 150 47.5 150.5 c 128,-1,46
 56 151 56 151 68.5 154.5 c 128,-1,47
 81 158 81 158 89 165 c 256,48,49
 97 172 97 172 103 181.5 c 128,-1,50
 109 191 109 191 113.5 204 c 128,-1,51
 118 217 118 217 120 226 c 128,-1,52
 122 235 122 235 125.5 251.5 c 128,-1,53
 129 268 129 268 130 273 c 2,54,-1
 186 530 l 2,55,56
 205 615 205 615 210 652 c 0,57,58
 211 653 211 653 212.5 662.5 c 128,-1,59
 214 672 214 672 214 676 c 128,-1,60
 214 680 214 680 213 686.5 c 128,-1,61
 212 693 212 693 209 698 c 0,62,63
 202 707 202 707 185.5 711 c 128,-1,64
 169 715 169 715 155.5 715.5 c 128,-1,65
 142 716 142 716 120 715 c 128,-1,66
 98 714 98 714 94 714 c 1,67,-1
 94 738 l 1,27,28
EndSplineSet
EndChar

StartChar: E
Encoding: 69 69 40
Width: 469
Flags: W
LayerCount: 2
Fore
SplineSet
20 128 m 1,0,-1
 20 124 l 1,1,-1
 398 124 l 1,2,-1
 277 132 l 1,3,-1
 20 128 l 1,0,-1
102 718 m 1,4,5
 102 729 102 729 109.5 735 c 128,-1,6
 117 741 117 741 129.5 742.5 c 128,-1,7
 142 744 142 744 153 744 c 128,-1,8
 164 744 164 744 179 742.5 c 128,-1,9
 194 741 194 741 199 741 c 2,10,-1
 516 741 l 1,11,-1
 504 644 l 1,12,-1
 488 644 l 1,13,-1
 471 704 l 1,14,-1
 418 714 l 1,15,-1
 301 714 l 1,16,-1
 246 484 l 1,17,18
 255 484 255 484 276.5 483 c 128,-1,19
 298 482 298 482 312 481.5 c 128,-1,20
 326 481 326 481 344.5 483.5 c 128,-1,21
 363 486 363 486 375 492.5 c 128,-1,22
 387 499 387 499 394 513.5 c 128,-1,23
 401 528 401 528 408.5 538.5 c 128,-1,24
 416 549 416 549 434 550 c 1,25,-1
 395 394 l 1,26,-1
 375 394 l 1,27,28
 375 398 375 398 376.5 408 c 128,-1,29
 378 418 378 418 378 426 c 128,-1,30
 378 434 378 434 375 440 c 0,31,32
 369 451 369 451 349.5 455.5 c 128,-1,33
 330 460 330 460 312 459.5 c 128,-1,34
 294 459 294 459 269 457.5 c 128,-1,35
 244 456 244 456 238 456 c 1,36,-1
 168 159 l 1,37,38
 185 159 185 159 218 157 c 128,-1,39
 251 155 251 155 274 154 c 128,-1,40
 297 153 297 153 327 156 c 128,-1,41
 357 159 357 159 378 167 c 128,-1,42
 399 175 399 175 417.5 194 c 128,-1,43
 436 213 436 213 445 241 c 1,44,45
 456 235 456 235 457 217 c 128,-1,46
 458 199 458 199 451 179.5 c 128,-1,47
 444 160 444 160 432.5 144 c 128,-1,48
 421 128 421 128 410 126 c 0,49,50
 389 122 389 122 344.5 127 c 128,-1,51
 300 132 300 132 289 132 c 0,52,53
 193 132 193 132 0 124 c 1,54,-1
 -4 148 l 2,55,56
 -3 148 -3 148 10.5 148.5 c 128,-1,57
 24 149 24 149 28.5 149 c 128,-1,58
 33 149 33 149 44.5 150.5 c 128,-1,59
 56 152 56 152 62 154 c 128,-1,60
 68 156 68 156 76 159.5 c 128,-1,61
 84 163 84 163 89 168 c 0,62,63
 103 181 103 181 111 201.5 c 128,-1,64
 119 222 119 222 125 256 c 128,-1,65
 131 290 131 290 132 296 c 0,66,67
 141 330 141 330 155.5 398.5 c 128,-1,68
 170 467 170 467 183.5 521 c 128,-1,69
 197 575 197 575 215 620 c 1,70,-1
 207 620 l 1,71,72
 207 622 207 622 210 632 c 128,-1,73
 213 642 213 642 214.5 646.5 c 128,-1,74
 216 651 216 651 218 660.5 c 128,-1,75
 220 670 220 670 220 676 c 128,-1,76
 220 682 220 682 219 689.5 c 128,-1,77
 218 697 218 697 215 701 c 0,78,79
 209 711 209 711 193 715.5 c 128,-1,80
 177 720 177 720 163 720 c 128,-1,81
 149 720 149 720 127.5 719 c 128,-1,82
 106 718 106 718 102 718 c 1,4,5
EndSplineSet
EndChar

StartChar: F
Encoding: 70 70 41
Width: 469
Flags: W
LayerCount: 2
Fore
SplineSet
125 714 m 1,0,1
 128 725 128 725 136.5 731 c 128,-1,2
 145 737 145 737 157 738.5 c 128,-1,3
 169 740 169 740 179.5 740 c 128,-1,4
 190 740 190 740 205 739 c 128,-1,5
 220 738 220 738 227 738 c 2,6,-1
 539 738 l 1,7,-1
 523 652 l 1,8,-1
 500 652 l 1,9,10
 500 666 500 666 496.5 676.5 c 128,-1,11
 493 687 493 687 485 693.5 c 128,-1,12
 477 700 477 700 470.5 704 c 128,-1,13
 464 708 464 708 450 709 c 128,-1,14
 436 710 436 710 429 710.5 c 128,-1,15
 422 711 422 711 405 710.5 c 128,-1,16
 388 710 388 710 383 710 c 0,17,18
 380 710 380 710 370.5 710 c 128,-1,19
 361 710 361 710 357 710 c 128,-1,20
 353 710 353 710 344.5 709.5 c 128,-1,21
 336 709 336 709 331 707.5 c 128,-1,22
 326 706 326 706 320 703.5 c 128,-1,23
 314 701 314 701 309 697 c 0,24,25
 305 693 305 693 301 687.5 c 128,-1,26
 297 682 297 682 294.5 674.5 c 128,-1,27
 292 667 292 667 290.5 662 c 128,-1,28
 289 657 289 657 287 647.5 c 128,-1,29
 285 638 285 638 284 636 c 0,30,31
 262 559 262 559 246 484 c 1,32,-1
 375 489 l 1,33,-1
 434 527 l 1,34,35
 431 517 431 517 424.5 491 c 128,-1,36
 418 465 418 465 413 447 c 128,-1,37
 408 429 408 429 397 411.5 c 128,-1,38
 386 394 386 394 371 390 c 1,39,40
 382 432 382 432 365 444 c 128,-1,41
 348 456 348 456 301 456 c 0,42,43
 298 456 298 456 287 457 c 128,-1,44
 276 458 276 458 269.5 457.5 c 128,-1,45
 263 457 263 457 254.5 454.5 c 128,-1,46
 246 452 246 452 242 447 c 0,47,48
 236 438 236 438 231.5 423 c 128,-1,49
 227 408 227 408 224 389 c 128,-1,50
 221 370 221 370 219 362 c 0,51,52
 213 338 213 338 198 266 c 128,-1,53
 183 194 183 194 172 155 c 1,54,-1
 285 152 l 1,55,56
 282 142 282 142 277 136.5 c 128,-1,57
 272 131 272 131 263.5 129.5 c 128,-1,58
 255 128 255 128 249 127.5 c 128,-1,59
 243 127 243 127 231.5 127.5 c 128,-1,60
 220 128 220 128 215 128 c 2,61,-1
 8 128 l 1,62,63
 14 145 14 145 33.5 150.5 c 128,-1,64
 53 156 53 156 74.5 162 c 128,-1,65
 96 168 96 168 105 187 c 1,66,67
 115 205 115 205 121.5 228 c 128,-1,68
 128 251 128 251 134.5 283 c 128,-1,69
 141 315 141 315 144 327 c 0,70,71
 150 353 150 353 163.5 403 c 128,-1,72
 177 453 177 453 187 493 c 128,-1,73
 197 533 197 533 204 570 c 0,74,75
 207 585 207 585 211.5 615 c 128,-1,76
 216 645 216 645 219 659 c 0,77,78
 219 661 219 661 220.5 668 c 128,-1,79
 222 675 222 675 223 679 c 128,-1,80
 224 683 224 683 224 688.5 c 128,-1,81
 224 694 224 694 222 697 c 0,82,83
 219 703 219 703 210.5 707 c 128,-1,84
 202 711 202 711 188 712.5 c 128,-1,85
 174 714 174 714 165.5 714.5 c 128,-1,86
 157 715 157 715 141 714.5 c 128,-1,87
 125 714 125 714 125 714 c 1,0,1
EndSplineSet
EndChar

StartChar: G
Encoding: 71 71 42
Width: 615
Flags: W
LayerCount: 2
Fore
SplineSet
598 214 m 1,0,1
 595 206 595 206 591 199 c 128,-1,2
 587 192 587 192 579.5 185.5 c 128,-1,3
 572 179 572 179 567.5 175 c 128,-1,4
 563 171 563 171 551 165 c 128,-1,5
 539 159 539 159 536 157.5 c 128,-1,6
 533 156 533 156 519 150 c 128,-1,7
 505 144 505 144 504 143 c 0,8,9
 451 120 451 120 393 114 c 128,-1,10
 335 108 335 108 277 122.5 c 128,-1,11
 219 137 219 137 176 173 c 0,12,13
 126 214 126 214 104 279.5 c 128,-1,14
 82 345 82 345 88.5 412 c 128,-1,15
 95 479 95 479 122 543 c 128,-1,16
 149 607 149 607 193 650 c 1,17,18
 249 707 249 707 329.5 733.5 c 128,-1,19
 410 760 410 760 492 752 c 0,20,21
 624 740 624 740 663 697 c 1,22,23
 672 682 672 682 670.5 657 c 128,-1,24
 669 632 669 632 656.5 607 c 128,-1,25
 644 582 644 582 629 581 c 1,26,27
 628 635 628 635 597.5 670.5 c 128,-1,28
 567 706 567 706 522.5 718 c 128,-1,29
 478 730 478 730 427.5 724.5 c 128,-1,30
 377 719 377 719 336 697 c 0,31,32
 283 669 283 669 243 619 c 128,-1,33
 203 569 203 569 183 510.5 c 128,-1,34
 163 452 163 452 164 388 c 128,-1,35
 165 324 165 324 189 269 c 0,36,37
 210 223 210 223 262 184.5 c 128,-1,38
 314 146 314 146 372 136.5 c 128,-1,39
 430 127 430 127 479 163 c 0,40,41
 493 174 493 174 504.5 223.5 c 128,-1,42
 516 273 516 273 503 284 c 0,43,44
 498 287 498 287 490 288.5 c 128,-1,45
 482 290 482 290 475 289.5 c 128,-1,46
 468 289 468 289 456.5 287 c 128,-1,47
 445 285 445 285 439.5 284 c 128,-1,48
 434 283 434 283 422.5 280 c 128,-1,49
 411 277 411 277 410 277 c 1,50,51
 413 286 413 286 417 292 c 128,-1,52
 421 298 421 298 428 301 c 128,-1,53
 435 304 435 304 440 305 c 128,-1,54
 445 306 445 306 456.5 307.5 c 128,-1,55
 468 309 468 309 473 309 c 1,56,57
 487 312 487 312 544.5 321.5 c 128,-1,58
 602 331 602 331 633 335 c 1,59,60
 629 319 629 319 620 313 c 0,61,62
 617 310 617 310 610 306.5 c 128,-1,63
 603 303 603 303 598 299.5 c 128,-1,64
 593 296 593 296 590 291 c 0,65,66
 572 267 572 267 571 235 c 1,67,68
 569 204 569 204 598 214 c 1,0,1
EndSplineSet
EndChar

StartChar: H
Encoding: 72 72 43
Width: 688
Flags: W
LayerCount: 2
Fore
SplineSet
227 738 m 1,0,-1
 227 734 l 1,1,-1
 348 734 l 1,2,-1
 227 738 l 1,0,-1
133 718 m 1,3,4
 135 726 135 726 139 730.5 c 128,-1,5
 143 735 143 735 150 736.5 c 128,-1,6
 157 738 157 738 162.5 738.5 c 128,-1,7
 168 739 168 739 178 738.5 c 128,-1,8
 188 738 188 738 191 738 c 2,9,-1
 383 738 l 1,10,-1
 379 718 l 1,11,12
 324 718 324 718 305 701 c 0,13,14
 299 696 299 696 294.5 689.5 c 128,-1,15
 290 683 290 683 287 674 c 128,-1,16
 284 665 284 665 282.5 660 c 128,-1,17
 281 655 281 655 278.5 642.5 c 128,-1,18
 276 630 276 630 275 628 c 0,19,20
 269 602 269 602 257 548 c 128,-1,21
 245 494 245 494 238 468 c 1,22,23
 278 468 278 468 357.5 466 c 128,-1,24
 437 464 437 464 477 464 c 0,25,26
 481 464 481 464 503 462 c 128,-1,27
 525 460 525 460 540.5 461 c 128,-1,28
 556 462 556 462 565 468 c 0,29,30
 569 471 569 471 572.5 478 c 128,-1,31
 576 485 576 485 577 491 c 128,-1,32
 578 497 578 497 579.5 506.5 c 128,-1,33
 581 516 581 516 582 519 c 0,34,35
 594 566 594 566 609 652 c 0,36,37
 610 653 610 653 612 663.5 c 128,-1,38
 614 674 614 674 614.5 677.5 c 128,-1,39
 615 681 615 681 614 688.5 c 128,-1,40
 613 696 613 696 609 701 c 0,41,42
 605 708 605 708 598.5 712 c 128,-1,43
 592 716 592 716 583 717 c 128,-1,44
 574 718 574 718 567.5 718.5 c 128,-1,45
 561 719 561 719 549.5 718.5 c 128,-1,46
 538 718 538 718 535 718 c 1,47,48
 536 726 536 726 540.5 730.5 c 128,-1,49
 545 735 545 735 552 736.5 c 128,-1,50
 559 738 559 738 564.5 738.5 c 128,-1,51
 570 739 570 739 580 738.5 c 128,-1,52
 590 738 590 738 594 738 c 2,53,-1
 770 738 l 1,54,-1
 770 718 l 1,55,56
 746 718 746 718 728 710.5 c 128,-1,57
 710 703 710 703 700 693.5 c 128,-1,58
 690 684 690 684 682 663.5 c 128,-1,59
 674 643 674 643 670.5 630 c 128,-1,60
 667 617 667 617 662 589 c 0,61,62
 652 542 652 542 630.5 454.5 c 128,-1,63
 609 367 609 367 594 295.5 c 128,-1,64
 579 224 579 224 574 159 c 1,65,-1
 664 148 l 1,66,-1
 660 128 l 1,67,-1
 414 128 l 1,68,69
 417 142 417 142 435 148.5 c 128,-1,70
 453 155 453 155 473.5 163 c 128,-1,71
 494 171 494 171 502 187 c 0,72,73
 522 227 522 227 538 311.5 c 128,-1,74
 554 396 554 396 566 429 c 1,75,-1
 328 437 l 1,76,-1
 239 433 l 1,77,-1
 217 362 l 1,78,-1
 176 152 l 1,79,-1
 266 144 l 1,80,81
 257 129 257 129 234.5 127 c 128,-1,82
 212 125 212 125 195 130 c 1,83,84
 174 133 174 133 147.5 133 c 128,-1,85
 121 133 121 133 106 132 c 128,-1,86
 91 131 91 131 55.5 128 c 128,-1,87
 20 125 20 125 12 124 c 1,88,89
 17 142 17 142 36 147 c 128,-1,90
 55 152 55 152 75 158 c 128,-1,91
 95 164 95 164 104 183 c 0,92,93
 121 223 121 223 135.5 275.5 c 128,-1,94
 150 328 150 328 157.5 367 c 128,-1,95
 165 406 165 406 176.5 469.5 c 128,-1,96
 188 533 188 533 194 562 c 0,97,98
 196 571 196 571 202 592 c 128,-1,99
 208 613 208 613 212.5 628 c 128,-1,100
 217 643 217 643 219.5 664 c 128,-1,101
 222 685 222 685 216 694 c 1,102,103
 213 701 213 701 207 706 c 128,-1,104
 201 711 201 711 195 713.5 c 128,-1,105
 189 716 189 716 178.5 717 c 128,-1,106
 168 718 168 718 163 718 c 128,-1,107
 158 718 158 718 146 718 c 128,-1,108
 134 718 134 718 133 718 c 1,3,4
EndSplineSet
EndChar

StartChar: I
Encoding: 73 73 44
Width: 313
Flags: W
LayerCount: 2
Fore
SplineSet
141 714 m 1,0,1
 142 723 142 723 145.5 728.5 c 128,-1,2
 149 734 149 734 156.5 736 c 128,-1,3
 164 738 164 738 168.5 738.5 c 128,-1,4
 173 739 173 739 184.5 738.5 c 128,-1,5
 196 738 196 738 199 738 c 2,6,-1
 387 738 l 1,7,-1
 387 714 l 1,8,9
 385 714 385 714 376 714 c 128,-1,10
 367 714 367 714 364.5 714 c 128,-1,11
 362 714 362 714 353.5 713.5 c 128,-1,12
 345 713 345 713 341.5 712 c 128,-1,13
 338 711 338 711 331.5 709.5 c 128,-1,14
 325 708 325 708 321 705.5 c 128,-1,15
 317 703 317 703 312.5 699 c 128,-1,16
 308 695 308 695 305 690 c 0,17,18
 296 676 296 676 290.5 656.5 c 128,-1,19
 285 637 285 637 280 609.5 c 128,-1,20
 275 582 275 582 273 573 c 2,21,-1
 208 308 l 2,22,23
 207 303 207 303 202 285 c 128,-1,24
 197 267 197 267 194.5 255.5 c 128,-1,25
 192 244 192 244 189.5 227.5 c 128,-1,26
 187 211 187 211 187.5 198 c 128,-1,27
 188 185 188 185 193 175 c 0,28,29
 202 155 202 155 220.5 150 c 128,-1,30
 239 145 239 145 257.5 150 c 128,-1,31
 276 155 276 155 295 155.5 c 128,-1,32
 314 156 314 156 324 148 c 1,33,34
 303 136 303 136 278 131.5 c 128,-1,35
 253 127 253 127 238.5 126.5 c 128,-1,36
 224 126 224 126 190 128.5 c 128,-1,37
 156 131 156 131 145 132 c 0,38,39
 121 133 121 133 78.5 130.5 c 128,-1,40
 36 128 36 128 20 128 c 1,41,-1
 23 152 l 1,42,43
 25 152 25 152 34 151.5 c 128,-1,44
 43 151 43 151 46.5 151.5 c 128,-1,45
 50 152 50 152 58 152 c 128,-1,46
 66 152 66 152 70.5 153.5 c 128,-1,47
 75 155 75 155 81 156.5 c 128,-1,48
 87 158 87 158 92 161 c 128,-1,49
 97 164 97 164 101 168 c 0,50,51
 112 179 112 179 119 195.5 c 128,-1,52
 126 212 126 212 132 243 c 128,-1,53
 138 274 138 274 138 277 c 2,54,-1
 203 542 l 2,55,56
 205 551 205 551 210.5 569 c 128,-1,57
 216 587 216 587 220 602 c 128,-1,58
 224 617 224 617 227.5 634.5 c 128,-1,59
 231 652 231 652 230.5 667.5 c 128,-1,60
 230 683 230 683 225 694 c 0,61,62
 222 699 222 699 216 703 c 128,-1,63
 210 707 210 707 203.5 709 c 128,-1,64
 197 711 197 711 186.5 712.5 c 128,-1,65
 176 714 176 714 170 714 c 128,-1,66
 164 714 164 714 153 714 c 128,-1,67
 142 714 142 714 141 714 c 1,0,1
137 714 m 1,68,-1
 141 710 l 1,69,-1
 137 714 l 1,68,-1
EndSplineSet
EndChar

StartChar: J
Encoding: 74 74 45
Width: 271
Flags: W
LayerCount: 2
Fore
SplineSet
117 738 m 1,0,-1
 355 738 l 1,1,-1
 352 718 l 1,2,3
 335 717 335 717 328.5 716 c 128,-1,4
 322 715 322 715 310 710.5 c 128,-1,5
 298 706 298 706 291 698 c 0,6,7
 280 686 280 686 274.5 670.5 c 128,-1,8
 269 655 269 655 264 628 c 128,-1,9
 259 601 259 601 258 597 c 2,10,-1
 205 366 l 2,11,12
 204 358 204 358 197.5 337.5 c 128,-1,13
 191 317 191 317 187 303 c 128,-1,14
 183 289 183 289 180.5 269 c 128,-1,15
 178 249 178 249 184 241 c 1,16,17
 177 218 177 218 163.5 158.5 c 128,-1,18
 150 99 150 99 140 66 c 128,-1,19
 130 33 130 33 107.5 -10.5 c 128,-1,20
 85 -54 85 -54 55 -83 c 1,21,22
 30 -105 30 -105 -6.5 -125.5 c 128,-1,23
 -43 -146 -43 -146 -66 -139 c 0,24,25
 -88 -132 -88 -132 -109 -87 c 1,26,27
 -97 -86 -97 -86 -69 -99 c 128,-1,28
 -41 -112 -41 -112 -23 -104 c 0,29,30
 -11 -99 -11 -99 0.5 -89.5 c 128,-1,31
 12 -80 12 -80 20 -71.5 c 128,-1,32
 28 -63 28 -63 36 -47 c 128,-1,33
 44 -31 44 -31 48.5 -22 c 128,-1,34
 53 -13 53 -13 59 7.5 c 128,-1,35
 65 28 65 28 67 35 c 128,-1,36
 69 42 69 42 74.5 64 c 128,-1,37
 80 86 80 86 81 89 c 0,38,39
 105 188 105 188 162 445 c 0,40,41
 166 460 166 460 173 498.5 c 128,-1,42
 180 537 180 537 187 564.5 c 128,-1,43
 194 592 194 592 203 616 c 1,44,45
 196 627 196 627 197 637.5 c 128,-1,46
 198 648 198 648 201 665 c 128,-1,47
 204 682 204 682 201 690 c 1,48,49
 199 699 199 699 192.5 704.5 c 128,-1,50
 186 710 186 710 174.5 712 c 128,-1,51
 163 714 163 714 155.5 714.5 c 128,-1,52
 148 715 148 715 133.5 714.5 c 128,-1,53
 119 714 119 714 117 714 c 1,54,-1
 117 738 l 1,0,-1
EndSplineSet
EndChar

StartChar: K
Encoding: 75 75 46
Width: 635
Flags: W
LayerCount: 2
Fore
SplineSet
504 741 m 1,0,-1
 504 738 l 1,1,-1
 641 738 l 1,2,-1
 504 741 l 1,0,-1
70 128 m 1,3,-1
 70 124 l 1,4,-1
 172 124 l 1,5,-1
 70 128 l 1,3,-1
523 128 m 1,6,-1
 523 124 l 1,7,-1
 621 124 l 1,8,-1
 523 128 l 1,6,-1
453 741 m 1,9,-1
 641 738 l 1,10,-1
 641 722 l 1,11,12
 599 714 599 714 561.5 691 c 128,-1,13
 524 668 524 668 493.5 638 c 128,-1,14
 463 608 463 608 433.5 577.5 c 128,-1,15
 404 547 404 547 367.5 518.5 c 128,-1,16
 331 490 331 490 293 476 c 1,17,18
 350 378 350 378 464 249 c 0,19,20
 486 224 486 224 493.5 215.5 c 128,-1,21
 501 207 501 207 520.5 188.5 c 128,-1,22
 540 170 540 170 553.5 163.5 c 128,-1,23
 567 157 567 157 588.5 150.5 c 128,-1,24
 610 144 610 144 633 144 c 1,25,-1
 633 124 l 1,26,-1
 539 128 l 1,27,-1
 488 128 l 1,28,-1
 417 202 l 1,29,-1
 304 335 l 1,30,-1
 234 429 l 1,31,32
 233 391 233 391 215 322 c 128,-1,33
 197 253 197 253 193 226 c 0,34,35
 179 127 179 127 266 155 c 1,36,37
 265 144 265 144 260 137.5 c 128,-1,38
 255 131 255 131 244.5 128 c 128,-1,39
 234 125 234 125 227 124.5 c 128,-1,40
 220 124 220 124 207 124 c 2,41,-1
 4 124 l 1,42,-1
 8 144 l 1,43,44
 31 144 31 144 42 144.5 c 128,-1,45
 53 145 53 145 71.5 150.5 c 128,-1,46
 90 156 90 156 99 167 c 256,47,48
 108 178 108 178 114.5 196 c 128,-1,49
 121 214 121 214 124 228 c 128,-1,50
 127 242 127 242 131.5 265 c 128,-1,51
 136 288 136 288 138 296 c 2,52,-1
 196 558 l 2,53,54
 198 567 198 567 207 596 c 128,-1,55
 216 625 216 625 220.5 647.5 c 128,-1,56
 225 670 225 670 221 687 c 0,57,58
 214 715 214 715 145 718 c 1,59,-1
 145 738 l 1,60,-1
 348 738 l 1,61,-1
 348 722 l 1,62,63
 325 717 325 717 308 697 c 128,-1,64
 291 677 291 677 281 645 c 128,-1,65
 271 613 271 613 265 585.5 c 128,-1,66
 259 558 259 558 254 521 c 128,-1,67
 249 484 249 484 246 472 c 1,68,69
 260 482 260 482 298 509 c 128,-1,70
 336 536 336 536 355.5 550 c 128,-1,71
 375 564 375 564 403 588.5 c 128,-1,72
 431 613 431 613 452 636 c 0,73,74
 454 638 454 638 457 641 c 0,75,76
 465 650 465 650 469.5 655 c 128,-1,77
 474 660 474 660 481 668.5 c 128,-1,78
 488 677 488 677 490.5 682 c 128,-1,79
 493 687 493 687 496 694 c 128,-1,80
 499 701 499 701 497 705 c 128,-1,81
 495 709 495 709 490.5 713.5 c 128,-1,82
 486 718 486 718 476.5 720 c 128,-1,83
 467 722 467 722 453 722 c 1,84,-1
 453 741 l 1,9,-1
EndSplineSet
EndChar

StartChar: L
Encoding: 76 76 47
Width: 458
Flags: W
LayerCount: 2
Fore
SplineSet
74 128 m 1,0,-1
 74 124 l 1,1,-1
 234 124 l 1,2,3
 216 132 216 132 188 133 c 128,-1,4
 160 134 160 134 123.5 131 c 128,-1,5
 87 128 87 128 74 128 c 1,0,-1
141 738 m 1,6,-1
 387 738 l 1,7,-1
 383 718 l 1,8,9
 318 717 318 717 303 701 c 0,10,11
 292 689 292 689 286 670.5 c 128,-1,12
 280 652 280 652 274.5 620.5 c 128,-1,13
 269 589 269 589 268 585 c 0,14,15
 262 557 262 557 246.5 498 c 128,-1,16
 231 439 231 439 221 392.5 c 128,-1,17
 211 346 211 346 206 304 c 0,18,19
 205 294 205 294 199.5 271 c 128,-1,20
 194 248 194 248 189.5 229.5 c 128,-1,21
 185 211 185 211 186 191 c 128,-1,22
 187 171 187 171 197 161 c 0,23,24
 200 158 200 158 204.5 155.5 c 128,-1,25
 209 153 209 153 212.5 151.5 c 128,-1,26
 216 150 216 150 222 148.5 c 128,-1,27
 228 147 228 147 231 147 c 128,-1,28
 234 147 234 147 241.5 146 c 128,-1,29
 249 145 249 145 250 145 c 0,30,31
 350 133 350 133 402 170 c 0,32,33
 410 176 410 176 424.5 191.5 c 128,-1,34
 439 207 439 207 452 215.5 c 128,-1,35
 465 224 465 224 480 222 c 1,36,-1
 424 127 l 1,37,-1
 305 124 l 1,38,-1
 8 124 l 1,39,40
 11 140 11 140 31 144.5 c 128,-1,41
 51 149 51 149 74 153.5 c 128,-1,42
 97 158 97 158 105 175 c 0,43,44
 114 192 114 192 119.5 213 c 128,-1,45
 125 234 125 234 130.5 263.5 c 128,-1,46
 136 293 136 293 138 304 c 2,47,-1
 195 562 l 2,48,49
 197 569 197 569 201.5 584.5 c 128,-1,50
 206 600 206 600 209.5 613.5 c 128,-1,51
 213 627 213 627 216 642.5 c 128,-1,52
 219 658 219 658 218.5 671.5 c 128,-1,53
 218 685 218 685 214 694 c 0,54,55
 210 702 210 702 199 707 c 128,-1,56
 188 712 188 712 180 713.5 c 128,-1,57
 172 715 172 715 155 716.5 c 128,-1,58
 138 718 138 718 137 718 c 2,59,-1
 141 738 l 1,6,-1
EndSplineSet
EndChar

StartChar: M
Encoding: 77 77 48
Width: 698
Flags: W
LayerCount: 2
Fore
SplineSet
102 738 m 1,0,1
 180 738 180 738 227 731 c 0,2,3
 230 731 230 731 239 731 c 128,-1,4
 248 731 248 731 255.5 730 c 128,-1,5
 263 729 263 729 267 726 c 0,6,7
 277 718 277 718 283 696.5 c 128,-1,8
 289 675 289 675 293 644 c 128,-1,9
 297 613 297 613 298 609 c 0,10,11
 305 574 305 574 322.5 504 c 128,-1,12
 340 434 340 434 351.5 378.5 c 128,-1,13
 363 323 363 323 367 273 c 1,14,15
 381 286 381 286 392 304.5 c 128,-1,16
 403 323 403 323 417 353 c 128,-1,17
 431 383 431 383 435 390 c 2,18,-1
 550 609 l 2,19,20
 553 615 553 615 567 647.5 c 128,-1,21
 581 680 581 680 593.5 702 c 128,-1,22
 606 724 606 724 620 733 c 1,23,24
 632 742 632 742 657.5 743 c 128,-1,25
 683 744 683 744 716.5 741 c 128,-1,26
 750 738 750 738 758 738 c 1,27,-1
 754 718 l 1,28,29
 691 715 691 715 675 694 c 0,30,31
 667 684 667 684 662.5 668.5 c 128,-1,32
 658 653 658 653 656.5 640.5 c 128,-1,33
 655 628 655 628 653.5 608.5 c 128,-1,34
 652 589 652 589 651 581 c 0,35,36
 648 552 648 552 641.5 500 c 128,-1,37
 635 448 635 448 630 405 c 128,-1,38
 625 362 625 362 619 323 c 0,39,40
 618 317 618 317 609 214 c 0,41,42
 608 211 608 211 607 203 c 128,-1,43
 606 195 606 195 605.5 190 c 128,-1,44
 605 185 605 185 606 178.5 c 128,-1,45
 607 172 607 172 609 167 c 0,46,47
 625 139 625 139 699 159 c 1,48,49
 699 145 699 145 690.5 138 c 128,-1,50
 682 131 682 131 673.5 130 c 128,-1,51
 665 129 665 129 648 128 c 0,52,53
 483 124 483 124 469 124 c 1,54,-1
 469 148 l 1,55,56
 487 149 487 149 500 156.5 c 128,-1,57
 513 164 513 164 520 172.5 c 128,-1,58
 527 181 527 181 532.5 197 c 128,-1,59
 538 213 538 213 540 223.5 c 128,-1,60
 542 234 542 234 544 254 c 0,61,62
 545 261 545 261 546 265 c 0,63,64
 556 335 556 335 570 463 c 128,-1,65
 584 591 584 591 590 636 c 1,66,-1
 586 636 l 1,67,68
 580 616 580 616 569 593.5 c 128,-1,69
 558 571 558 571 542.5 544 c 128,-1,70
 527 517 527 517 520 503 c 0,71,72
 509 480 509 480 483 426 c 128,-1,73
 457 372 457 372 436.5 332.5 c 128,-1,74
 416 293 416 293 396 257 c 0,75,76
 391 249 391 249 380.5 219.5 c 128,-1,77
 370 190 370 190 358 169 c 128,-1,78
 346 148 346 148 332 144 c 1,79,-1
 227 605 l 1,80,-1
 223 605 l 1,81,82
 218 545 218 545 191.5 436 c 128,-1,83
 165 327 165 327 159 280 c 0,84,85
 158 273 158 273 153 255 c 128,-1,86
 148 237 148 237 145 223 c 128,-1,87
 142 209 142 209 140.5 192 c 128,-1,88
 139 175 139 175 145 168 c 1,89,90
 149 160 149 160 161 156 c 128,-1,91
 173 152 173 152 193 150 c 128,-1,92
 213 148 213 148 215 148 c 1,93,-1
 203 124 l 1,94,-1
 12 128 l 1,95,-1
 12 152 l 1,96,97
 15 152 15 152 29.5 151.5 c 128,-1,98
 44 151 44 151 50.5 151 c 128,-1,99
 57 151 57 151 67.5 154 c 128,-1,100
 78 157 78 157 85 162 c 0,101,102
 94 169 94 169 101 183 c 128,-1,103
 108 197 108 197 111 207 c 128,-1,104
 114 217 114 217 118.5 237 c 128,-1,105
 123 257 123 257 124 261 c 0,106,107
 135 301 135 301 145 344.5 c 128,-1,108
 155 388 155 388 167.5 450 c 128,-1,109
 180 512 180 512 184 534 c 0,110,111
 186 543 186 543 191 561 c 128,-1,112
 196 579 196 579 200 594.5 c 128,-1,113
 204 610 204 610 207 627.5 c 128,-1,114
 210 645 210 645 209 660.5 c 128,-1,115
 208 676 208 676 202 687 c 0,116,117
 195 701 195 701 174.5 708.5 c 128,-1,118
 154 716 154 716 139.5 717 c 128,-1,119
 125 718 125 718 102 718 c 1,120,-1
 102 738 l 1,0,1
EndSplineSet
EndChar

StartChar: N
Encoding: 78 78 49
Width: 625
Flags: W
LayerCount: 2
Fore
SplineSet
602 738 m 1,0,-1
 602 734 l 1,1,-1
 656 734 l 1,2,-1
 602 738 l 1,0,-1
86 738 m 1,3,-1
 195 734 l 1,4,-1
 244 730 l 1,5,-1
 269 687 l 1,6,-1
 321 585 l 1,7,-1
 504 238 l 1,8,9
 507 303 507 303 540.5 422.5 c 128,-1,10
 574 542 574 542 581 585 c 0,11,12
 582 594 582 594 590 621 c 128,-1,13
 598 648 598 648 600.5 662.5 c 128,-1,14
 603 677 603 677 599 698 c 1,15,16
 597 703 597 703 593.5 706.5 c 128,-1,17
 590 710 590 710 584.5 712 c 128,-1,18
 579 714 579 714 575 715.5 c 128,-1,19
 571 717 571 717 563 717.5 c 128,-1,20
 555 718 555 718 552 718 c 128,-1,21
 549 718 549 718 540.5 718 c 128,-1,22
 532 718 532 718 531 718 c 2,23,-1
 535 738 l 1,24,-1
 719 738 l 1,25,-1
 719 718 l 1,26,27
 702 717 702 717 688.5 713 c 128,-1,28
 675 709 675 709 665.5 704.5 c 128,-1,29
 656 700 656 700 647.5 689 c 128,-1,30
 639 678 639 678 634.5 672.5 c 128,-1,31
 630 667 630 667 624.5 650 c 128,-1,32
 619 633 619 633 617 627 c 128,-1,33
 615 621 615 621 610 600 c 128,-1,34
 605 579 605 579 604 573 c 0,35,36
 599 555 599 555 582 487 c 128,-1,37
 565 419 565 419 557.5 388.5 c 128,-1,38
 550 358 550 358 537.5 303.5 c 128,-1,39
 525 249 525 249 517 204.5 c 128,-1,40
 509 160 509 160 504 116 c 1,41,42
 491 118 491 118 478.5 133.5 c 128,-1,43
 466 149 466 149 458.5 164.5 c 128,-1,44
 451 180 451 180 441.5 203.5 c 128,-1,45
 432 227 432 227 429 234 c 2,46,-1
 298 484 l 2,47,48
 292 495 292 495 276.5 521.5 c 128,-1,49
 261 548 261 548 250.5 568.5 c 128,-1,50
 240 589 240 589 234 609 c 1,51,-1
 230 609 l 1,52,53
 227 563 227 563 217 515 c 128,-1,54
 207 467 207 467 187.5 392.5 c 128,-1,55
 168 318 168 318 164 300 c 0,56,57
 162 293 162 293 157.5 277.5 c 128,-1,58
 153 262 153 262 149.5 250 c 128,-1,59
 146 238 146 238 142.5 221 c 128,-1,60
 139 204 139 204 139.5 193.5 c 128,-1,61
 140 183 140 183 143 171 c 0,62,63
 145 165 145 165 149 161 c 128,-1,64
 153 157 153 157 159 154.5 c 128,-1,65
 165 152 165 152 169.5 150.5 c 128,-1,66
 174 149 174 149 182.5 148.5 c 128,-1,67
 191 148 191 148 195 147.5 c 128,-1,68
 199 147 199 147 208 147.5 c 128,-1,69
 217 148 217 148 219 148 c 1,70,71
 216 140 216 140 211.5 135.5 c 128,-1,72
 207 131 207 131 199.5 129.5 c 128,-1,73
 192 128 192 128 188 127.5 c 128,-1,74
 184 127 184 127 173.5 127.5 c 128,-1,75
 163 128 163 128 160 128 c 0,76,77
 133 128 133 128 80 126 c 128,-1,78
 27 124 27 124 0 124 c 1,79,-1
 4 144 l 1,80,81
 66 144 66 144 92 175 c 0,82,83
 102 187 102 187 108 202.5 c 128,-1,84
 114 218 114 218 119 241.5 c 128,-1,85
 124 265 124 265 127 273 c 0,86,87
 152 364 152 364 184 523 c 0,88,89
 186 531 186 531 192.5 554.5 c 128,-1,90
 199 578 199 578 202.5 594 c 128,-1,91
 206 610 206 610 208.5 633 c 128,-1,92
 211 656 211 656 205 664 c 1,93,94
 181 718 181 718 86 718 c 1,95,-1
 86 738 l 1,3,-1
EndSplineSet
EndChar

StartChar: O
Encoding: 79 79 50
Width: 667
Flags: W
LayerCount: 2
Fore
SplineSet
406 724 m 0,0,1
 344 715 344 715 294 676.5 c 128,-1,2
 244 638 244 638 214.5 583.5 c 128,-1,3
 185 529 185 529 172 466 c 128,-1,4
 159 403 159 403 165 343 c 0,5,6
 170 287 170 287 195.5 239.5 c 128,-1,7
 221 192 221 192 267.5 163 c 128,-1,8
 314 134 314 134 371 141 c 0,9,10
 433 149 433 149 483.5 189 c 128,-1,11
 534 229 534 229 563 285.5 c 128,-1,12
 592 342 592 342 605 406.5 c 128,-1,13
 618 471 618 471 613 530 c 1,14,15
 607 587 607 587 582 633 c 128,-1,16
 557 679 557 679 510.5 705.5 c 128,-1,17
 464 732 464 732 406 724 c 0,0,1
402 748 m 0,18,19
 465 757 465 757 520.5 735.5 c 128,-1,20
 576 714 576 714 612.5 672 c 128,-1,21
 649 630 649 630 668 573.5 c 128,-1,22
 687 517 687 517 683 456 c 0,23,24
 675 331 675 331 588.5 233.5 c 128,-1,25
 502 136 502 136 379 121 c 0,26,27
 309 113 309 113 249.5 137.5 c 128,-1,28
 190 162 190 162 153 209 c 128,-1,29
 116 256 116 256 100 319 c 128,-1,30
 84 382 84 382 95 448 c 0,31,32
 115 562 115 562 202 646.5 c 128,-1,33
 289 731 289 731 402 748 c 0,18,19
EndSplineSet
EndChar

StartChar: P
Encoding: 80 80 51
Width: 500
Flags: W
LayerCount: 2
Fore
SplineSet
121 722 m 1,0,1
 123 732 123 732 134 737.5 c 128,-1,2
 145 743 145 743 161.5 744 c 128,-1,3
 178 745 178 745 193.5 744.5 c 128,-1,4
 209 744 209 744 226.5 742.5 c 128,-1,5
 244 741 244 741 250 741 c 0,6,7
 284 741 284 741 309.5 740 c 128,-1,8
 335 739 335 739 369.5 734.5 c 128,-1,9
 404 730 404 730 429.5 720 c 128,-1,10
 455 710 455 710 479.5 694 c 128,-1,11
 504 678 504 678 519 652.5 c 128,-1,12
 534 627 534 627 538 593 c 0,13,14
 547 525 547 525 499.5 472.5 c 128,-1,15
 452 420 452 420 383 408 c 0,16,17
 366 406 366 406 339 405 c 128,-1,18
 312 404 312 404 289 414 c 128,-1,19
 266 424 266 424 270 445 c 1,20,21
 271 444 271 444 280.5 442 c 128,-1,22
 290 440 290 440 292 439.5 c 128,-1,23
 294 439 294 439 302 437.5 c 128,-1,24
 310 436 310 436 313 435.5 c 128,-1,25
 316 435 316 435 323 434.5 c 128,-1,26
 330 434 330 434 334 434 c 128,-1,27
 338 434 338 434 344 434.5 c 128,-1,28
 350 435 350 435 355.5 436 c 128,-1,29
 361 437 361 437 367 439 c 0,30,31
 401 449 401 449 426 474.5 c 128,-1,32
 451 500 451 500 461 531 c 128,-1,33
 471 562 471 562 466 596.5 c 128,-1,34
 461 631 461 631 439 659 c 0,35,36
 393 717 393 717 301 718 c 1,37,-1
 251 511 l 1,38,-1
 176 159 l 1,39,40
 213 153 213 153 244.5 153 c 128,-1,41
 276 153 276 153 312 163 c 1,42,43
 310 127 310 127 250 124 c 0,44,45
 208 122 208 122 128.5 125 c 128,-1,46
 49 128 49 128 23 128 c 1,47,-1
 23 148 l 1,48,49
 78 150 78 150 95 172 c 0,50,51
 104 184 104 184 111.5 203.5 c 128,-1,52
 119 223 119 223 122.5 238 c 128,-1,53
 126 253 126 253 130.5 278.5 c 128,-1,54
 135 304 135 304 137 312 c 0,55,56
 142 337 142 337 166 429.5 c 128,-1,57
 190 522 190 522 197 573 c 0,58,59
 199 583 199 583 204.5 603 c 128,-1,60
 210 623 210 623 213.5 638.5 c 128,-1,61
 217 654 217 654 219 673.5 c 128,-1,62
 221 693 221 693 214 702 c 1,63,64
 210 710 210 710 202 714.5 c 128,-1,65
 194 719 194 719 182 720.5 c 128,-1,66
 170 722 170 722 161.5 722.5 c 128,-1,67
 153 723 153 723 139 722.5 c 128,-1,68
 125 722 125 722 121 722 c 1,0,1
EndSplineSet
EndChar

StartChar: Q
Encoding: 81 81 52
Width: 667
Flags: W
LayerCount: 2
Fore
SplineSet
359 136 m 1,0,1
 351 119 351 119 334.5 117 c 128,-1,2
 318 115 318 115 301 120 c 1,3,4
 219 132 219 132 164 187 c 0,5,6
 125 226 125 226 106.5 282.5 c 128,-1,7
 88 339 88 339 90.5 396 c 128,-1,8
 93 453 93 453 112 507 c 0,9,10
 131 560 131 560 171.5 609.5 c 128,-1,11
 212 659 212 659 265.5 693.5 c 128,-1,12
 319 728 319 728 376.5 744 c 128,-1,13
 434 760 434 760 494 746.5 c 128,-1,14
 554 733 554 733 602 687 c 1,15,16
 631 657 631 657 649 624 c 1,17,18
 673 577 673 577 680 527 c 0,19,20
 689 466 689 466 675 398 c 0,21,22
 658 319 658 319 601 241 c 0,23,24
 578 211 578 211 549 182 c 128,-1,25
 520 153 520 153 495.5 133 c 128,-1,26
 471 113 471 113 432.5 88.5 c 128,-1,27
 394 64 394 64 371.5 51 c 128,-1,28
 349 38 349 38 303.5 12.5 c 128,-1,29
 258 -13 258 -13 238 -24 c 1,30,31
 260 -27 260 -27 299.5 -40.5 c 128,-1,32
 339 -54 339 -54 355 -58 c 0,33,34
 474 -85 474 -85 590 -62 c 0,35,36
 622 -55 622 -55 674 -30 c 128,-1,37
 726 -5 726 -5 738 -1 c 1,38,-1
 746 -16 l 1,39,40
 730 -25 730 -25 688 -50.5 c 128,-1,41
 646 -76 646 -76 621 -86 c 0,42,43
 554 -113 554 -113 486.5 -115.5 c 128,-1,44
 419 -118 419 -118 358 -100.5 c 128,-1,45
 297 -83 297 -83 230 -47 c 0,46,47
 222 -43 222 -43 168 -54 c 0,48,49
 111 -65 111 -65 109 -44 c 0,50,51
 108 -36 108 -36 113 -24 c 0,52,53
 120 -5 120 -5 136.5 -2 c 128,-1,54
 153 1 153 1 177.5 -4 c 128,-1,55
 202 -9 202 -9 211 -9 c 1,56,57
 221 -7 221 -7 232.5 -3.5 c 128,-1,58
 244 0 244 0 258.5 8 c 128,-1,59
 273 16 273 16 280.5 20.5 c 128,-1,60
 288 25 288 25 305 36.5 c 128,-1,61
 322 48 322 48 324 49 c 0,62,63
 447 127 447 127 520 227 c 128,-1,64
 593 327 593 327 611 460 c 0,65,66
 618 510 618 510 608 560 c 128,-1,67
 598 610 598 610 567 652.5 c 128,-1,68
 536 695 536 695 488 712 c 1,69,70
 423 733 423 733 369 717.5 c 128,-1,71
 315 702 315 702 273.5 658 c 128,-1,72
 232 614 232 614 205.5 556.5 c 128,-1,73
 179 499 179 499 168 437 c 128,-1,74
 157 375 157 375 164 323 c 0,75,76
 176 243 176 243 228.5 189.5 c 128,-1,77
 281 136 281 136 359 136 c 1,0,1
EndSplineSet
EndChar

StartChar: R
Encoding: 82 82 53
Width: 531
Flags: W
LayerCount: 2
Fore
SplineSet
238 448 m 1,0,1
 278 448 278 448 313.5 461 c 128,-1,2
 349 474 349 474 373.5 498.5 c 128,-1,3
 398 523 398 523 407.5 557.5 c 128,-1,4
 417 592 417 592 406 636 c 1,5,6
 398 663 398 663 361 692.5 c 128,-1,7
 324 722 324 722 299 706 c 0,8,9
 293 702 293 702 289.5 690 c 128,-1,10
 286 678 286 678 283.5 660 c 128,-1,11
 281 642 281 642 280 640 c 0,12,13
 277 622 277 622 261.5 554 c 128,-1,14
 246 486 246 486 238 448 c 1,0,1
129 718 m 1,15,16
 131 728 131 728 141 733.5 c 128,-1,17
 151 739 151 739 166 740 c 128,-1,18
 181 741 181 741 194.5 740.5 c 128,-1,19
 208 740 208 740 224 738.5 c 128,-1,20
 240 737 240 737 246 737 c 0,21,22
 372 737 372 737 430 692 c 0,23,24
 466 664 466 664 476.5 621.5 c 128,-1,25
 487 579 487 579 469.5 538.5 c 128,-1,26
 452 498 452 498 414 474 c 128,-1,27
 376 450 376 450 312 437 c 1,28,29
 359 329 359 329 457 179 c 0,30,31
 464 169 464 169 494.5 147.5 c 128,-1,32
 525 126 525 126 527 112 c 1,33,34
 436 112 436 112 402 136 c 0,35,36
 393 142 393 142 385 153.5 c 128,-1,37
 377 165 377 165 372.5 174.5 c 128,-1,38
 368 184 368 184 361 199.5 c 128,-1,39
 354 215 354 215 351 222 c 0,40,41
 345 234 345 234 300 310.5 c 128,-1,42
 255 387 255 387 242 429 c 1,43,-1
 234 429 l 1,44,45
 224 390 224 390 208.5 316.5 c 128,-1,46
 193 243 193 243 190 230 c 0,47,48
 189 227 189 227 185.5 214.5 c 128,-1,49
 182 202 182 202 180.5 193.5 c 128,-1,50
 179 185 179 185 179 175 c 128,-1,51
 179 165 179 165 183 159 c 0,52,53
 188 153 188 153 200 149.5 c 128,-1,54
 212 146 212 146 221.5 146 c 128,-1,55
 231 146 231 146 246.5 147 c 128,-1,56
 262 148 262 148 266 148 c 1,57,-1
 266 128 l 1,58,-1
 8 128 l 1,59,-1
 12 148 l 1,60,61
 74 148 74 148 93 167 c 0,62,63
 102 177 102 177 109 194 c 128,-1,64
 116 211 116 211 119 224 c 128,-1,65
 122 237 122 237 126 258.5 c 128,-1,66
 130 280 130 280 132 288 c 2,67,-1
 197 550 l 2,68,69
 202 570 202 570 208.5 609 c 128,-1,70
 215 648 215 648 217 659 c 0,71,72
 218 661 218 661 219.5 667.5 c 128,-1,73
 221 674 221 674 221.5 677.5 c 128,-1,74
 222 681 222 681 222.5 686.5 c 128,-1,75
 223 692 223 692 222 696.5 c 128,-1,76
 221 701 221 701 219 705 c 1,77,78
 215 709 215 709 207 712.5 c 128,-1,79
 199 716 199 716 186.5 717 c 128,-1,80
 174 718 174 718 166 718.5 c 128,-1,81
 158 719 158 719 144 718.5 c 128,-1,82
 130 718 130 718 129 718 c 1,15,16
EndSplineSet
EndChar

StartChar: S
Encoding: 83 83 54
Width: 375
Flags: W
LayerCount: 2
Fore
SplineSet
395 616 m 1,0,1
 379 695 379 695 309 720 c 0,2,3
 267 734 267 734 230 707 c 128,-1,4
 193 680 193 680 188 636 c 0,5,6
 185 604 185 604 195 572.5 c 128,-1,7
 205 541 205 541 223.5 516.5 c 128,-1,8
 242 492 242 492 264 465 c 128,-1,9
 286 438 286 438 306.5 414.5 c 128,-1,10
 327 391 327 391 341.5 361.5 c 128,-1,11
 356 332 356 332 359 302.5 c 128,-1,12
 362 273 362 273 349 234 c 0,13,14
 334 192 334 192 297.5 164 c 128,-1,15
 261 136 261 136 219.5 124 c 128,-1,16
 178 112 178 112 133 112 c 0,17,18
 51 112 51 112 38 148 c 0,19,20
 33 161 33 161 38.5 180.5 c 128,-1,21
 44 200 44 200 59 199 c 0,22,23
 74 199 74 199 100 173.5 c 128,-1,24
 126 148 126 148 137 144 c 0,25,26
 186 126 186 126 237 164 c 128,-1,27
 288 202 288 202 296 253 c 0,28,29
 300 284 300 284 290.5 315 c 128,-1,30
 281 346 281 346 262.5 370 c 128,-1,31
 244 394 244 394 222 420.5 c 128,-1,32
 200 447 200 447 179.5 470 c 128,-1,33
 159 493 159 493 144.5 522.5 c 128,-1,34
 130 552 130 552 127.5 581 c 128,-1,35
 125 610 125 610 139 648 c 0,36,37
 151 679 151 679 187.5 706.5 c 128,-1,38
 224 734 224 734 266.5 746.5 c 128,-1,39
 309 759 309 759 351.5 749 c 128,-1,40
 394 739 394 739 415 702 c 1,41,42
 420 686 420 686 419.5 675.5 c 128,-1,43
 419 665 419 665 415 644 c 128,-1,44
 411 623 411 623 410 616 c 1,45,-1
 395 616 l 1,0,1
EndSplineSet
EndChar

StartChar: T
Encoding: 84 84 55
Width: 531
Flags: W
LayerCount: 2
Fore
SplineSet
109 659 m 1,0,1
 110 661 110 661 111 670.5 c 128,-1,2
 112 680 112 680 112.5 685.5 c 128,-1,3
 113 691 113 691 115 700.5 c 128,-1,4
 117 710 117 710 119 716.5 c 128,-1,5
 121 723 121 723 124 729 c 128,-1,6
 127 735 127 735 131 737 c 0,7,8
 142 746 142 746 167 747 c 128,-1,9
 192 748 192 748 225.5 744.5 c 128,-1,10
 259 741 259 741 266 741 c 2,11,-1
 637 741 l 1,12,13
 636 737 636 737 634 723.5 c 128,-1,14
 632 710 632 710 630 701.5 c 128,-1,15
 628 693 628 693 624 682.5 c 128,-1,16
 620 672 620 672 613.5 666 c 128,-1,17
 607 660 607 660 598 659 c 1,18,19
 597 682 597 682 584 696 c 128,-1,20
 571 710 571 710 547 713.5 c 128,-1,21
 523 717 523 717 503 717.5 c 128,-1,22
 483 718 483 718 453 716 c 128,-1,23
 423 714 423 714 414 714 c 1,24,25
 408 641 408 641 370.5 501.5 c 128,-1,26
 333 362 333 362 327 335 c 0,27,28
 326 327 326 327 316 290 c 128,-1,29
 306 253 306 253 302.5 228 c 128,-1,30
 299 203 299 203 303 183 c 0,31,32
 308 157 308 157 341 152 c 128,-1,33
 374 147 374 147 406 154 c 128,-1,34
 438 161 438 161 457 171 c 1,35,36
 462 155 462 155 449 144 c 128,-1,37
 436 133 436 133 419.5 129 c 128,-1,38
 403 125 403 125 387 124 c 0,39,40
 345 122 345 122 297 122 c 128,-1,41
 249 122 249 122 191 123 c 128,-1,42
 133 124 133 124 102 124 c 1,43,44
 103 136 103 136 109 141.5 c 128,-1,45
 115 147 115 147 123 147.5 c 128,-1,46
 131 148 131 148 141 148 c 128,-1,47
 151 148 151 148 160 149 c 0,48,49
 204 155 204 155 221 195 c 0,50,51
 232 221 232 221 240.5 252.5 c 128,-1,52
 249 284 249 284 257.5 326 c 128,-1,53
 266 368 266 368 271 386 c 0,54,55
 274 399 274 399 290.5 463 c 128,-1,56
 307 527 307 527 313 553 c 128,-1,57
 319 579 319 579 328 627 c 128,-1,58
 337 675 337 675 340 714 c 1,59,-1
 184 711 l 1,60,-1
 109 659 l 1,0,1
EndSplineSet
EndChar

StartChar: U
Encoding: 85 85 56
Width: 646
Flags: W
LayerCount: 2
Fore
SplineSet
141 738 m 1,0,-1
 371 738 l 1,1,2
 368 724 368 724 352 718.5 c 128,-1,3
 336 713 336 713 316 709 c 128,-1,4
 296 705 296 705 287 694 c 0,5,6
 274 678 274 678 266.5 653 c 128,-1,7
 259 628 259 628 253 592.5 c 128,-1,8
 247 557 247 557 245 546 c 0,9,10
 215 427 215 427 207 366 c 0,11,12
 195 282 195 282 220 234 c 0,13,14
 239 196 239 196 278 171 c 128,-1,15
 317 146 317 146 359.5 143.5 c 128,-1,16
 402 141 402 141 441 166 c 1,17,18
 472 189 472 189 495.5 224 c 128,-1,19
 519 259 519 259 533.5 304.5 c 128,-1,20
 548 350 548 350 557.5 388.5 c 128,-1,21
 567 427 567 427 577 479.5 c 128,-1,22
 587 532 587 532 593 558 c 0,23,24
 595 566 595 566 602.5 590 c 128,-1,25
 610 614 610 614 614 629.5 c 128,-1,26
 618 645 618 645 621 669 c 128,-1,27
 624 693 624 693 618 701 c 1,28,29
 617 706 617 706 613 709 c 128,-1,30
 609 712 609 712 603.5 713.5 c 128,-1,31
 598 715 598 715 592.5 716.5 c 128,-1,32
 587 718 587 718 579.5 718 c 128,-1,33
 572 718 572 718 567.5 718 c 128,-1,34
 563 718 563 718 556 718 c 128,-1,35
 549 718 549 718 547 718 c 1,36,-1
 547 738 l 1,37,-1
 734 738 l 1,38,-1
 734 718 l 1,39,40
 731 718 731 718 720 716.5 c 128,-1,41
 709 715 709 715 703.5 714.5 c 128,-1,42
 698 714 698 714 690 711.5 c 128,-1,43
 682 709 682 709 676 705 c 0,44,45
 660 695 660 695 648.5 673 c 128,-1,46
 637 651 637 651 632.5 632 c 128,-1,47
 628 613 628 613 622 583 c 128,-1,48
 616 553 616 553 613 542 c 0,49,50
 608 520 608 520 600.5 481.5 c 128,-1,51
 593 443 593 443 587 413 c 128,-1,52
 581 383 581 383 570.5 344 c 128,-1,53
 560 305 560 305 549 275.5 c 128,-1,54
 538 246 538 246 520 215.5 c 128,-1,55
 502 185 502 185 480.5 165 c 128,-1,56
 459 145 459 145 428 131.5 c 128,-1,57
 397 118 397 118 359 116 c 1,58,59
 311 115 311 115 273 127 c 0,60,61
 230 141 230 141 207 158 c 0,62,63
 186 174 186 174 171.5 194.5 c 128,-1,64
 157 215 157 215 149 235 c 128,-1,65
 141 255 141 255 138.5 282.5 c 128,-1,66
 136 310 136 310 136.5 330.5 c 128,-1,67
 137 351 137 351 142.5 382.5 c 128,-1,68
 148 414 148 414 152 431.5 c 128,-1,69
 156 449 156 449 164 481.5 c 128,-1,70
 172 514 172 514 174 527 c 2,71,-1
 203 659 l 2,72,73
 203 660 203 660 205.5 668 c 128,-1,74
 208 676 208 676 208.5 679 c 128,-1,75
 209 682 209 682 210 688.5 c 128,-1,76
 211 695 211 695 209.5 699.5 c 128,-1,77
 208 704 208 704 205 707 c 0,78,79
 199 713 199 713 189.5 715.5 c 128,-1,80
 180 718 180 718 173.5 718.5 c 128,-1,81
 167 719 167 719 153 718.5 c 128,-1,82
 139 718 139 718 137 718 c 1,83,-1
 141 738 l 1,0,-1
EndSplineSet
EndChar

StartChar: V
Encoding: 86 86 57
Width: 563
Flags: W
LayerCount: 2
Fore
SplineSet
191 738 m 1,0,-1
 191 734 l 1,1,-1
 289 734 l 1,2,-1
 191 738 l 1,0,-1
117 738 m 1,3,-1
 348 738 l 1,4,-1
 348 722 l 1,5,6
 334 722 334 722 324.5 721 c 128,-1,7
 315 720 315 720 302.5 717.5 c 128,-1,8
 290 715 290 715 281 708 c 128,-1,9
 272 701 272 701 267 691 c 0,10,11
 260 677 260 677 256.5 654 c 128,-1,12
 253 631 253 631 253 615.5 c 128,-1,13
 253 600 253 600 253.5 570.5 c 128,-1,14
 254 541 254 541 254 534 c 0,15,16
 254 484 254 484 252 384 c 128,-1,17
 250 284 250 284 250 234 c 1,18,-1
 254 234 l 1,19,20
 261 253 261 253 274 272 c 128,-1,21
 287 291 287 291 306.5 316 c 128,-1,22
 326 341 326 341 333 351 c 2,23,-1
 486 573 l 2,24,25
 487 576 487 576 511.5 607.5 c 128,-1,26
 536 639 536 639 548.5 662.5 c 128,-1,27
 561 686 561 686 559 701 c 1,28,29
 557 708 557 708 551 712 c 128,-1,30
 545 716 545 716 535 717.5 c 128,-1,31
 525 719 525 719 517 719 c 128,-1,32
 509 719 509 719 498 718.5 c 128,-1,33
 487 718 487 718 484 718 c 1,34,-1
 484 738 l 1,35,36
 580 725 580 725 676 738 c 1,37,38
 674 726 674 726 664 720 c 128,-1,39
 654 714 654 714 639 710 c 128,-1,40
 624 706 624 706 617 702 c 0,41,42
 609 697 609 697 602 691 c 128,-1,43
 595 685 595 685 587.5 675.5 c 128,-1,44
 580 666 580 666 576.5 661.5 c 128,-1,45
 573 657 573 657 565 644 c 128,-1,46
 557 631 557 631 555 628 c 2,47,-1
 285 238 l 2,48,49
 281 233 281 233 259 195.5 c 128,-1,50
 237 158 237 158 218 137 c 128,-1,51
 199 116 199 116 180 112 c 1,52,53
 180 186 180 186 184 331.5 c 128,-1,54
 188 477 188 477 188 550 c 0,55,56
 188 562 188 562 192.5 597.5 c 128,-1,57
 197 633 197 633 197 661.5 c 128,-1,58
 197 690 197 690 187 705 c 0,59,60
 183 712 183 712 173.5 715.5 c 128,-1,61
 164 719 164 719 156 719 c 128,-1,62
 148 719 148 719 134 718.5 c 128,-1,63
 120 718 120 718 117 718 c 1,64,-1
 117 738 l 1,3,-1
EndSplineSet
EndChar

StartChar: W
Encoding: 87 87 58
Width: 771
Flags: W
LayerCount: 2
Fore
SplineSet
445 741 m 1,0,-1
 445 738 l 1,1,-1
 586 738 l 1,2,3
 569 744 569 744 545 745 c 128,-1,4
 521 746 521 746 488.5 743.5 c 128,-1,5
 456 741 456 741 445 741 c 1,0,-1
754 741 m 1,6,-1
 754 738 l 1,7,-1
 855 738 l 1,8,-1
 754 741 l 1,6,-1
121 741 m 1,9,-1
 340 741 l 1,10,-1
 336 722 l 1,11,12
 320 722 320 722 307.5 719 c 128,-1,13
 295 716 295 716 287.5 709 c 128,-1,14
 280 702 280 702 275 696.5 c 128,-1,15
 270 691 270 691 267.5 678.5 c 128,-1,16
 265 666 265 666 263.5 658.5 c 128,-1,17
 262 651 262 651 261 634 c 128,-1,18
 260 617 260 617 259 609 c 0,19,20
 254 569 254 569 252 519.5 c 128,-1,21
 250 470 250 470 249.5 440.5 c 128,-1,22
 249 411 249 411 249.5 346.5 c 128,-1,23
 250 282 250 282 250 265 c 1,24,-1
 254 265 l 1,25,26
 260 284 260 284 270.5 304 c 128,-1,27
 281 324 281 324 297 349.5 c 128,-1,28
 313 375 313 375 319 386 c 2,29,-1
 436 597 l 2,30,31
 438 600 438 600 442 606 c 0,32,33
 452 624 452 624 457 633.5 c 128,-1,34
 462 643 462 643 469 659 c 128,-1,35
 476 675 476 675 475.5 684 c 128,-1,36
 475 693 475 693 471 703 c 128,-1,37
 467 713 467 713 453.5 717.5 c 128,-1,38
 440 722 440 722 418 722 c 1,39,-1
 422 741 l 1,40,-1
 609 741 l 1,41,-1
 609 722 l 1,42,43
 593 721 593 721 581 713.5 c 128,-1,44
 569 706 569 706 563 698 c 128,-1,45
 557 690 557 690 553.5 674.5 c 128,-1,46
 550 659 550 659 549 649 c 128,-1,47
 548 639 548 639 547 620 c 0,48,49
 547 615 547 615 547 612 c 0,50,51
 535 336 535 336 535 261 c 1,52,53
 548 272 548 272 559.5 289.5 c 128,-1,54
 571 307 571 307 583.5 332.5 c 128,-1,55
 596 358 596 358 602 366 c 1,56,57
 613 386 613 386 646 438 c 128,-1,58
 679 490 679 490 700 529 c 128,-1,59
 721 568 721 568 736 605 c 0,60,61
 738 610 738 610 759 647 c 128,-1,62
 780 684 780 684 779 702 c 0,63,64
 778 709 778 709 774.5 713.5 c 128,-1,65
 771 718 771 718 762.5 720 c 128,-1,66
 754 722 754 722 749.5 722.5 c 128,-1,67
 745 723 745 723 734 722.5 c 128,-1,68
 723 722 723 722 723 722 c 1,69,-1
 742 740 l 1,70,-1
 879 741 l 1,71,-1
 879 722 l 1,72,73
 858 721 858 721 841 711.5 c 128,-1,74
 824 702 824 702 809.5 684 c 128,-1,75
 795 666 795 666 786 651.5 c 128,-1,76
 777 637 777 637 764.5 612 c 128,-1,77
 752 587 752 587 746 577 c 2,78,-1
 548 241 l 2,79,80
 543 233 543 233 527 199.5 c 128,-1,81
 511 166 511 166 496 144 c 128,-1,82
 481 122 481 122 465 112 c 1,83,-1
 484 636 l 1,84,-1
 480 636 l 1,85,86
 454 574 454 574 420.5 511.5 c 128,-1,87
 387 449 387 449 332 356.5 c 128,-1,88
 277 264 277 264 262 238 c 0,89,90
 259 233 259 233 242 195.5 c 128,-1,91
 225 158 225 158 209 136.5 c 128,-1,92
 193 115 193 115 176 112 c 1,93,94
 176 188 176 188 183.5 339 c 128,-1,95
 191 490 191 490 191 566 c 0,96,97
 191 569 191 569 194.5 607.5 c 128,-1,98
 198 646 198 646 195.5 672 c 128,-1,99
 193 698 193 698 182 708 c 0,100,101
 178 712 178 712 172.5 714.5 c 128,-1,102
 167 717 167 717 159 718 c 128,-1,103
 151 719 151 719 147 720 c 128,-1,104
 143 721 143 721 132.5 721.5 c 128,-1,105
 122 722 122 722 121 722 c 1,106,-1
 121 741 l 1,9,-1
EndSplineSet
EndChar

StartChar: X
Encoding: 88 88 59
Width: 656
Flags: W
LayerCount: 2
Fore
SplineSet
0 152 m 1,0,-1
 4 148 l 1,1,-1
 0 152 l 1,0,-1
117 738 m 1,2,-1
 262 738 l 1,3,-1
 359 738 l 1,4,-1
 355 718 l 1,5,6
 353 718 353 718 341.5 718.5 c 128,-1,7
 330 719 330 719 323.5 719 c 128,-1,8
 317 719 317 719 308.5 716 c 128,-1,9
 300 713 300 713 296 708 c 0,10,11
 294 705 294 705 293.5 700 c 128,-1,12
 293 695 293 695 295.5 688.5 c 128,-1,13
 298 682 298 682 300 678 c 128,-1,14
 302 674 302 674 305.5 667.5 c 128,-1,15
 309 661 309 661 310 659 c 0,16,17
 316 646 316 646 330.5 618.5 c 128,-1,18
 345 591 345 591 355.5 569 c 128,-1,19
 366 547 366 547 375 527 c 1,20,-1
 470 655 l 2,21,22
 471 657 471 657 477.5 665.5 c 128,-1,23
 484 674 484 674 487.5 679 c 128,-1,24
 491 684 491 684 493.5 692 c 128,-1,25
 496 700 496 700 494 705 c 0,26,27
 493 710 493 710 489 713 c 128,-1,28
 485 716 485 716 478 717 c 128,-1,29
 471 718 471 718 467 718.5 c 128,-1,30
 463 719 463 719 454.5 718.5 c 128,-1,31
 446 718 446 718 445 718 c 2,32,-1
 449 738 l 1,33,-1
 645 738 l 1,34,35
 642 725 642 725 623 718 c 128,-1,36
 604 711 604 711 578 705.5 c 128,-1,37
 552 700 552 700 543 694 c 0,38,39
 504 667 504 667 461.5 613.5 c 128,-1,40
 419 560 419 560 394 511 c 0,41,42
 387 497 387 497 394.5 475 c 128,-1,43
 402 453 402 453 422 419.5 c 128,-1,44
 442 386 442 386 442 386 c 1,45,-1
 524 218 l 2,46,47
 526 214 526 214 531 202.5 c 128,-1,48
 536 191 536 191 540 184 c 128,-1,49
 544 177 544 177 550.5 169 c 128,-1,50
 557 161 557 161 563 158 c 0,51,52
 570 155 570 155 577 154 c 128,-1,53
 584 153 584 153 593.5 154.5 c 128,-1,54
 603 156 603 156 608 156.5 c 128,-1,55
 613 157 613 157 625 161 c 128,-1,56
 637 165 637 165 638.5 165.5 c 128,-1,57
 640 166 640 166 652 171 c 1,58,59
 652 160 652 160 647.5 152 c 128,-1,60
 643 144 643 144 632.5 140 c 128,-1,61
 622 136 622 136 615.5 134.5 c 128,-1,62
 609 133 609 133 594 130 c 0,63,64
 565 126 565 126 532 125.5 c 128,-1,65
 499 125 499 125 456 126.5 c 128,-1,66
 413 128 413 128 395 128 c 1,67,-1
 395 148 l 1,68,69
 395 148 395 148 403 147.5 c 128,-1,70
 411 147 411 147 413.5 147.5 c 128,-1,71
 416 148 416 148 423.5 148.5 c 128,-1,72
 431 149 431 149 434 150 c 128,-1,73
 437 151 437 151 442 153.5 c 128,-1,74
 447 156 447 156 450 159.5 c 128,-1,75
 453 163 453 163 455 167 c 1,76,77
 456 177 456 177 456.5 182.5 c 128,-1,78
 457 188 457 188 453.5 199 c 128,-1,79
 450 210 450 210 447.5 215.5 c 128,-1,80
 445 221 445 221 440 231.5 c 128,-1,81
 435 242 435 242 433 245 c 0,82,83
 420 275 420 275 387 338.5 c 128,-1,84
 354 402 354 402 340 437 c 1,85,-1
 336 437 l 1,86,87
 320 404 320 404 295.5 370.5 c 128,-1,88
 271 337 271 337 236.5 295 c 128,-1,89
 202 253 202 253 187 234 c 0,90,91
 185 231 185 231 177.5 222.5 c 128,-1,92
 170 214 170 214 165 207.5 c 128,-1,93
 160 201 160 201 153.5 191 c 128,-1,94
 147 181 147 181 146.5 175 c 128,-1,95
 146 169 146 169 148 161 c 1,96,97
 154 151 154 151 168.5 148 c 128,-1,98
 183 145 183 145 195.5 147.5 c 128,-1,99
 208 150 208 150 227 154.5 c 128,-1,100
 246 159 246 159 250 159 c 1,101,102
 249 155 249 155 248 152 c 128,-1,103
 247 149 247 149 244.5 146.5 c 128,-1,104
 242 144 242 144 240.5 142 c 128,-1,105
 239 140 239 140 235.5 138.5 c 128,-1,106
 232 137 232 137 230.5 136.5 c 128,-1,107
 229 136 229 136 224 135 c 128,-1,108
 219 134 219 134 217.5 133.5 c 128,-1,109
 216 133 216 133 210 132.5 c 128,-1,110
 204 132 204 132 203 132 c 0,111,112
 182 129 182 129 161 128 c 128,-1,113
 140 127 140 127 104.5 127.5 c 128,-1,114
 69 128 69 128 62 128 c 0,115,116
 59 128 59 128 49 127.5 c 128,-1,117
 39 127 39 127 33.5 127 c 128,-1,118
 28 127 28 127 21 129 c 128,-1,119
 14 131 14 131 10 135.5 c 128,-1,120
 6 140 6 140 4 148 c 1,121,122
 33 148 33 148 60.5 159.5 c 128,-1,123
 88 171 88 171 108.5 186 c 128,-1,124
 129 201 129 201 153.5 229 c 128,-1,125
 178 257 178 257 191.5 276 c 128,-1,126
 205 295 205 295 228 328.5 c 128,-1,127
 251 362 251 362 260 374 c 0,128,129
 264 380 264 380 282.5 400.5 c 128,-1,130
 301 421 301 421 312 438 c 128,-1,131
 323 455 323 455 324 468 c 0,132,133
 324 480 324 480 317 496 c 128,-1,134
 310 512 310 512 297.5 532 c 128,-1,135
 285 552 285 552 282 558 c 0,136,137
 277 569 277 569 265.5 597 c 128,-1,138
 254 625 254 625 245 645 c 128,-1,139
 236 665 236 665 220 685.5 c 128,-1,140
 204 706 204 706 187 713 c 0,141,142
 156 726 156 726 121 722 c 1,143,-1
 117 738 l 1,2,-1
EndSplineSet
EndChar

StartChar: Y
Encoding: 89 89 60
Width: 510
Flags: W
LayerCount: 2
Fore
SplineSet
113 738 m 1,0,-1
 324 738 l 1,1,2
 319 723 319 723 304.5 718.5 c 128,-1,3
 290 714 290 714 276 710.5 c 128,-1,4
 262 707 262 707 257 694 c 1,5,6
 255 679 255 679 255.5 672.5 c 128,-1,7
 256 666 256 666 261.5 649 c 128,-1,8
 267 632 267 632 268 628 c 0,9,10
 270 621 270 621 277 587 c 128,-1,11
 284 553 284 553 287.5 538 c 128,-1,12
 291 523 291 523 299 498.5 c 128,-1,13
 307 474 307 474 316 456 c 1,14,15
 336 494 336 494 391.5 559 c 128,-1,16
 447 624 447 624 456 636 c 0,17,18
 457 638 457 638 466.5 649.5 c 128,-1,19
 476 661 476 661 482 669 c 128,-1,20
 488 677 488 677 492.5 688 c 128,-1,21
 497 699 497 699 494 705 c 1,22,23
 493 710 493 710 488.5 713 c 128,-1,24
 484 716 484 716 476.5 717 c 128,-1,25
 469 718 469 718 464.5 718.5 c 128,-1,26
 460 719 460 719 451 718.5 c 128,-1,27
 442 718 442 718 441 718 c 1,28,-1
 441 738 l 1,29,-1
 609 738 l 1,30,-1
 609 718 l 1,31,32
 596 718 596 718 584 715 c 128,-1,33
 572 712 572 712 560.5 705 c 128,-1,34
 549 698 549 698 541 692.5 c 128,-1,35
 533 687 533 687 522 675 c 128,-1,36
 511 663 511 663 506 657 c 128,-1,37
 501 651 501 651 489.5 636 c 128,-1,38
 478 621 478 621 474 616 c 0,39,40
 462 601 462 601 427 561 c 128,-1,41
 392 521 392 521 369.5 490.5 c 128,-1,42
 347 460 347 460 331 429 c 0,43,44
 325 416 325 416 319.5 399 c 128,-1,45
 314 382 314 382 311 370 c 128,-1,46
 308 358 308 358 303.5 337.5 c 128,-1,47
 299 317 299 317 296 308 c 0,48,49
 273 210 273 210 271 202 c 0,50,51
 271 201 271 201 269.5 194.5 c 128,-1,52
 268 188 268 188 267.5 185 c 128,-1,53
 267 182 267 182 267 177 c 128,-1,54
 267 172 267 172 268 168 c 128,-1,55
 269 164 269 164 272 161 c 0,56,57
 281 149 281 149 298 146.5 c 128,-1,58
 315 144 315 144 344 147.5 c 128,-1,59
 373 151 373 151 375 152 c 1,60,61
 373 143 373 143 368 137.5 c 128,-1,62
 363 132 363 132 354 130 c 128,-1,63
 345 128 345 128 339 127.5 c 128,-1,64
 333 127 333 127 320.5 127.5 c 128,-1,65
 308 128 308 128 305 128 c 0,66,67
 269 128 269 128 197.5 126 c 128,-1,68
 126 124 126 124 90 124 c 1,69,-1
 94 144 l 1,70,71
 98 144 98 144 110 143.5 c 128,-1,72
 122 143 122 143 128 143.5 c 128,-1,73
 134 144 134 144 144 145 c 128,-1,74
 154 146 154 146 161.5 149 c 128,-1,75
 169 152 169 152 175 157 c 0,76,77
 180 161 180 161 184 166 c 128,-1,78
 188 171 188 171 190.5 175.5 c 128,-1,79
 193 180 193 180 195.5 187.5 c 128,-1,80
 198 195 198 195 199 198 c 128,-1,81
 200 201 200 201 202.5 210.5 c 128,-1,82
 205 220 205 220 205 222 c 0,83,84
 209 234 209 234 220 269.5 c 128,-1,85
 231 305 231 305 237 328 c 128,-1,86
 243 351 243 351 247.5 381 c 128,-1,87
 252 411 252 411 250 433 c 0,88,89
 247 459 247 459 232.5 508 c 128,-1,90
 218 557 218 557 216 566 c 256,91,92
 214 575 214 575 208.5 599 c 128,-1,93
 203 623 203 623 200 634.5 c 128,-1,94
 197 646 197 646 189.5 664 c 128,-1,95
 182 682 182 682 173 691 c 128,-1,96
 164 700 164 700 148.5 708 c 128,-1,97
 133 716 133 716 113 718 c 1,98,-1
 113 738 l 1,0,-1
EndSplineSet
EndChar

StartChar: Z
Encoding: 90 90 61
Width: 531
Flags: W
LayerCount: 2
Fore
SplineSet
102 648 m 1,0,-1
 151 737 l 1,1,-1
 258 741 l 1,2,-1
 547 741 l 1,3,-1
 416 566 l 1,4,-1
 121 155 l 1,5,6
 146 155 146 155 199 154.5 c 128,-1,7
 252 154 252 154 283.5 154 c 128,-1,8
 315 154 315 154 360 156.5 c 128,-1,9
 405 159 405 159 441 165 c 0,10,11
 460 168 460 168 491.5 188.5 c 128,-1,12
 523 209 523 209 543 210 c 1,13,14
 541 206 541 206 535 191.5 c 128,-1,15
 529 177 529 177 524.5 167.5 c 128,-1,16
 520 158 520 158 512.5 147 c 128,-1,17
 505 136 505 136 498 132 c 0,18,19
 486 124 486 124 462 123 c 128,-1,20
 438 122 438 122 406.5 125 c 128,-1,21
 375 128 375 128 367 128 c 2,22,-1
 16 128 l 1,23,24
 34 165 34 165 61.5 203 c 128,-1,25
 89 241 89 241 128.5 289.5 c 128,-1,26
 168 338 168 338 184 359 c 2,27,-1
 441 714 l 1,28,29
 417 714 417 714 363.5 718 c 128,-1,30
 310 722 310 722 267 721.5 c 128,-1,31
 224 721 224 721 191 713 c 0,32,33
 173 708 173 708 148.5 678.5 c 128,-1,34
 124 649 124 649 102 648 c 1,0,-1
EndSplineSet
EndChar

StartChar: bracketleft
Encoding: 91 91 62
Width: 354
Flags: W
LayerCount: 2
Fore
SplineSet
246 800 m 1,0,-1
 445 800 l 1,1,-1
 441 773 l 1,2,-1
 270 773 l 1,3,-1
 202 441 l 1,4,-1
 86 -118 l 1,5,-1
 258 -118 l 1,6,-1
 254 -145 l 1,7,-1
 51 -145 l 1,8,9
 79 -35 79 -35 120.5 176 c 128,-1,10
 162 387 162 387 169 421 c 0,11,12
 177 458 177 458 197 538.5 c 128,-1,13
 217 619 217 619 229.5 681.5 c 128,-1,14
 242 744 242 744 246 800 c 1,0,-1
EndSplineSet
EndChar

StartChar: backslash
Encoding: 92 92 63
Width: 531
Flags: W
LayerCount: 2
Fore
SplineSet
66 870 m 1,0,1
 70 870 70 870 78 870.5 c 128,-1,2
 86 871 86 871 91.5 871 c 128,-1,3
 97 871 97 871 104 870 c 128,-1,4
 111 869 111 869 115 866 c 0,5,6
 121 862 121 862 126.5 852.5 c 128,-1,7
 132 843 132 843 138 829 c 128,-1,8
 144 815 144 815 145 812 c 2,9,-1
 210 683 l 1,10,-1
 450 198 l 2,11,12
 458 184 458 184 486 136 c 128,-1,13
 514 88 514 88 530 51 c 128,-1,14
 546 14 546 14 547 -16 c 1,15,16
 544 -16 544 -16 535.5 -16.5 c 128,-1,17
 527 -17 527 -17 521.5 -17.5 c 128,-1,18
 516 -18 516 -18 509.5 -16.5 c 128,-1,19
 503 -15 503 -15 499 -12 c 0,20,21
 492 -8 492 -8 486.5 1.5 c 128,-1,22
 481 11 481 11 475 25 c 128,-1,23
 469 39 469 39 468 42 c 2,24,-1
 403 171 l 1,25,-1
 163 652 l 2,26,27
 156 666 156 666 126.5 715 c 128,-1,28
 97 764 97 764 81.5 801.5 c 128,-1,29
 66 839 66 839 66 870 c 1,0,1
EndSplineSet
EndChar

StartChar: bracketright
Encoding: 93 93 64
Width: 354
Flags: W
LayerCount: 2
Fore
SplineSet
152 800 m 1,0,-1
 352 800 l 1,1,-1
 289 495 l 1,2,-1
 156 -145 l 1,3,-1
 -43 -145 l 1,4,-1
 -39 -118 l 1,5,-1
 82 -118 l 1,6,-1
 130 -112 l 1,7,-1
 148 -44 l 1,8,-1
 183 124 l 1,9,-1
 316 773 l 1,10,-1
 148 773 l 1,11,-1
 152 800 l 1,0,-1
EndSplineSet
EndChar

StartChar: asciicircum
Encoding: 94 94 65
Width: 458
Flags: W
LayerCount: 2
Fore
SplineSet
51 386 m 1,0,1
 55 400 55 400 63.5 415 c 128,-1,2
 72 430 72 430 83.5 448.5 c 128,-1,3
 95 467 95 467 100 476 c 2,4,-1
 217 671 l 2,5,6
 218 673 218 673 231 699 c 128,-1,7
 244 725 244 725 256 741.5 c 128,-1,8
 268 758 268 758 278 759 c 0,9,10
 284 760 284 760 292 753.5 c 128,-1,11
 300 747 300 747 307.5 735.5 c 128,-1,12
 315 724 315 724 321 713 c 128,-1,13
 327 702 327 702 333 690 c 128,-1,14
 339 678 339 678 341 675 c 2,15,-1
 460 480 l 2,16,17
 464 473 464 473 478 452 c 128,-1,18
 492 431 492 431 500 416 c 128,-1,19
 508 401 508 401 512 386 c 1,20,-1
 459 392 l 1,21,-1
 402 484 l 1,22,-1
 281 691 l 1,23,-1
 277 691 l 1,24,-1
 156 484 l 1,25,-1
 99 392 l 1,26,-1
 51 386 l 1,0,1
EndSplineSet
EndChar

StartChar: underscore
Encoding: 95 95 66
Width: 500
Flags: W
LayerCount: 2
Fore
SplineSet
0 54 m 1,0,-1
 500 54 l 1,1,-1
 500 3 l 1,2,-1
 0 3 l 1,3,-1
 0 54 l 1,0,-1
EndSplineSet
EndChar

StartChar: grave
Encoding: 96 96 67
Width: 333
Flags: W
LayerCount: 2
Fore
SplineSet
207 710 m 1,0,-1
 268 706 l 1,1,-1
 295 659 l 1,2,-1
 344 550 l 1,3,4
 336 550 336 550 329.5 552 c 128,-1,5
 323 554 323 554 319 555.5 c 128,-1,6
 315 557 315 557 309.5 563 c 128,-1,7
 304 569 304 569 302.5 571 c 128,-1,8
 301 573 301 573 294.5 582 c 128,-1,9
 288 591 288 591 287 593 c 0,10,11
 280 603 280 603 260.5 628 c 128,-1,12
 241 653 241 653 228 672 c 128,-1,13
 215 691 215 691 207 710 c 1,0,-1
EndSplineSet
EndChar

StartChar: a
Encoding: 97 97 68
Width: 344
Flags: W
LayerCount: 2
Fore
SplineSet
277 448 m 1,0,1
 198 448 198 448 159 404.5 c 128,-1,2
 120 361 120 361 103 277 c 0,3,4
 103 274 103 274 99.5 260.5 c 128,-1,5
 96 247 96 247 94.5 238.5 c 128,-1,6
 93 230 93 230 92 217.5 c 128,-1,7
 91 205 91 205 93.5 196 c 128,-1,8
 96 187 96 187 101 181 c 0,9,10
 103 179 103 179 106 178 c 128,-1,11
 109 177 109 177 112 177 c 128,-1,12
 115 177 115 177 117.5 178 c 128,-1,13
 120 179 120 179 123.5 181 c 128,-1,14
 127 183 127 183 129.5 185 c 128,-1,15
 132 187 132 187 135 190 c 128,-1,16
 138 193 138 193 140 194.5 c 128,-1,17
 142 196 142 196 145 199 c 128,-1,18
 148 202 148 202 148 202 c 2,19,20
 154 208 154 208 169.5 222.5 c 128,-1,21
 185 237 185 237 193.5 245.5 c 128,-1,22
 202 254 202 254 213.5 267 c 128,-1,23
 225 280 225 280 232.5 293 c 128,-1,24
 240 306 240 306 245 320 c 0,25,26
 252 341 252 341 261.5 384.5 c 128,-1,27
 271 428 271 428 277 448 c 1,0,1
234 269 m 1,28,29
 232 266 232 266 192 218 c 128,-1,30
 152 170 152 170 129 148 c 0,31,32
 96 117 96 117 74 122 c 0,33,34
 53 127 53 127 45 149 c 128,-1,35
 37 171 37 171 40.5 201 c 128,-1,36
 44 231 44 231 49.5 254 c 128,-1,37
 55 277 55 277 62 296 c 0,38,39
 82 353 82 353 117 400.5 c 128,-1,40
 152 448 152 448 199 470 c 0,41,42
 209 475 209 475 221 478.5 c 128,-1,43
 233 482 233 482 242 484.5 c 128,-1,44
 251 487 251 487 267 490 c 128,-1,45
 283 493 283 493 289 493.5 c 128,-1,46
 295 494 295 494 314.5 496.5 c 128,-1,47
 334 499 334 499 336 499 c 1,48,49
 333 486 333 486 283 257 c 0,50,51
 282 254 282 254 278 239 c 128,-1,52
 274 224 274 224 271.5 213.5 c 128,-1,53
 269 203 269 203 269 190.5 c 128,-1,54
 269 178 269 178 273 173 c 1,55,56
 278 169 278 169 282.5 168.5 c 128,-1,57
 287 168 287 168 293.5 172.5 c 128,-1,58
 300 177 300 177 305 181.5 c 128,-1,59
 310 186 310 186 316 192.5 c 128,-1,60
 322 199 322 199 325.5 203 c 128,-1,61
 329 207 329 207 332 210 c 1,62,-1
 348 202 l 1,63,64
 341 190 341 190 326 172.5 c 128,-1,65
 311 155 311 155 291 139 c 128,-1,66
 271 123 271 123 253.5 121.5 c 128,-1,67
 236 120 236 120 224 140 c 1,68,69
 218 152 218 152 217.5 170.5 c 128,-1,70
 217 189 217 189 219.5 203 c 128,-1,71
 222 217 222 217 227.5 239.5 c 128,-1,72
 233 262 233 262 234 269 c 1,28,29
EndSplineSet
EndChar

StartChar: b
Encoding: 98 98 69
Width: 323
Flags: W
LayerCount: 2
Fore
SplineSet
223 442 m 0,0,1
 124 423 124 423 103 249 c 0,2,3
 100 230 100 230 103 209.5 c 128,-1,4
 106 189 106 189 118.5 172 c 128,-1,5
 131 155 131 155 152 157 c 0,6,7
 190 162 190 162 219 197.5 c 128,-1,8
 248 233 248 233 260.5 275.5 c 128,-1,9
 273 318 273 318 273 355 c 0,10,11
 273 368 273 368 271 382.5 c 128,-1,12
 269 397 269 397 264 412.5 c 128,-1,13
 259 428 259 428 248.5 436.5 c 128,-1,14
 238 445 238 445 223 442 c 0,0,1
90 777 m 1,15,-1
 94 773 l 1,16,-1
 90 777 l 1,15,-1
94 788 m 1,17,-1
 211 804 l 1,18,19
 211 744 211 744 196 674.5 c 128,-1,20
 181 605 181 605 157.5 521.5 c 128,-1,21
 134 438 134 438 125 394 c 1,22,23
 140 404 140 404 162.5 427.5 c 128,-1,24
 185 451 185 451 206.5 468.5 c 128,-1,25
 228 486 228 486 250 493 c 0,26,27
 271 499 271 499 286.5 488 c 128,-1,28
 302 477 302 477 309.5 456 c 128,-1,29
 317 435 317 435 320.5 415 c 128,-1,30
 324 395 324 395 324 378 c 0,31,32
 324 320 324 320 289 262 c 128,-1,33
 254 204 254 204 203 163 c 0,34,35
 202 162 202 162 196.5 157 c 128,-1,36
 191 152 191 152 189.5 151 c 128,-1,37
 188 150 188 150 182 145.5 c 128,-1,38
 176 141 176 141 174 139.5 c 128,-1,39
 172 138 172 138 165.5 134 c 128,-1,40
 159 130 159 130 157 129.5 c 128,-1,41
 155 129 155 129 148.5 125.5 c 128,-1,42
 142 122 142 122 139.5 122.5 c 128,-1,43
 137 123 137 123 130.5 121 c 128,-1,44
 124 119 124 119 121 121 c 1,45,46
 95 124 95 124 78.5 141.5 c 128,-1,47
 62 159 62 159 57.5 182 c 128,-1,48
 53 205 53 205 52 231 c 128,-1,49
 51 257 51 257 56 277 c 1,50,51
 68 354 68 354 108.5 520.5 c 128,-1,52
 149 687 149 687 160 777 c 1,53,-1
 94 777 l 1,54,-1
 94 788 l 1,17,-1
EndSplineSet
EndChar

StartChar: c
Encoding: 99 99 70
Width: 250
Flags: W
LayerCount: 2
Fore
SplineSet
223 195 m 1,0,1
 181 161 181 161 156 146 c 0,2,3
 99 112 99 112 65.5 133.5 c 128,-1,4
 32 155 32 155 43 222 c 0,5,6
 50 260 50 260 60.5 296.5 c 128,-1,7
 71 333 71 333 89 374 c 128,-1,8
 107 415 107 415 134.5 445.5 c 128,-1,9
 162 476 162 476 195 487 c 0,10,11
 218 494 218 494 254 484 c 0,12,13
 299 471 299 471 268 442 c 1,14,15
 257 436 257 436 249.5 436.5 c 128,-1,16
 242 437 242 437 227.5 440.5 c 128,-1,17
 213 444 213 444 207 444 c 0,18,19
 159 445 159 445 135 386 c 0,20,21
 107 317 107 317 98 222 c 0,22,23
 94 175 94 175 117 166 c 1,24,25
 125 165 125 165 130.5 164.5 c 128,-1,26
 136 164 136 164 145 167.5 c 128,-1,27
 154 171 154 171 160 174 c 128,-1,28
 166 177 166 177 174.5 183 c 128,-1,29
 183 189 183 189 188 192.5 c 128,-1,30
 193 196 193 196 200.5 202 c 128,-1,31
 208 208 208 208 211 210 c 1,32,-1
 223 198 l 1,33,-1
 223 195 l 1,0,1
EndSplineSet
EndChar

StartChar: d
Encoding: 100 100 71
Width: 354
Flags: W
LayerCount: 2
Fore
SplineSet
277 452 m 1,0,1
 130 452 130 452 109 277 c 0,2,3
 109 276 109 276 107 265.5 c 128,-1,4
 105 255 105 255 105 250.5 c 128,-1,5
 105 246 105 246 104 235.5 c 128,-1,6
 103 225 103 225 103.5 218.5 c 128,-1,7
 104 212 104 212 104.5 204 c 128,-1,8
 105 196 105 196 108 190.5 c 128,-1,9
 111 185 111 185 115 181 c 0,10,11
 136 163 136 163 192 219 c 0,12,13
 194 221 194 221 195 222 c 0,14,15
 236 262 236 262 253.5 320 c 128,-1,16
 271 378 271 378 277 452 c 1,0,1
266 773 m 1,17,18
 276 800 276 800 388 800 c 0,19,20
 393 800 393 800 395 800 c 1,21,-1
 362 624 l 1,22,-1
 305 331 l 1,23,-1
 284 218 l 1,24,-1
 288 173 l 1,25,-1
 359 195 l 1,26,27
 339 166 339 166 308 140.5 c 128,-1,28
 277 115 277 115 254 123 c 0,29,30
 235 130 235 130 231 155 c 128,-1,31
 227 180 227 180 231 200.5 c 128,-1,32
 235 221 235 221 242 241 c 1,33,34
 239 239 239 239 197 199 c 128,-1,35
 155 159 155 159 129 143 c 0,36,37
 93 120 93 120 78 123 c 0,38,39
 28 136 28 136 62 273 c 0,40,41
 73 318 73 318 92 356.5 c 128,-1,42
 111 395 111 395 138.5 427 c 128,-1,43
 166 459 166 459 204.5 477 c 128,-1,44
 243 495 243 495 289 495 c 1,45,-1
 340 773 l 1,46,-1
 266 773 l 1,17,18
EndSplineSet
EndChar

StartChar: e
Encoding: 101 101 72
Width: 250
Flags: W
LayerCount: 2
Fore
SplineSet
113 323 m 1,0,1
 122 327 122 327 130.5 332 c 128,-1,2
 139 337 139 337 153 345 c 128,-1,3
 167 353 167 353 177.5 360.5 c 128,-1,4
 188 368 188 368 199.5 378.5 c 128,-1,5
 211 389 211 389 216 398.5 c 128,-1,6
 221 408 221 408 223 419 c 128,-1,7
 225 430 225 430 216 440 c 0,8,9
 205 453 205 453 185.5 452.5 c 128,-1,10
 166 452 166 452 154 440 c 0,11,12
 149 434 149 434 144 427 c 128,-1,13
 139 420 139 420 135.5 410 c 128,-1,14
 132 400 132 400 129.5 394 c 128,-1,15
 127 388 127 388 124 375 c 128,-1,16
 121 362 121 362 120 358 c 128,-1,17
 119 354 119 354 116.5 339.5 c 128,-1,18
 114 325 114 325 113 323 c 1,0,1
234 206 m 1,19,20
 229 202 229 202 202.5 181.5 c 128,-1,21
 176 161 176 161 160 150 c 128,-1,22
 144 139 144 139 120 129 c 128,-1,23
 96 119 96 119 78 121 c 1,24,25
 61 124 61 124 51.5 136.5 c 128,-1,26
 42 149 42 149 40.5 168 c 128,-1,27
 39 187 39 187 39.5 202.5 c 128,-1,28
 40 218 40 218 43 234 c 0,29,30
 49 271 49 271 59.5 308 c 128,-1,31
 70 345 70 345 88 388 c 128,-1,32
 106 431 106 431 135 460 c 128,-1,33
 164 489 164 489 199 494 c 0,34,35
 236 500 236 500 257 475.5 c 128,-1,36
 278 451 278 451 262 417 c 0,37,38
 240 373 240 373 160 326 c 0,39,40
 155 323 155 323 143 317.5 c 128,-1,41
 131 312 131 312 122.5 306.5 c 128,-1,42
 114 301 114 301 109 295 c 0,43,44
 101 285 101 285 96 265.5 c 128,-1,45
 91 246 91 246 90 226 c 128,-1,46
 89 206 89 206 97 190 c 128,-1,47
 105 174 105 174 121 172 c 1,48,49
 138 171 138 171 155.5 178.5 c 128,-1,50
 173 186 173 186 196.5 202 c 128,-1,51
 220 218 220 218 227 222 c 1,52,-1
 234 206 l 1,19,20
EndSplineSet
EndChar

StartChar: f
Encoding: 102 102 73
Width: 240
Flags: W
LayerCount: 2
Fore
SplineSet
51 476 m 1,0,1
 53 476 53 476 71.5 474.5 c 128,-1,2
 90 473 90 473 101.5 474.5 c 128,-1,3
 113 476 113 476 119 482 c 0,4,5
 129 491 129 491 135.5 524.5 c 128,-1,6
 142 558 142 558 144 562 c 0,7,8
 178 651 178 651 246 692 c 0,9,10
 293 720 293 720 332 713 c 0,11,12
 345 711 345 711 353 701 c 128,-1,13
 361 691 361 691 356 679 c 0,14,15
 350 663 350 663 327.5 659.5 c 128,-1,16
 305 656 305 656 277 656 c 128,-1,17
 249 656 249 656 238 650 c 0,18,19
 179 617 179 617 176 480 c 1,20,-1
 285 480 l 1,21,-1
 281 452 l 1,22,-1
 168 452 l 1,23,24
 168 430 168 430 165 406.5 c 128,-1,25
 162 383 162 383 156 349.5 c 128,-1,26
 150 316 150 316 148 304 c 0,27,28
 147 297 147 297 145 281 c 0,29,30
 138 225 138 225 132.5 194 c 128,-1,31
 127 163 127 163 115 114.5 c 128,-1,32
 103 66 103 66 84 28 c 128,-1,33
 65 -10 65 -10 38 -40 c 0,34,35
 -38 -126 -38 -126 -125 -136 c 1,36,37
 -184 -144 -184 -144 -193 -118 c 0,38,39
 -197 -105 -197 -105 -187.5 -96.5 c 128,-1,40
 -178 -88 -178 -88 -164 -87 c 0,41,42
 -148 -85 -148 -85 -116.5 -83 c 128,-1,43
 -85 -81 -85 -81 -69 -79 c 128,-1,44
 -53 -77 -53 -77 -30.5 -65.5 c 128,-1,45
 -8 -54 -8 -54 10 -32 c 0,46,47
 46 12 46 12 65 77.5 c 128,-1,48
 84 143 84 143 87.5 201 c 128,-1,49
 91 259 91 259 99 332.5 c 128,-1,50
 107 406 107 406 121 452 c 1,51,-1
 47 456 l 1,52,-1
 51 476 l 1,0,1
EndSplineSet
EndChar

StartChar: g
Encoding: 103 103 74
Width: 281
Flags: W
LayerCount: 2
Fore
SplineSet
152 446 m 0,0,1
 131 440 131 440 118 404.5 c 128,-1,2
 105 369 105 369 105.5 334.5 c 128,-1,3
 106 300 106 300 110 277 c 1,4,5
 116 257 116 257 129.5 241.5 c 128,-1,6
 143 226 143 226 160 229 c 0,7,8
 202 237 202 237 226 300 c 1,9,10
 253 366 253 366 233 415 c 256,11,12
 213 464 213 464 152 446 c 0,0,1
31 52 m 0,13,14
 -16 44 -16 44 -27 2.5 c 128,-1,15
 -38 -39 -38 -39 -4 -71 c 0,16,17
 43 -116 43 -116 137 -98 c 0,18,19
 159 -94 159 -94 179 -79.5 c 128,-1,20
 199 -65 199 -65 207 -45 c 128,-1,21
 215 -25 215 -25 194 -2 c 0,22,23
 182 10 182 10 162 17.5 c 128,-1,24
 142 25 142 25 115.5 30.5 c 128,-1,25
 89 36 89 36 78 40 c 0,26,27
 75 41 75 41 64 45.5 c 128,-1,28
 53 50 53 50 46 51.5 c 128,-1,29
 39 53 39 53 31 52 c 0,13,14
121 206 m 1,30,31
 81 223 81 223 65 257 c 128,-1,32
 49 291 49 291 56 328 c 128,-1,33
 63 365 63 365 83.5 400 c 128,-1,34
 104 435 104 435 133 458 c 0,35,36
 196 507 196 507 238 490 c 0,37,38
 272 477 272 477 284 443 c 128,-1,39
 296 409 296 409 288.5 371 c 128,-1,40
 281 333 281 333 263.5 297.5 c 128,-1,41
 246 262 246 262 226 243 c 0,42,43
 218 236 218 236 210 230 c 128,-1,44
 202 224 202 224 191.5 217.5 c 128,-1,45
 181 211 181 211 174.5 207.5 c 128,-1,46
 168 204 168 204 154.5 197 c 128,-1,47
 141 190 141 190 137 188 c 0,48,49
 74 154 74 154 76 120 c 0,50,51
 76 108 76 108 86.5 99.5 c 128,-1,52
 97 91 97 91 105.5 88.5 c 128,-1,53
 114 86 114 86 129 82 c 0,54,55
 132 82 132 82 137 80 c 0,56,57
 159 75 159 75 170.5 71.5 c 128,-1,58
 182 68 182 68 199.5 61 c 128,-1,59
 217 54 217 54 229 43.5 c 128,-1,60
 241 33 241 33 250 19 c 1,61,62
 268 -18 268 -18 253 -51.5 c 128,-1,63
 238 -85 238 -85 203 -101 c 0,64,65
 166 -119 166 -119 119.5 -127.5 c 128,-1,66
 73 -136 73 -136 24 -129.5 c 128,-1,67
 -25 -123 -25 -123 -55 -97 c 0,68,69
 -81 -74 -81 -74 -82.5 -44.5 c 128,-1,70
 -84 -15 -84 -15 -67.5 10 c 128,-1,71
 -51 35 -51 35 -24 53 c 128,-1,72
 3 71 3 71 31 73 c 1,73,74
 29 85 29 85 29 95 c 128,-1,75
 29 105 29 105 30 113.5 c 128,-1,76
 31 122 31 122 35 130 c 128,-1,77
 39 138 39 138 42.5 144 c 128,-1,78
 46 150 46 150 53 157 c 128,-1,79
 60 164 60 164 65 168.5 c 128,-1,80
 70 173 70 173 79.5 179.5 c 128,-1,81
 89 186 89 186 94.5 189.5 c 128,-1,82
 100 193 100 193 111 200 c 0,83,84
 118 204 118 204 121 206 c 1,30,31
EndSplineSet
EndChar

StartChar: h
Encoding: 104 104 75
Width: 323
Flags: W
LayerCount: 2
Fore
SplineSet
141 386 m 1,0,-1
 145 382 l 1,1,-1
 141 386 l 1,0,-1
102 765 m 1,2,3
 110 790 110 790 217 792 c 0,4,5
 221 792 221 792 223 792 c 1,6,7
 222 719 222 719 185.5 583 c 128,-1,8
 149 447 149 447 145 386 c 1,9,-1
 148 386 l 1,10,11
 160 411 160 411 180.5 435.5 c 128,-1,12
 201 460 201 460 225.5 477 c 128,-1,13
 250 494 250 494 275 487.5 c 128,-1,14
 300 481 300 481 316 445 c 1,15,16
 334 411 334 411 330 363.5 c 128,-1,17
 326 316 326 316 313.5 276 c 128,-1,18
 301 236 301 236 282 198 c 0,19,20
 254 143 254 143 223 127 c 1,21,22
 204 116 204 116 184.5 126 c 128,-1,23
 165 136 165 136 175 159 c 0,24,25
 179 170 179 170 189 176.5 c 128,-1,26
 199 183 199 183 213.5 188 c 128,-1,27
 228 193 228 193 234 197 c 0,28,29
 262 216 262 216 279 261 c 1,30,31
 309 346 309 346 277 402 c 0,32,33
 270 414 270 414 260 423.5 c 128,-1,34
 250 433 250 433 237 437 c 128,-1,35
 224 441 224 441 211 431 c 0,36,37
 181 409 181 409 158.5 373 c 128,-1,38
 136 337 136 337 122.5 289 c 128,-1,39
 109 241 109 241 102.5 206.5 c 128,-1,40
 96 172 96 172 90 124 c 1,41,-1
 39 124 l 1,42,-1
 172 757 l 1,43,-1
 102 765 l 1,2,3
EndSplineSet
EndChar

StartChar: i
Encoding: 105 105 76
Width: 208
Flags: W
LayerCount: 2
Fore
SplineSet
164 585 m 1,0,1
 169 607 169 607 172 617 c 128,-1,2
 175 627 175 627 182.5 640 c 128,-1,3
 190 653 190 653 201.5 658 c 128,-1,4
 213 663 213 663 230 663 c 1,5,6
 228 656 228 656 223.5 638 c 128,-1,7
 219 620 219 620 216.5 614.5 c 128,-1,8
 214 609 214 609 207.5 600 c 128,-1,9
 201 591 201 591 190.5 588 c 128,-1,10
 180 585 180 585 164 585 c 1,0,1
59 402 m 1,11,12
 65 408 65 408 79 424 c 128,-1,13
 93 440 93 440 102 448 c 0,14,15
 165 507 165 507 183 485 c 0,16,17
 189 479 189 479 188.5 466 c 128,-1,18
 188 453 188 453 185.5 443 c 128,-1,19
 183 433 183 433 177.5 416.5 c 128,-1,20
 172 400 172 400 172 398 c 0,21,22
 167 378 167 378 152 327.5 c 128,-1,23
 137 277 137 277 129 239 c 128,-1,24
 121 201 121 201 121 167 c 1,25,-1
 184 222 l 1,26,-1
 188 222 l 1,27,-1
 199 210 l 1,28,29
 187 193 187 193 160 167 c 0,30,31
 159 166 159 166 157 164 c 0,32,33
 106 112 106 112 83 125 c 0,34,35
 78 128 78 128 75 132 c 128,-1,36
 72 136 72 136 71 141.5 c 128,-1,37
 70 147 70 147 69.5 152.5 c 128,-1,38
 69 158 69 158 69.5 165.5 c 128,-1,39
 70 173 70 173 70.5 177.5 c 128,-1,40
 71 182 71 182 72.5 189 c 128,-1,41
 74 196 74 196 74 198 c 0,42,43
 79 227 79 227 87 261 c 128,-1,44
 95 295 95 295 100.5 318 c 128,-1,45
 106 341 106 341 117 382.5 c 128,-1,46
 128 424 128 424 133 441 c 1,47,48
 125 436 125 436 110.5 422 c 128,-1,49
 96 408 96 408 83.5 400.5 c 128,-1,50
 71 393 71 393 59 398 c 1,51,-1
 59 402 l 1,11,12
EndSplineSet
EndChar

StartChar: j
Encoding: 106 106 77
Width: 198
Flags: W
LayerCount: 2
Fore
SplineSet
176 585 m 1,0,1
 182 625 182 625 194 644 c 128,-1,2
 206 663 206 663 238 663 c 1,3,4
 238 661 238 661 235 648 c 128,-1,5
 232 635 232 635 231 632.5 c 128,-1,6
 230 630 230 630 227 620 c 128,-1,7
 224 610 224 610 222 607.5 c 128,-1,8
 220 605 220 605 215 598.5 c 128,-1,9
 210 592 210 592 205 590.5 c 128,-1,10
 200 589 200 589 192.5 587 c 128,-1,11
 185 585 185 585 176 585 c 1,0,1
172 585 m 1,12,-1
 176 581 l 1,13,-1
 172 585 l 1,12,-1
47 374 m 1,14,15
 73 419 73 419 112 453.5 c 128,-1,16
 151 488 151 488 195 491 c 1,17,18
 199 467 199 467 195 439.5 c 128,-1,19
 191 412 191 412 181 374 c 128,-1,20
 171 336 171 336 168 323 c 0,21,22
 163 301 163 301 156 259.5 c 128,-1,23
 149 218 149 218 143.5 188.5 c 128,-1,24
 138 159 138 159 129 119 c 128,-1,25
 120 79 120 79 109 48 c 128,-1,26
 98 17 98 17 82.5 -15.5 c 128,-1,27
 67 -48 67 -48 45 -74 c 128,-1,28
 23 -100 23 -100 -4 -119 c 0,29,30
 -28 -136 -28 -136 -52 -131.5 c 128,-1,31
 -76 -127 -76 -127 -83.5 -107.5 c 128,-1,32
 -91 -88 -91 -88 -78 -59 c 1,33,34
 -74 -63 -74 -63 -66 -71.5 c 128,-1,35
 -58 -80 -58 -80 -50.5 -85.5 c 128,-1,36
 -43 -91 -43 -91 -35 -92 c 0,37,38
 -21 -95 -21 -95 -8 -87 c 128,-1,39
 5 -79 5 -79 13.5 -67.5 c 128,-1,40
 22 -56 22 -56 30.5 -36.5 c 128,-1,41
 39 -17 39 -17 42.5 -7 c 128,-1,42
 46 3 46 3 51 19 c 0,43,44
 112 215 112 215 141 441 c 1,45,46
 134 437 134 437 100.5 406.5 c 128,-1,47
 67 376 67 376 47 374 c 1,14,15
EndSplineSet
EndChar

StartChar: k
Encoding: 107 107 78
Width: 333
Flags: W
LayerCount: 2
Fore
SplineSet
43 124 m 1,0,-1
 47 120 l 1,1,-1
 43 124 l 1,0,-1
145 347 m 1,2,3
 180 339 180 339 215 349.5 c 128,-1,4
 250 360 250 360 267 387 c 128,-1,5
 284 414 284 414 266 456 c 1,6,7
 230 444 230 444 198 414 c 128,-1,8
 166 384 166 384 145 347 c 1,2,3
113 769 m 1,9,-1
 117 765 l 1,10,-1
 113 769 l 1,9,-1
117 784 m 1,11,-1
 234 796 l 1,12,13
 232 736 232 736 218 666.5 c 128,-1,14
 204 597 204 597 182.5 514 c 128,-1,15
 161 431 161 431 152 386 c 1,16,17
 155 388 155 388 164 397.5 c 128,-1,18
 173 407 173 407 176.5 410 c 128,-1,19
 180 413 180 413 188 421.5 c 128,-1,20
 196 430 196 430 200.5 433.5 c 128,-1,21
 205 437 205 437 213 444 c 128,-1,22
 221 451 221 451 226.5 455 c 128,-1,23
 232 459 232 459 239.5 464.5 c 128,-1,24
 247 470 247 470 254 474 c 0,25,26
 286 495 286 495 300 491 c 0,27,28
 321 486 321 486 324.5 459.5 c 128,-1,29
 328 433 328 433 321 406.5 c 128,-1,30
 314 380 314 380 304 366 c 0,31,32
 292 348 292 348 268 339 c 128,-1,33
 244 330 244 330 227 328.5 c 128,-1,34
 210 327 210 327 180 327 c 1,35,-1
 270 175 l 1,36,-1
 320 116 l 1,37,-1
 244 124 l 1,38,-1
 212 179 l 1,39,-1
 137 320 l 1,40,-1
 133 320 l 1,41,-1
 105 179 l 1,42,-1
 91 128 l 1,43,-1
 47 124 l 1,44,-1
 78 284 l 1,45,-1
 148 620 l 1,46,-1
 176 769 l 1,47,-1
 117 769 l 1,48,-1
 117 784 l 1,11,-1
EndSplineSet
EndChar

StartChar: l
Encoding: 108 108 79
Width: 198
Flags: W
LayerCount: 2
Fore
SplineSet
230 804 m 1,0,-1
 234 800 l 1,1,-1
 230 804 l 1,0,-1
113 788 m 1,2,-1
 230 804 l 1,3,4
 234 792 234 792 234 777.5 c 128,-1,5
 234 763 234 763 231.5 746.5 c 128,-1,6
 229 730 229 730 226.5 717 c 128,-1,7
 224 704 224 704 219.5 686 c 128,-1,8
 215 668 215 668 213 659 c 2,9,-1
 148 339 l 2,10,11
 146 330 146 330 140.5 312.5 c 128,-1,12
 135 295 135 295 130.5 278 c 128,-1,13
 126 261 126 261 122.5 243 c 128,-1,14
 119 225 119 225 119 209 c 128,-1,15
 119 193 119 193 125 184 c 0,16,17
 134 168 134 168 166.5 188 c 128,-1,18
 199 208 199 208 215 226 c 1,19,-1
 219 226 l 1,20,21
 218 217 218 217 215 209 c 128,-1,22
 212 201 212 201 205 193 c 128,-1,23
 198 185 198 185 193 179.5 c 128,-1,24
 188 174 188 174 176.5 166 c 128,-1,25
 165 158 165 158 160.5 155 c 128,-1,26
 156 152 156 152 143.5 144 c 128,-1,27
 131 136 131 136 129 135 c 0,28,29
 113 122 113 122 95.5 124 c 128,-1,30
 78 126 78 126 72 148 c 0,31,32
 69 160 69 160 68.5 174.5 c 128,-1,33
 68 189 68 189 70.5 205 c 128,-1,34
 73 221 73 221 76 234.5 c 128,-1,35
 79 248 79 248 83.5 265.5 c 128,-1,36
 88 283 88 283 90 292 c 2,37,-1
 155 609 l 1,38,-1
 177 722 l 2,39,40
 178 723 178 723 180 732 c 128,-1,41
 182 741 182 741 182.5 745.5 c 128,-1,42
 183 750 183 750 182 756.5 c 128,-1,43
 181 763 181 763 177 766 c 0,44,45
 171 772 171 772 159.5 773.5 c 128,-1,46
 148 775 148 775 129.5 774 c 128,-1,47
 111 773 111 773 109 773 c 1,48,-1
 113 788 l 1,2,-1
EndSplineSet
EndChar

StartChar: m
Encoding: 109 109 80
Width: 573
Flags: W
LayerCount: 2
Fore
SplineSet
27 382 m 1,0,1
 105 459 105 459 109 464 c 1,2,3
 138 490 138 490 152 489 c 0,4,5
 189 486 189 486 158 379 c 0,6,7
 157 376 157 376 156 374 c 1,8,9
 160 377 160 377 175 389.5 c 128,-1,10
 190 402 190 402 195 406 c 128,-1,11
 200 410 200 410 213.5 420.5 c 128,-1,12
 227 431 227 431 234.5 436 c 128,-1,13
 242 441 242 441 253.5 449 c 128,-1,14
 265 457 265 457 275.5 463 c 128,-1,15
 286 469 286 469 297 475 c 2,16,17
 297 475 297 475 302 477.5 c 128,-1,18
 307 480 307 480 309 481 c 128,-1,19
 311 482 311 482 316 484.5 c 128,-1,20
 321 487 321 487 323.5 487.5 c 128,-1,21
 326 488 326 488 330.5 489.5 c 128,-1,22
 335 491 335 491 338 490.5 c 128,-1,23
 341 490 341 490 344.5 489.5 c 128,-1,24
 348 489 348 489 351 487 c 128,-1,25
 354 485 354 485 356 482 c 0,26,27
 363 474 363 474 364.5 459.5 c 128,-1,28
 366 445 366 445 363 432 c 128,-1,29
 360 419 360 419 356 402 c 128,-1,30
 352 385 352 385 352 378 c 1,31,32
 385 407 385 407 422 433 c 0,33,34
 442 448 442 448 469 464 c 0,35,36
 516 493 516 493 536 478.5 c 128,-1,37
 556 464 556 464 544 409 c 2,38,-1
 512 257 l 1,39,40
 512 252 512 252 508 236.5 c 128,-1,41
 504 221 504 221 503.5 216 c 128,-1,42
 503 211 503 211 502 195.5 c 128,-1,43
 501 180 501 180 504 175 c 1,44,-1
 562 214 l 1,45,46
 555 191 555 191 535 167.5 c 128,-1,47
 515 144 515 144 492 130 c 0,48,49
 480 122 480 122 465.5 123.5 c 128,-1,50
 451 125 451 125 447 140 c 0,51,52
 445 146 445 146 444.5 153 c 128,-1,53
 444 160 444 160 445 168.5 c 128,-1,54
 446 177 446 177 447 182 c 128,-1,55
 448 187 448 187 450.5 197 c 128,-1,56
 453 207 453 207 454 210 c 2,57,-1
 483 351 l 2,58,59
 484 354 484 354 487.5 369 c 128,-1,60
 491 384 491 384 493.5 394.5 c 128,-1,61
 496 405 496 405 495.5 417 c 128,-1,62
 495 429 495 429 489 434 c 0,63,64
 471 451 471 451 398 391 c 0,65,66
 378 374 378 374 362 347.5 c 128,-1,67
 346 321 346 321 337 298.5 c 128,-1,68
 328 276 328 276 319.5 237.5 c 128,-1,69
 311 199 311 199 308.5 181.5 c 128,-1,70
 306 164 306 164 301 124 c 1,71,-1
 254 124 l 1,72,73
 257 151 257 151 280 253 c 1,74,-1
 296 335 l 2,75,76
 297 340 297 340 301.5 357 c 128,-1,77
 306 374 306 374 309 387 c 128,-1,78
 312 400 312 400 312 414.5 c 128,-1,79
 312 429 312 429 306 435 c 0,80,81
 295 447 295 447 262 427 c 0,82,83
 196 388 196 388 167 347 c 0,84,85
 143 314 143 314 129.5 236 c 128,-1,86
 116 158 116 158 109 140 c 0,87,88
 107 134 107 134 103.5 130 c 128,-1,89
 100 126 100 126 93.5 125 c 128,-1,90
 87 124 87 124 82.5 123.5 c 128,-1,91
 78 123 78 123 69.5 123.5 c 128,-1,92
 61 124 61 124 59 124 c 1,93,94
 61 134 61 134 69.5 166 c 128,-1,95
 78 198 78 198 81.5 212 c 128,-1,96
 85 226 85 226 92 255.5 c 128,-1,97
 99 285 99 285 102.5 303.5 c 128,-1,98
 106 322 106 322 110.5 347 c 128,-1,99
 115 372 115 372 117.5 394 c 128,-1,100
 120 416 120 416 121 437 c 1,101,-1
 35 366 l 1,102,-1
 27 378 l 1,103,-1
 27 382 l 1,0,1
EndSplineSet
EndChar

StartChar: n
Encoding: 110 110 81
Width: 396
Flags: W
LayerCount: 2
Fore
SplineSet
51 405 m 1,0,1
 56 411 56 411 69.5 424.5 c 128,-1,2
 83 438 83 438 90.5 445.5 c 128,-1,3
 98 453 98 453 110 463.5 c 128,-1,4
 122 474 122 474 133 480 c 0,5,6
 161 498 161 498 172 485 c 1,7,8
 181 476 181 476 181 456 c 128,-1,9
 181 436 181 436 175.5 416.5 c 128,-1,10
 170 397 170 397 163.5 374.5 c 128,-1,11
 157 352 157 352 156 343 c 1,12,13
 162 349 162 349 187 376 c 128,-1,14
 212 403 212 403 227 417 c 0,15,16
 248 437 248 437 273 455 c 0,17,18
 276 457 276 457 284 463 c 128,-1,19
 292 469 292 469 297.5 472.5 c 128,-1,20
 303 476 303 476 312 481 c 128,-1,21
 321 486 321 486 327.5 488 c 128,-1,22
 334 490 334 490 341.5 489.5 c 128,-1,23
 349 489 349 489 354.5 485 c 128,-1,24
 360 481 360 481 363.5 473.5 c 128,-1,25
 367 466 367 466 368 460 c 128,-1,26
 369 454 369 454 368 443 c 128,-1,27
 367 432 367 432 366 427 c 128,-1,28
 365 422 365 422 362.5 410.5 c 128,-1,29
 360 399 360 399 360 398 c 0,30,31
 356 374 356 374 344 325 c 128,-1,32
 332 276 332 276 325 237 c 128,-1,33
 318 198 318 198 316 163 c 1,34,-1
 375 214 l 1,35,-1
 379 214 l 1,36,-1
 387 206 l 1,37,-1
 387 202 l 1,38,39
 382 197 382 197 367 180.5 c 128,-1,40
 352 164 352 164 344 155 c 1,41,42
 326 138 326 138 307.5 129.5 c 128,-1,43
 289 121 289 121 276 130.5 c 128,-1,44
 263 140 263 140 266 171 c 0,45,46
 269 199 269 199 276 230.5 c 128,-1,47
 283 262 283 262 292.5 300 c 128,-1,48
 302 338 302 338 306 359 c 0,49,50
 317 414 317 414 306 427 c 0,51,52
 301 433 301 433 294.5 434 c 128,-1,53
 288 435 288 435 280.5 432 c 128,-1,54
 273 429 273 429 266.5 425.5 c 128,-1,55
 260 422 260 422 251.5 414 c 128,-1,56
 243 406 243 406 238.5 402 c 128,-1,57
 234 398 234 398 226.5 390 c 128,-1,58
 219 382 219 382 219 382 c 2,59,60
 203 366 203 366 190 347.5 c 128,-1,61
 177 329 177 329 168.5 317 c 128,-1,62
 160 305 160 305 150.5 279.5 c 128,-1,63
 141 254 141 254 137.5 246 c 128,-1,64
 134 238 134 238 126.5 205 c 128,-1,65
 119 172 119 172 118.5 168 c 128,-1,66
 118 164 118 164 109 124 c 1,67,-1
 59 124 l 1,68,69
 62 135 62 135 75.5 183 c 128,-1,70
 89 231 89 231 94.5 253 c 128,-1,71
 100 275 100 275 109.5 313.5 c 128,-1,72
 119 352 119 352 123.5 383.5 c 128,-1,73
 128 415 128 415 129 445 c 1,74,-1
 59 390 l 1,75,-1
 51 402 l 1,76,-1
 51 405 l 1,0,1
EndSplineSet
EndChar

StartChar: o
Encoding: 111 111 82
Width: 313
Flags: W
LayerCount: 2
Fore
SplineSet
164 446 m 0,0,1
 139 439 139 439 121 394 c 1,2,3
 85 311 85 311 113 222 c 0,4,5
 123 192 123 192 145 174.5 c 128,-1,6
 167 157 167 157 195 165 c 0,7,8
 219 171 219 171 241 218 c 0,9,10
 261 260 261 260 265 305 c 128,-1,11
 269 350 269 350 254 394 c 1,12,13
 242 422 242 422 217 438 c 128,-1,14
 192 454 192 454 164 446 c 0,0,1
195 489 m 0,15,16
 237 499 237 499 267 466.5 c 128,-1,17
 297 434 297 434 305 390 c 0,18,19
 316 334 316 334 295 272.5 c 128,-1,20
 274 211 274 211 234 167 c 0,21,22
 233 166 233 166 225.5 157.5 c 128,-1,23
 218 149 218 149 214.5 146 c 128,-1,24
 211 143 211 143 204.5 136.5 c 128,-1,25
 198 130 198 130 192 127 c 128,-1,26
 186 124 186 124 180 122 c 0,27,28
 146 113 146 113 117.5 130.5 c 128,-1,29
 89 148 89 148 74 176.5 c 128,-1,30
 59 205 59 205 54 238 c 0,31,32
 46 283 46 283 61 337 c 128,-1,33
 76 391 76 391 112.5 435 c 128,-1,34
 149 479 149 479 195 489 c 0,15,16
EndSplineSet
EndChar

StartChar: p
Encoding: 112 112 83
Width: 333
Flags: W
LayerCount: 2
Fore
SplineSet
238 442 m 0,0,1
 216 439 216 439 199 427.5 c 128,-1,2
 182 416 182 416 172 403 c 128,-1,3
 162 390 162 390 154.5 367 c 128,-1,4
 147 344 147 344 144 329 c 128,-1,5
 141 314 141 314 137 287 c 128,-1,6
 133 260 133 260 130 249 c 1,7,8
 127 232 127 232 125.5 222 c 128,-1,9
 124 212 124 212 124 196 c 128,-1,10
 124 180 124 180 129 171.5 c 128,-1,11
 134 163 134 163 145.5 156.5 c 128,-1,12
 157 150 157 150 176 152 c 0,13,14
 205 154 205 154 227 177.5 c 128,-1,15
 249 201 249 201 260.5 236.5 c 128,-1,16
 272 272 272 272 277.5 302 c 128,-1,17
 283 332 283 332 285 362 c 0,18,19
 286 376 286 376 285 389 c 128,-1,20
 284 402 284 402 279.5 415.5 c 128,-1,21
 275 429 275 429 264.5 436.5 c 128,-1,22
 254 444 254 444 238 442 c 0,0,1
164 425 m 1,23,-1
 168 421 l 1,24,-1
 164 425 l 1,23,-1
31 382 m 1,25,26
 59 445 59 445 125 491 c 0,27,28
 165 520 165 520 176 505 c 0,29,30
 181 499 181 499 181 487.5 c 128,-1,31
 181 476 181 476 178.5 466 c 128,-1,32
 176 456 176 456 172.5 443.5 c 128,-1,33
 169 431 169 431 168 425 c 1,34,35
 172 427 172 427 210 457.5 c 128,-1,36
 248 488 248 488 270 489 c 0,37,38
 293 491 293 491 309 469 c 128,-1,39
 325 447 325 447 330.5 421.5 c 128,-1,40
 336 396 336 396 336 374 c 0,41,42
 335 330 335 330 318 281 c 128,-1,43
 301 232 301 232 271 190.5 c 128,-1,44
 241 149 241 149 199 132 c 128,-1,45
 157 115 157 115 105 136 c 1,46,47
 103 112 103 112 97.5 84.5 c 128,-1,48
 92 57 92 57 83 23 c 128,-1,49
 74 -11 74 -11 70 -28 c 0,50,51
 58 -82 58 -82 69 -98 c 0,52,53
 76 -108 76 -108 92 -112.5 c 128,-1,54
 108 -117 108 -117 116 -117.5 c 128,-1,55
 124 -118 124 -118 145 -118 c 1,56,-1
 145 -134 l 1,57,-1
 -51 -134 l 1,58,-1
 -51 -118 l 1,59,60
 -32 -116 -32 -116 -19 -108.5 c 128,-1,61
 -6 -101 -6 -101 1.5 -92.5 c 128,-1,62
 9 -84 9 -84 14.5 -69.5 c 128,-1,63
 20 -55 20 -55 22 -43.5 c 128,-1,64
 24 -32 24 -32 27 -12.5 c 128,-1,65
 30 7 30 7 33 19 c 0,66,67
 41 57 41 57 64.5 149.5 c 128,-1,68
 88 242 88 242 102 312 c 128,-1,69
 116 382 116 382 121 445 c 1,70,-1
 31 382 l 1,25,26
EndSplineSet
EndChar

StartChar: q
Encoding: 113 113 84
Width: 323
Flags: W
LayerCount: 2
Fore
SplineSet
266 445 m 1,0,1
 187 438 187 438 149 396.5 c 128,-1,2
 111 355 111 355 96 273 c 0,3,4
 96 271 96 271 93.5 259.5 c 128,-1,5
 91 248 91 248 90 242 c 128,-1,6
 89 236 89 236 88 224 c 128,-1,7
 87 212 87 212 87.5 204.5 c 128,-1,8
 88 197 88 197 90 189.5 c 128,-1,9
 92 182 92 182 97 177 c 0,10,11
 101 173 101 173 106.5 172 c 128,-1,12
 112 171 112 171 119 173.5 c 128,-1,13
 126 176 126 176 132 179 c 128,-1,14
 138 182 138 182 145.5 188 c 128,-1,15
 153 194 153 194 157.5 197.5 c 128,-1,16
 162 201 162 201 168.5 206.5 c 128,-1,17
 175 212 175 212 176 213 c 0,18,19
 179 216 179 216 188.5 223.5 c 128,-1,20
 198 231 198 231 203.5 235.5 c 128,-1,21
 209 240 209 240 215.5 247.5 c 128,-1,22
 222 255 222 255 227 261 c 1,23,24
 255 306 255 306 266 445 c 1,0,1
223 234 m 1,25,26
 182 195 182 195 152 172 c 0,27,28
 151 171 151 171 145 166 c 128,-1,29
 139 161 139 161 135.5 158 c 128,-1,30
 132 155 132 155 125.5 150.5 c 128,-1,31
 119 146 119 146 114.5 143 c 128,-1,32
 110 140 110 140 103.5 136 c 128,-1,33
 97 132 97 132 91.5 130 c 128,-1,34
 86 128 86 128 80 126.5 c 128,-1,35
 74 125 74 125 68.5 125 c 128,-1,36
 63 125 63 125 59 127 c 0,37,38
 18 142 18 142 43 253 c 1,39,40
 60 321 60 321 97.5 376.5 c 128,-1,41
 135 432 135 432 191 464 c 0,42,43
 207 473 207 473 229.5 481.5 c 128,-1,44
 252 490 252 490 279.5 494 c 128,-1,45
 307 498 307 498 318 485 c 0,46,47
 324 479 324 479 325 466 c 128,-1,48
 326 453 326 453 322.5 437 c 128,-1,49
 319 421 319 421 315.5 406 c 128,-1,50
 312 391 312 391 307.5 375.5 c 128,-1,51
 303 360 303 360 302 355 c 2,52,-1
 227 -5 l 2,53,54
 226 -13 226 -13 221.5 -30 c 128,-1,55
 217 -47 217 -47 214.5 -57 c 128,-1,56
 212 -67 212 -67 211.5 -80.5 c 128,-1,57
 211 -94 211 -94 215 -102 c 128,-1,58
 219 -110 219 -110 229.5 -116 c 128,-1,59
 240 -122 240 -122 258 -122 c 1,60,61
 255 -129 255 -129 249.5 -132.5 c 128,-1,62
 244 -136 244 -136 239 -136 c 128,-1,63
 234 -136 234 -136 224.5 -135 c 128,-1,64
 215 -134 215 -134 211 -134 c 0,65,66
 164 -134 164 -134 70 -134 c 1,67,-1
 70 -122 l 1,68,69
 71 -122 71 -122 82 -121.5 c 128,-1,70
 93 -121 93 -121 97 -121 c 128,-1,71
 101 -121 101 -121 110 -119.5 c 128,-1,72
 119 -118 119 -118 124.5 -116.5 c 128,-1,73
 130 -115 130 -115 136 -112 c 128,-1,74
 142 -109 142 -109 146 -105 c 0,75,76
 155 -95 155 -95 160.5 -78.5 c 128,-1,77
 166 -62 166 -62 169.5 -36 c 128,-1,78
 173 -10 173 -10 174 -5 c 2,79,-1
 223 234 l 1,25,26
EndSplineSet
EndChar

StartChar: r
Encoding: 114 114 85
Width: 302
Flags: W
LayerCount: 2
Fore
SplineSet
176 335 m 1,0,-1
 176 323 l 1,1,-1
 180 323 l 1,2,-1
 176 335 l 1,0,-1
172 495 m 1,3,4
 193 479 193 479 196 453 c 128,-1,5
 199 427 199 427 189.5 386 c 128,-1,6
 180 345 180 345 180 335 c 1,7,-1
 184 335 l 1,8,9
 195 375 195 375 221 417.5 c 128,-1,10
 247 460 247 460 277 481 c 1,11,12
 291 488 291 488 308 488.5 c 128,-1,13
 325 489 325 489 336.5 478 c 128,-1,14
 348 467 348 467 341 448 c 0,15,16
 336 432 336 432 318.5 427 c 128,-1,17
 301 422 301 422 279.5 418 c 128,-1,18
 258 414 258 414 247 402 c 0,19,20
 202 350 202 350 172.5 275 c 128,-1,21
 143 200 143 200 137 128 c 1,22,-1
 90 128 l 1,23,24
 93 169 93 169 112 244.5 c 128,-1,25
 131 320 131 320 135 343 c 0,26,27
 135 345 135 345 137.5 354.5 c 128,-1,28
 140 364 140 364 141.5 371.5 c 128,-1,29
 143 379 143 379 144 388.5 c 128,-1,30
 145 398 145 398 142.5 404.5 c 128,-1,31
 140 411 140 411 135 413 c 0,32,33
 129 416 129 416 119.5 411.5 c 128,-1,34
 110 407 110 407 99.5 397.5 c 128,-1,35
 89 388 89 388 80.5 379 c 128,-1,36
 72 370 72 370 62.5 359.5 c 128,-1,37
 53 349 53 349 51 347 c 1,38,-1
 47 347 l 1,39,-1
 39 355 l 1,40,-1
 39 359 l 1,41,-1
 172 495 l 1,3,4
EndSplineSet
EndChar

StartChar: s
Encoding: 115 115 86
Width: 250
Flags: W
LayerCount: 2
Fore
SplineSet
59 210 m 1,0,1
 68 179 68 179 90.5 166 c 128,-1,2
 113 153 113 153 138 163 c 128,-1,3
 163 173 163 173 178 202 c 0,4,5
 191 228 191 228 158 269 c 0,6,7
 152 277 152 277 135.5 294 c 128,-1,8
 119 311 119 311 110 322 c 128,-1,9
 101 333 101 333 93 351 c 128,-1,10
 85 369 85 369 86 386 c 0,11,12
 88 426 88 426 120 453 c 128,-1,13
 152 480 152 480 195 491 c 1,14,15
 256 505 256 505 262 476 c 0,16,17
 265 461 265 461 258.5 446.5 c 128,-1,18
 252 432 252 432 238 433 c 0,19,20
 230 433 230 433 214.5 437 c 128,-1,21
 199 441 199 441 186.5 443.5 c 128,-1,22
 174 446 174 446 161 445.5 c 128,-1,23
 148 445 148 445 139 436 c 128,-1,24
 130 427 130 427 127 409 c 0,25,26
 125 399 125 399 131 386 c 128,-1,27
 137 373 137 373 143.5 365 c 128,-1,28
 150 357 150 357 163.5 343 c 128,-1,29
 177 329 177 329 179 327 c 0,30,31
 204 300 204 300 214.5 271 c 128,-1,32
 225 242 225 242 218 211.5 c 128,-1,33
 211 181 211 181 184 155 c 1,34,35
 163 137 163 137 133 127 c 0,36,37
 89 113 89 113 52 134 c 0,38,39
 14 156 14 156 39 190 c 0,40,41
 46 200 46 200 59 210 c 1,0,1
EndSplineSet
EndChar

StartChar: t
Encoding: 116 116 87
Width: 219
Flags: W
LayerCount: 2
Fore
SplineSet
152 573 m 1,0,-1
 203 581 l 1,1,-1
 180 480 l 1,2,-1
 254 480 l 1,3,4
 251 469 251 469 245 462.5 c 128,-1,5
 239 456 239 456 229.5 453.5 c 128,-1,6
 220 451 220 451 212.5 451 c 128,-1,7
 205 451 205 451 191.5 451.5 c 128,-1,8
 178 452 178 452 172 452 c 1,9,-1
 117 167 l 1,10,-1
 184 230 l 1,11,-1
 203 222 l 1,12,13
 180 191 180 191 160 171 c 0,14,15
 111 122 111 122 84 126 c 0,16,17
 64 129 64 129 66 167 c 0,18,19
 67 177 67 177 71 198 c 0,20,21
 80 245 80 245 100.5 330.5 c 128,-1,22
 121 416 121 416 129 452 c 1,23,-1
 78 452 l 1,24,-1
 82 476 l 1,25,26
 144 481 144 481 152 573 c 1,0,-1
EndSplineSet
EndChar

StartChar: u
Encoding: 117 117 88
Width: 406
Flags: W
LayerCount: 2
Fore
SplineSet
27 362 m 1,0,1
 38 387 38 387 73 429 c 0,2,3
 93 452 93 452 105 463 c 1,4,5
 119 474 119 474 132.5 481.5 c 128,-1,6
 146 489 146 489 159 490.5 c 128,-1,7
 172 492 172 492 178.5 481.5 c 128,-1,8
 185 471 185 471 183 448 c 0,9,10
 180 415 180 415 165 352 c 128,-1,11
 150 289 150 289 148 277 c 0,12,13
 147 276 147 276 145.5 268 c 128,-1,14
 144 260 144 260 143 253.5 c 128,-1,15
 142 247 142 247 140.5 237.5 c 128,-1,16
 139 228 139 228 139 221 c 128,-1,17
 139 214 139 214 139.5 207.5 c 128,-1,18
 140 201 140 201 143.5 198 c 128,-1,19
 147 195 147 195 152 197 c 0,20,21
 160 199 160 199 168.5 206 c 128,-1,22
 177 213 177 213 182 218.5 c 128,-1,23
 187 224 187 224 196 235.5 c 128,-1,24
 205 247 205 247 207 249 c 0,25,26
 270 325 270 325 315 409 c 0,27,28
 319 417 319 417 325 430.5 c 128,-1,29
 331 444 331 444 335.5 452 c 128,-1,30
 340 460 340 460 347 469 c 128,-1,31
 354 478 354 478 363.5 483.5 c 128,-1,32
 373 489 373 489 387 491 c 1,33,34
 387 457 387 457 380.5 421.5 c 128,-1,35
 374 386 374 386 360 333 c 128,-1,36
 346 280 346 280 342 265 c 0,37,38
 342 262 342 262 339 251 c 128,-1,39
 336 240 336 240 334 231.5 c 128,-1,40
 332 223 332 223 330 212 c 128,-1,41
 328 201 328 201 328.5 193 c 128,-1,42
 329 185 329 185 332 181 c 0,43,44
 347 160 347 160 395 222 c 1,45,-1
 410 218 l 1,46,47
 401 194 401 194 377.5 170.5 c 128,-1,48
 354 147 354 147 328 131 c 1,49,50
 314 121 314 121 298.5 125 c 128,-1,51
 283 129 283 129 279 148 c 1,52,53
 278 163 278 163 278.5 169.5 c 128,-1,54
 279 176 279 176 283 192.5 c 128,-1,55
 287 209 287 209 288 214 c 0,56,57
 309 335 309 335 320 378 c 1,58,-1
 316 378 l 1,59,60
 269 268 269 268 164 163 c 0,61,62
 159 158 159 158 154 153.5 c 128,-1,63
 149 149 149 149 140 141.5 c 128,-1,64
 131 134 131 134 123 129.5 c 128,-1,65
 115 125 115 125 106.5 122 c 128,-1,66
 98 119 98 119 91 121.5 c 128,-1,67
 84 124 84 124 80 132 c 0,68,69
 77 139 77 139 76 148 c 128,-1,70
 75 157 75 157 76.5 168 c 128,-1,71
 78 179 78 179 79 186.5 c 128,-1,72
 80 194 80 194 83 206 c 128,-1,73
 86 218 86 218 87 222 c 0,74,75
 90 241 90 241 103 287.5 c 128,-1,76
 116 334 116 334 122 370.5 c 128,-1,77
 128 407 128 407 125 437 c 1,78,-1
 27 362 l 1,0,1
EndSplineSet
EndChar

StartChar: v
Encoding: 118 118 89
Width: 344
Flags: W
LayerCount: 2
Fore
SplineSet
39 398 m 1,0,1
 40 399 40 399 50.5 418.5 c 128,-1,2
 61 438 61 438 68 448 c 128,-1,3
 75 458 75 458 87 472.5 c 128,-1,4
 99 487 99 487 111.5 492 c 128,-1,5
 124 497 124 497 137 493 c 0,6,7
 145 490 145 490 151 479.5 c 128,-1,8
 157 469 157 469 159 461 c 128,-1,9
 161 453 161 453 163.5 436 c 128,-1,10
 166 419 166 419 166 417 c 0,11,12
 170 397 170 397 181.5 345.5 c 128,-1,13
 193 294 193 294 199 256 c 128,-1,14
 205 218 205 218 207 183 c 1,15,16
 248 211 248 211 279 260 c 128,-1,17
 310 309 310 309 312 355 c 0,18,19
 313 367 313 367 304.5 389.5 c 128,-1,20
 296 412 296 412 288 429 c 128,-1,21
 280 446 280 446 283 463 c 128,-1,22
 286 480 286 480 305 487 c 0,23,24
 321 493 321 493 331.5 481 c 128,-1,25
 342 469 342 469 344.5 448.5 c 128,-1,26
 347 428 347 428 348 408 c 128,-1,27
 349 388 349 388 346 378 c 1,28,29
 331 275 331 275 242 175 c 0,30,31
 240 173 240 173 234 166.5 c 128,-1,32
 228 160 228 160 226 157.5 c 128,-1,33
 224 155 224 155 218 149 c 128,-1,34
 212 143 212 143 208.5 140.5 c 128,-1,35
 205 138 205 138 199.5 133.5 c 128,-1,36
 194 129 194 129 189.5 127 c 128,-1,37
 185 125 185 125 179.5 123 c 128,-1,38
 174 121 174 121 168 120 c 1,39,40
 165 143 165 143 128 366 c 0,41,42
 127 369 127 369 125.5 384 c 128,-1,43
 124 399 124 399 122.5 409.5 c 128,-1,44
 121 420 121 420 116.5 430.5 c 128,-1,45
 112 441 112 441 105 443 c 0,46,47
 98 444 98 444 91.5 440.5 c 128,-1,48
 85 437 85 437 78.5 429 c 128,-1,49
 72 421 72 421 67.5 414 c 128,-1,50
 63 407 63 407 57.5 398 c 128,-1,51
 52 389 52 389 51 386 c 1,52,-1
 39 394 l 1,53,-1
 39 398 l 1,0,1
EndSplineSet
EndChar

StartChar: w
Encoding: 119 119 90
Width: 563
Flags: W
LayerCount: 2
Fore
SplineSet
51 374 m 1,0,1
 42 381 42 381 42.5 395 c 128,-1,2
 43 409 43 409 52 426.5 c 128,-1,3
 61 444 61 444 73.5 459.5 c 128,-1,4
 86 475 86 475 100.5 485 c 128,-1,5
 115 495 115 495 125 493 c 0,6,7
 132 492 132 492 138 486 c 128,-1,8
 144 480 144 480 147.5 470 c 128,-1,9
 151 460 151 460 153 452 c 128,-1,10
 155 444 155 444 157 432.5 c 128,-1,11
 159 421 159 421 160 417 c 0,12,13
 165 393 165 393 174.5 343.5 c 128,-1,14
 184 294 184 294 193 255 c 128,-1,15
 202 216 202 216 215 183 c 1,16,-1
 326 359 l 1,17,-1
 314 448 l 1,18,-1
 348 495 l 1,19,-1
 352 495 l 1,20,-1
 430 187 l 1,21,22
 439 206 439 206 482.5 264 c 128,-1,23
 526 322 526 322 535 362 c 0,24,25
 540 383 540 383 534 395.5 c 128,-1,26
 528 408 528 408 516.5 420 c 128,-1,27
 505 432 505 432 502 445 c 0,28,29
 502 449 502 449 501.5 451.5 c 128,-1,30
 501 454 501 454 503.5 459.5 c 128,-1,31
 506 465 506 465 507 467.5 c 128,-1,32
 508 470 508 470 512 475.5 c 128,-1,33
 516 481 516 481 517.5 483 c 128,-1,34
 519 485 519 485 522.5 489.5 c 128,-1,35
 526 494 526 494 527 495 c 1,36,-1
 531 495 l 1,37,38
 556 475 556 475 567 450 c 128,-1,39
 578 425 578 425 574.5 398 c 128,-1,40
 571 371 571 371 563.5 346.5 c 128,-1,41
 556 322 556 322 537 292.5 c 128,-1,42
 518 263 518 263 505 245 c 128,-1,43
 492 227 492 227 472 202 c 0,44,45
 469 199 469 199 455 180.5 c 128,-1,46
 441 162 441 162 433.5 153.5 c 128,-1,47
 426 145 426 145 412.5 134.5 c 128,-1,48
 399 124 399 124 387 120 c 1,49,-1
 340 331 l 1,50,51
 295 259 295 259 234 175 c 0,52,53
 232 172 232 172 225 162 c 128,-1,54
 218 152 218 152 214 147 c 128,-1,55
 210 142 210 142 203.5 135.5 c 128,-1,56
 197 129 197 129 190.5 125 c 128,-1,57
 184 121 184 121 176 120 c 1,58,59
 171 155 171 155 162.5 193.5 c 128,-1,60
 154 232 154 232 142.5 278.5 c 128,-1,61
 131 325 131 325 126 351 c 0,62,63
 125 354 125 354 123 368.5 c 128,-1,64
 121 383 121 383 119 393.5 c 128,-1,65
 117 404 117 404 112 415 c 128,-1,66
 107 426 107 426 100 429 c 256,67,68
 93 432 93 432 85.5 427 c 128,-1,69
 78 422 78 422 70 409.5 c 128,-1,70
 62 397 62 397 59 391 c 128,-1,71
 56 385 56 385 51 374 c 1,0,1
EndSplineSet
EndChar

StartChar: x
Encoding: 120 120 91
Width: 469
Flags: W
LayerCount: 2
Fore
SplineSet
168 495 m 1,0,1
 194 480 194 480 214 454.5 c 128,-1,2
 234 429 234 429 254.5 394.5 c 128,-1,3
 275 360 275 360 289 343 c 1,4,5
 311 390 311 390 351 437 c 128,-1,6
 391 484 391 484 430 490 c 0,7,8
 450 494 450 494 465.5 480.5 c 128,-1,9
 481 467 481 467 481 449.5 c 128,-1,10
 481 432 481 432 465 417 c 1,11,12
 448 444 448 444 425 442 c 128,-1,13
 402 440 402 440 376.5 417.5 c 128,-1,14
 351 395 351 395 332 370.5 c 128,-1,15
 313 346 313 346 305 328 c 1,16,17
 304 322 304 322 303.5 319 c 128,-1,18
 303 316 303 316 305.5 310 c 128,-1,19
 308 304 308 304 310 301 c 128,-1,20
 312 298 312 298 315.5 292 c 128,-1,21
 319 286 319 286 320 284 c 0,22,23
 322 281 322 281 335.5 256.5 c 128,-1,24
 349 232 349 232 356.5 219.5 c 128,-1,25
 364 207 364 207 378.5 192 c 128,-1,26
 393 177 393 177 406 174 c 0,27,28
 416 172 416 172 426 175.5 c 128,-1,29
 436 179 436 179 448 187.5 c 128,-1,30
 460 196 460 196 465 198 c 1,31,-1
 473 183 l 1,32,33
 469 180 469 180 448.5 162 c 128,-1,34
 428 144 428 144 412 133.5 c 128,-1,35
 396 123 396 123 383 124 c 1,36,37
 368 124 368 124 341 155 c 0,38,39
 291 213 291 213 270 273 c 1,40,41
 249 256 249 256 225 223 c 128,-1,42
 201 190 201 190 176.5 163.5 c 128,-1,43
 152 137 152 137 121 126 c 0,44,45
 78 111 78 111 46.5 135 c 128,-1,46
 15 159 15 159 35 202 c 1,47,48
 41 198 41 198 50.5 189.5 c 128,-1,49
 60 181 60 181 68.5 175 c 128,-1,50
 77 169 77 169 86 166 c 0,51,52
 103 161 103 161 120.5 166 c 128,-1,53
 138 171 138 171 156.5 187.5 c 128,-1,54
 175 204 175 204 183 212.5 c 128,-1,55
 191 221 191 221 208 241 c 0,56,57
 209 242 209 242 222.5 256.5 c 128,-1,58
 236 271 236 271 242.5 281 c 128,-1,59
 249 291 249 291 248 300 c 1,60,61
 248 332 248 332 179 409 c 0,62,63
 159 431 159 431 148 432 c 0,64,65
 141 432 141 432 132 426.5 c 128,-1,66
 123 421 123 421 116.5 415 c 128,-1,67
 110 409 110 409 101 399 c 128,-1,68
 92 389 92 389 90 386 c 1,69,-1
 86 386 l 1,70,-1
 74 394 l 1,71,72
 78 401 78 401 83 408.5 c 128,-1,73
 88 416 88 416 92.5 422 c 128,-1,74
 97 428 97 428 104.5 436 c 128,-1,75
 112 444 112 444 116 448 c 128,-1,76
 120 452 120 452 129.5 461 c 128,-1,77
 139 470 139 470 141.5 472.5 c 128,-1,78
 144 475 144 475 155.5 484.5 c 128,-1,79
 167 494 167 494 168 495 c 1,0,1
EndSplineSet
EndChar

StartChar: y
Encoding: 121 121 92
Width: 354
Flags: W
LayerCount: 2
Fore
SplineSet
47 347 m 1,0,1
 38 354 38 354 37.5 367 c 128,-1,2
 37 380 37 380 41.5 392.5 c 128,-1,3
 46 405 46 405 55 420 c 128,-1,4
 64 435 64 435 71.5 445 c 128,-1,5
 79 455 79 455 87 464 c 0,6,7
 110 491 110 491 125 488 c 0,8,9
 131 487 131 487 137.5 481.5 c 128,-1,10
 144 476 144 476 148 470.5 c 128,-1,11
 152 465 152 465 157 455 c 128,-1,12
 162 445 162 445 164 439 c 128,-1,13
 166 433 166 433 170 422 c 128,-1,14
 174 411 174 411 175 409 c 0,15,16
 191 363 191 363 205 274.5 c 128,-1,17
 219 186 219 186 230 148 c 1,18,19
 239 175 239 175 264 221.5 c 128,-1,20
 289 268 289 268 304 309.5 c 128,-1,21
 319 351 319 351 316 390 c 0,22,23
 314 413 314 413 300 422 c 0,24,25
 298 424 298 424 291 425.5 c 128,-1,26
 284 427 284 427 279.5 429.5 c 128,-1,27
 275 432 275 432 274 437 c 0,28,29
 273 451 273 451 291 470 c 128,-1,30
 309 489 309 489 324 489 c 0,31,32
 336 489 336 489 342 474 c 128,-1,33
 348 459 348 459 348 436.5 c 128,-1,34
 348 414 348 414 346.5 398 c 128,-1,35
 345 382 345 382 343 370 c 0,36,37
 317 220 317 220 188 46 c 0,38,39
 144 -13 144 -13 103.5 -55.5 c 128,-1,40
 63 -98 63 -98 16 -121 c 0,41,42
 -21 -138 -21 -138 -58 -126 c 0,43,44
 -97 -114 -97 -114 -73 -80 c 0,45,46
 -69 -74 -69 -74 -62 -67 c 1,47,-1
 -59 -67 l 1,48,49
 -39 -83 -39 -83 -18 -86 c 128,-1,50
 3 -89 3 -89 23 -80 c 128,-1,51
 43 -71 43 -71 59 -59 c 128,-1,52
 75 -47 75 -47 94 -28 c 0,53,54
 176 53 176 53 186 124 c 0,55,56
 188 136 188 136 188 149 c 128,-1,57
 188 162 188 162 186.5 177 c 128,-1,58
 185 192 185 192 183 203 c 128,-1,59
 181 214 181 214 176.5 231 c 128,-1,60
 172 248 172 248 170 256.5 c 128,-1,61
 168 265 168 265 162.5 284 c 128,-1,62
 157 303 157 303 155 308 c 0,63,64
 154 310 154 310 149.5 328.5 c 128,-1,65
 145 347 145 347 141.5 358.5 c 128,-1,66
 138 370 138 370 131.5 386 c 128,-1,67
 125 402 125 402 117.5 411.5 c 128,-1,68
 110 421 110 421 101 423 c 0,69,70
 85 428 85 428 69.5 399.5 c 128,-1,71
 54 371 54 371 47 347 c 1,0,1
EndSplineSet
EndChar

StartChar: z
Encoding: 122 122 93
Width: 344
Flags: W
LayerCount: 2
Fore
SplineSet
98 183 m 1,0,-1
 102 179 l 1,1,-1
 98 183 l 1,0,-1
125 374 m 1,2,3
 101 399 101 399 156 456 c 0,4,5
 181 482 181 482 212 487.5 c 128,-1,6
 243 493 243 493 268.5 486 c 128,-1,7
 294 479 294 479 326 479.5 c 128,-1,8
 358 480 358 480 383 495 c 1,9,10
 387 482 387 482 381 468 c 128,-1,11
 375 454 375 454 367.5 446 c 128,-1,12
 360 438 360 438 344 423.5 c 128,-1,13
 328 409 328 409 324 405 c 2,14,-1
 102 183 l 1,15,16
 128 188 128 188 178.5 176 c 128,-1,17
 229 164 229 164 254 168 c 0,18,19
 283 173 283 173 324 214 c 1,20,-1
 328 214 l 1,21,-1
 340 198 l 1,22,23
 331 191 331 191 307 169 c 128,-1,24
 283 147 283 147 264.5 136 c 128,-1,25
 246 125 246 125 223 121 c 1,26,27
 198 118 198 118 152.5 129.5 c 128,-1,28
 107 141 107 141 86 140 c 0,29,30
 72 139 72 139 45.5 129.5 c 128,-1,31
 19 120 19 120 4 120 c 1,32,-1
 109 230 l 1,33,-1
 312 433 l 1,34,35
 294 433 294 433 266.5 438.5 c 128,-1,36
 239 444 239 444 222 447 c 128,-1,37
 205 450 205 450 184 442 c 128,-1,38
 163 434 163 434 145 409 c 0,39,40
 134 393 134 393 125 374 c 1,2,3
EndSplineSet
EndChar

StartChar: braceleft
Encoding: 123 123 94
Width: 510
Flags: W
LayerCount: 2
Fore
SplineSet
148 335 m 1,0,1
 181 342 181 342 199 352 c 0,2,3
 229 367 229 367 243.5 390 c 128,-1,4
 258 413 258 413 258.5 440.5 c 128,-1,5
 259 468 259 468 255 494.5 c 128,-1,6
 251 521 251 521 246 553.5 c 128,-1,7
 241 586 241 586 242 609 c 0,8,9
 247 676 247 676 299.5 723.5 c 128,-1,10
 352 771 352 771 422 780 c 1,11,12
 420 769 420 769 411.5 762.5 c 128,-1,13
 403 756 403 756 388 750.5 c 128,-1,14
 373 745 373 745 367 741 c 0,15,16
 328 720 328 720 312 675 c 0,17,18
 309 665 309 665 309 652 c 128,-1,19
 309 639 309 639 310 631 c 128,-1,20
 311 623 311 623 314.5 606.5 c 128,-1,21
 318 590 318 590 319 585 c 0,22,23
 319 582 319 582 321 574 c 0,24,25
 326 543 326 543 328 526.5 c 128,-1,26
 330 510 330 510 329.5 484.5 c 128,-1,27
 329 459 329 459 321.5 438.5 c 128,-1,28
 314 418 314 418 298 398 c 0,29,30
 280 375 280 375 254 358 c 0,31,32
 221 335 221 335 188 327 c 1,33,-1
 188 323 l 1,34,35
 221 315 221 315 254 293 c 0,36,37
 279 276 279 276 298 253 c 0,38,39
 318 228 318 228 325 196.5 c 128,-1,40
 332 165 332 165 330 140 c 128,-1,41
 328 115 328 115 321 77 c 0,42,43
 320 72 320 72 316 53.5 c 128,-1,44
 312 35 312 35 310.5 26 c 128,-1,45
 309 17 309 17 309 2 c 128,-1,46
 309 -13 309 -13 312 -24 c 0,47,48
 327 -70 327 -70 371 -93 c 0,49,50
 376 -96 376 -96 390.5 -101.5 c 128,-1,51
 405 -107 405 -107 412.5 -113 c 128,-1,52
 420 -119 420 -119 422 -130 c 1,53,54
 352 -121 352 -121 299.5 -73.5 c 128,-1,55
 247 -26 247 -26 242 42 c 0,56,57
 241 65 241 65 246 97.5 c 128,-1,58
 251 130 251 130 255 156.5 c 128,-1,59
 259 183 259 183 258.5 210.5 c 128,-1,60
 258 238 258 238 243.5 261 c 128,-1,61
 229 284 229 284 199 299 c 0,62,63
 180 309 180 309 148 316 c 1,64,-1
 148 335 l 1,0,1
EndSplineSet
EndChar

StartChar: bar
Encoding: 124 124 95
Width: 531
Flags: W
LayerCount: 2
Fore
SplineSet
277 878 m 1,0,-1
 328 878 l 1,1,-1
 328 -122 l 1,2,-1
 277 -122 l 1,3,-1
 277 878 l 1,0,-1
EndSplineSet
EndChar

StartChar: braceright
Encoding: 125 125 96
Width: 510
Flags: W
LayerCount: 2
Fore
SplineSet
148 780 m 1,0,1
 221 766 221 766 272.5 721.5 c 128,-1,2
 324 677 324 677 331 609 c 0,3,4
 334 582 334 582 327 539.5 c 128,-1,5
 320 497 320 497 315.5 467 c 128,-1,6
 311 437 311 437 323 404.5 c 128,-1,7
 335 372 335 372 371 352 c 0,8,9
 388 342 388 342 422 335 c 1,10,-1
 422 316 l 1,11,12
 388 308 388 308 371 299 c 0,13,14
 336 279 336 279 323.5 247.5 c 128,-1,15
 311 216 311 216 315 187.5 c 128,-1,16
 319 159 319 159 326 117 c 128,-1,17
 333 75 333 75 332 50 c 0,18,19
 329 -20 329 -20 274.5 -70 c 128,-1,20
 220 -120 220 -120 148 -130 c 1,21,-1
 148 -110 l 1,22,23
 175 -106 175 -106 195 -95 c 0,24,25
 232 -75 232 -75 245.5 -41.5 c 128,-1,26
 259 -8 259 -8 255 22.5 c 128,-1,27
 251 53 251 53 244 97.5 c 128,-1,28
 237 142 237 142 238 167 c 0,29,30
 241 222 241 222 284 266 c 128,-1,31
 327 310 327 310 383 323 c 1,32,-1
 383 327 l 1,33,34
 327 341 327 341 284 385 c 128,-1,35
 241 429 241 429 238 484 c 0,36,37
 237 508 237 508 244 553 c 128,-1,38
 251 598 251 598 255 628.5 c 128,-1,39
 259 659 259 659 245.5 692.5 c 128,-1,40
 232 726 232 726 195 745 c 0,41,42
 173 757 173 757 148 761 c 1,43,-1
 148 780 l 1,0,1
EndSplineSet
EndChar

StartChar: asciitilde
Encoding: 126 126 97
Width: 667
Flags: W
LayerCount: 2
Fore
SplineSet
105 335 m 1,0,1
 105 372 105 372 119 402 c 1,2,3
 132 434 132 434 153.5 452.5 c 128,-1,4
 175 471 175 471 201.5 475 c 128,-1,5
 228 479 228 479 255.5 476 c 128,-1,6
 283 473 283 473 315.5 462 c 128,-1,7
 348 451 348 451 374 440 c 128,-1,8
 400 429 400 429 431 415 c 128,-1,9
 462 401 462 401 480 395 c 0,10,11
 539 373 539 373 583.5 395 c 128,-1,12
 628 417 628 417 641 480 c 1,13,-1
 664 480 l 1,14,15
 663 445 663 445 650.5 413.5 c 128,-1,16
 638 382 638 382 617.5 363.5 c 128,-1,17
 597 345 597 345 571 340.5 c 128,-1,18
 545 336 545 336 519 337.5 c 128,-1,19
 493 339 493 339 460.5 350 c 128,-1,20
 428 361 428 361 404 370.5 c 128,-1,21
 380 380 380 380 348 394 c 128,-1,22
 316 408 316 408 301 414 c 0,23,24
 251 433 251 433 223 433 c 1,25,26
 199 432 199 432 179 418 c 128,-1,27
 159 404 159 404 146 382 c 0,28,29
 143 376 143 376 137.5 361.5 c 128,-1,30
 132 347 132 347 125.5 341.5 c 128,-1,31
 119 336 119 336 105 335 c 1,0,1
EndSplineSet
EndChar

StartChar: uni00A0
Encoding: 160 160 98
Width: 240
Flags: W
LayerCount: 2
Fore
SplineSet
0 132 m 1,0,-1
 4 128 l 1,1,-1
 0 132 l 1,0,-1
EndSplineSet
EndChar

StartChar: exclamdown
Encoding: 161 161 99
Width: 167
Flags: W
LayerCount: 2
Fore
SplineSet
-16 -134 m 1,0,1
 -4 -79 -4 -79 28.5 28.5 c 128,-1,2
 61 136 61 136 72 191 c 0,3,4
 73 195 73 195 75.5 212 c 128,-1,5
 78 229 78 229 81 239.5 c 128,-1,6
 84 250 84 250 88.5 264 c 128,-1,7
 93 278 93 278 100.5 286.5 c 128,-1,8
 108 295 108 295 117 296 c 1,9,10
 115 247 115 247 94 155 c 128,-1,11
 73 63 73 63 68 23 c 0,12,13
 68 17 68 17 66.5 -19 c 128,-1,14
 65 -55 65 -55 60.5 -78.5 c 128,-1,15
 56 -102 56 -102 47 -116 c 0,16,17
 38 -129 38 -129 -16 -134 c 1,0,1
137 504 m 0,18,19
 165 514 165 514 169 483 c 0,20,21
 174 451 174 451 153 428 c 0,22,23
 146 419 146 419 137 416 c 0,24,25
 109 408 109 408 105 440 c 0,26,27
 101 473 101 473 123 495 c 0,28,29
 129 501 129 501 137 504 c 0,18,19
EndSplineSet
EndChar

StartChar: cent
Encoding: 162 162 100
Width: 292
Flags: W
LayerCount: 2
Fore
SplineSet
160 327 m 1,0,-1
 262 612 l 1,1,2
 243 612 243 612 227 605 c 128,-1,3
 211 598 211 598 200.5 588.5 c 128,-1,4
 190 579 190 579 180.5 561 c 128,-1,5
 171 543 171 543 166 530.5 c 128,-1,6
 161 518 161 518 155.5 493.5 c 128,-1,7
 150 469 150 469 148.5 459 c 128,-1,8
 147 449 147 449 143 425 c 0,9,10
 142 422 142 422 140 410.5 c 128,-1,11
 138 399 138 399 137.5 394 c 128,-1,12
 137 389 137 389 136 379 c 128,-1,13
 135 369 135 369 136.5 363 c 128,-1,14
 138 357 138 357 140 349.5 c 128,-1,15
 142 342 142 342 147.5 336.5 c 128,-1,16
 153 331 153 331 160 327 c 1,0,-1
312 745 m 1,17,-1
 332 738 l 1,18,-1
 301 655 l 1,19,20
 324 649 324 649 337 629 c 0,21,22
 350 610 350 610 323 600 c 1,23,24
 314 599 314 599 309.5 599 c 128,-1,25
 305 599 305 599 295 601.5 c 128,-1,26
 285 604 285 604 281 605 c 1,27,28
 273 550 273 550 230.5 444.5 c 128,-1,29
 188 339 188 339 184 327 c 1,30,-1
 270 370 l 1,31,-1
 273 370 l 1,32,-1
 285 355 l 1,33,-1
 171 287 l 1,34,-1
 113 136 l 1,35,-1
 94 140 l 1,36,-1
 148 288 l 1,37,38
 103 288 103 288 91 314 c 128,-1,39
 79 340 79 340 86 390 c 0,40,41
 95 453 95 453 120 513.5 c 128,-1,42
 145 574 145 574 185 616 c 0,43,44
 200 633 200 633 232.5 644.5 c 128,-1,45
 265 656 265 656 276 663 c 0,46,47
 285 669 285 669 291.5 683.5 c 128,-1,48
 298 698 298 698 304.5 719.5 c 128,-1,49
 311 741 311 741 312 745 c 1,17,-1
EndSplineSet
EndChar

StartChar: sterling
Encoding: 163 163 101
Width: 490
Flags: W
LayerCount: 2
Fore
SplineSet
105 460 m 1,0,1
 119 455 119 455 139 452 c 128,-1,2
 159 449 159 449 180.5 451 c 128,-1,3
 202 453 202 453 212 463 c 0,4,5
 220 471 220 471 224.5 486.5 c 128,-1,6
 229 502 229 502 231.5 525.5 c 128,-1,7
 234 549 234 549 234 554 c 0,8,9
 254 656 254 656 312 699 c 0,10,11
 344 723 344 723 382 736.5 c 128,-1,12
 420 750 420 750 453 743 c 1,13,14
 463 742 463 742 490 728 c 128,-1,15
 517 714 517 714 535 718 c 1,16,-1
 539 706 l 1,17,18
 536 704 536 704 524 693 c 128,-1,19
 512 682 512 682 502.5 675.5 c 128,-1,20
 493 669 493 669 484 669 c 0,21,22
 472 669 472 669 459.5 677.5 c 128,-1,23
 447 686 447 686 437.5 696.5 c 128,-1,24
 428 707 428 707 413.5 713.5 c 128,-1,25
 399 720 399 720 383 716 c 0,26,27
 358 710 358 710 340 689.5 c 128,-1,28
 322 669 322 669 312 636 c 128,-1,29
 302 603 302 603 296 576 c 128,-1,30
 290 549 290 549 285 510.5 c 128,-1,31
 280 472 280 472 277 460 c 1,32,-1
 480 472 l 1,33,34
 480 461 480 461 477 454.5 c 128,-1,35
 474 448 474 448 467 445 c 128,-1,36
 460 442 460 442 455 441.5 c 128,-1,37
 450 441 450 441 438.5 441 c 128,-1,38
 427 441 427 441 422 440 c 0,39,40
 315 433 315 433 270 433 c 1,41,42
 266 357 266 357 238 296.5 c 128,-1,43
 210 236 210 236 156 179 c 1,44,45
 180 180 180 180 220 177 c 128,-1,46
 260 174 260 174 290.5 172.5 c 128,-1,47
 321 171 321 171 355 174 c 128,-1,48
 389 177 389 177 417.5 191.5 c 128,-1,49
 446 206 446 206 465 234 c 1,50,-1
 480 226 l 1,51,-1
 480 222 l 1,52,53
 476 216 476 216 461.5 197 c 128,-1,54
 447 178 447 178 438 166.5 c 128,-1,55
 429 155 429 155 414.5 142.5 c 128,-1,56
 400 130 400 130 387 126 c 0,57,58
 379 123 379 123 362.5 123.5 c 128,-1,59
 346 124 346 124 336 125.5 c 128,-1,60
 326 127 326 127 309.5 130 c 128,-1,61
 293 133 293 133 285 134 c 0,62,63
 153 152 153 152 90 112 c 1,64,-1
 86 112 l 1,65,-1
 78 124 l 1,66,-1
 165 230 l 1,67,-1
 211 433 l 1,68,-1
 94 429 l 1,69,-1
 105 460 l 1,0,1
EndSplineSet
EndChar

StartChar: currency
Encoding: 164 164 102
Width: 729
Flags: W
LayerCount: 2
Fore
SplineSet
402 654 m 0,0,1
 363 648 363 648 328 625 c 0,2,3
 289 600 289 600 268.5 562 c 128,-1,4
 248 524 248 524 247 484.5 c 128,-1,5
 246 445 246 445 260.5 405.5 c 128,-1,6
 275 366 275 366 302 337 c 128,-1,7
 329 308 329 308 370 293.5 c 128,-1,8
 411 279 411 279 457 286 c 0,9,10
 495 292 495 292 525 309.5 c 128,-1,11
 555 327 555 327 572 351.5 c 128,-1,12
 589 376 589 376 599.5 406 c 128,-1,13
 610 436 610 436 608.5 467 c 128,-1,14
 607 498 607 498 599.5 528 c 128,-1,15
 592 558 592 558 573.5 583 c 128,-1,16
 555 608 555 608 531 626.5 c 128,-1,17
 507 645 507 645 473.5 652.5 c 128,-1,18
 440 660 440 660 402 654 c 0,0,1
219 714 m 1,19,-1
 285 658 l 1,20,-1
 344 686 l 1,21,-1
 445 702 l 1,22,-1
 531 678 l 1,23,-1
 574 658 l 1,24,-1
 637 714 l 1,25,-1
 641 714 l 1,26,-1
 672 679 l 1,27,28
 671 678 671 678 662.5 671.5 c 128,-1,29
 654 665 654 665 650 662 c 128,-1,30
 646 659 646 659 638 652 c 128,-1,31
 630 645 630 645 625.5 640.5 c 128,-1,32
 621 636 621 636 617 630 c 128,-1,33
 613 624 613 624 612 619 c 0,34,35
 611 611 611 611 617 599.5 c 128,-1,36
 623 588 623 588 632 575.5 c 128,-1,37
 641 563 641 563 643 558 c 0,38,39
 664 512 664 512 660 448 c 0,40,41
 657 405 657 405 634 362 c 0,42,43
 632 359 632 359 625.5 350.5 c 128,-1,44
 619 342 619 342 615 334.5 c 128,-1,45
 611 327 611 327 612 322 c 0,46,47
 616 300 616 300 672 261 c 1,48,-1
 641 226 l 1,49,-1
 637 226 l 1,50,51
 633 229 633 229 620 245 c 128,-1,52
 607 261 607 261 595.5 270.5 c 128,-1,53
 584 280 584 280 574 282 c 0,54,55
 568 283 568 283 561.5 280 c 128,-1,56
 555 277 555 277 546.5 271 c 128,-1,57
 538 265 538 265 535 264 c 0,58,59
 500 245 500 245 461 239 c 0,60,61
 400 230 400 230 348 253 c 0,62,63
 342 255 342 255 329 263.5 c 128,-1,64
 316 272 316 272 304.5 277.5 c 128,-1,65
 293 283 293 283 285 282 c 0,66,67
 275 280 275 280 264 270.5 c 128,-1,68
 253 261 253 261 239.5 245 c 128,-1,69
 226 229 226 229 223 226 c 1,70,-1
 219 226 l 1,71,-1
 188 261 l 1,72,73
 188 261 188 261 197 267.5 c 128,-1,74
 206 274 206 274 210 277 c 128,-1,75
 214 280 214 280 222 287 c 128,-1,76
 230 294 230 294 234 299 c 128,-1,77
 238 304 238 304 242 310 c 128,-1,78
 246 316 246 316 247 321 c 0,79,80
 248 327 248 327 243.5 334.5 c 128,-1,81
 239 342 239 342 232.5 350.5 c 128,-1,82
 226 359 226 359 224 362 c 0,83,84
 197 410 197 410 195 452 c 0,85,86
 193 515 193 515 216 562 c 0,87,88
 218 566 218 566 227 578 c 128,-1,89
 236 590 236 590 242 600.5 c 128,-1,90
 248 611 248 611 247 618 c 0,91,92
 246 627 246 627 234.5 638.5 c 128,-1,93
 223 650 223 650 207 662.5 c 128,-1,94
 191 675 191 675 188 679 c 1,95,-1
 188 683 l 1,96,-1
 219 714 l 1,19,-1
EndSplineSet
EndChar

StartChar: yen
Encoding: 165 165 103
Width: 521
Flags: W
LayerCount: 2
Fore
SplineSet
74 312 m 1,0,-1
 78 308 l 1,1,-1
 74 312 l 1,0,-1
121 738 m 1,2,-1
 328 738 l 1,3,4
 327 724 327 724 318 718.5 c 128,-1,5
 309 713 309 713 298.5 712.5 c 128,-1,6
 288 712 288 712 278 707 c 128,-1,7
 268 702 268 702 265 691 c 1,8,9
 265 674 265 674 265 669 c 128,-1,10
 265 664 265 664 270 645.5 c 128,-1,11
 275 627 275 627 276 624 c 0,12,13
 280 606 280 606 298.5 547 c 128,-1,14
 317 488 317 488 320 456 c 1,15,-1
 324 456 l 1,16,17
 339 485 339 485 362.5 515.5 c 128,-1,18
 386 546 386 546 418 582 c 128,-1,19
 450 618 450 618 464 636 c 0,20,21
 465 638 465 638 472.5 646.5 c 128,-1,22
 480 655 480 655 484.5 661 c 128,-1,23
 489 667 489 667 494.5 676 c 128,-1,24
 500 685 500 685 502 692.5 c 128,-1,25
 504 700 504 700 502 705 c 256,26,27
 500 710 500 710 495.5 713.5 c 128,-1,28
 491 717 491 717 483.5 717.5 c 128,-1,29
 476 718 476 718 470 718.5 c 128,-1,30
 464 719 464 719 455.5 718.5 c 128,-1,31
 447 718 447 718 445 718 c 1,32,-1
 449 738 l 1,33,-1
 617 738 l 1,34,-1
 617 718 l 1,35,36
 597 718 597 718 581 712.5 c 128,-1,37
 565 707 565 707 549.5 693 c 128,-1,38
 534 679 534 679 526 670 c 128,-1,39
 518 661 518 661 501 640 c 0,40,41
 485 621 485 621 455 582 c 128,-1,42
 425 543 425 543 400 512.5 c 128,-1,43
 375 482 375 482 352 456 c 1,44,-1
 516 456 l 1,45,46
 509 435 509 435 487.5 428.5 c 128,-1,47
 466 422 466 422 440.5 426 c 128,-1,48
 415 430 415 430 388 431 c 128,-1,49
 361 432 361 432 345 427 c 1,50,51
 334 422 334 422 327 406 c 128,-1,52
 320 390 320 390 315 367 c 128,-1,53
 310 344 310 344 309 339 c 1,54,-1
 496 339 l 1,55,-1
 483 314 l 1,56,-1
 430 312 l 1,57,-1
 301 312 l 1,58,59
 298 290 298 290 289 251.5 c 128,-1,60
 280 213 280 213 278 202 c 0,61,62
 278 201 278 201 277 196 c 128,-1,63
 276 191 276 191 275.5 189 c 128,-1,64
 275 187 275 187 274.5 182.5 c 128,-1,65
 274 178 274 178 274.5 175.5 c 128,-1,66
 275 173 275 173 275.5 169.5 c 128,-1,67
 276 166 276 166 278 163 c 128,-1,68
 280 160 280 160 282 157 c 1,69,70
 293 148 293 148 309.5 146 c 128,-1,71
 326 144 326 144 352.5 147.5 c 128,-1,72
 379 151 379 151 383 152 c 1,73,74
 380 143 380 143 375 137.5 c 128,-1,75
 370 132 370 132 361.5 130 c 128,-1,76
 353 128 353 128 347 127.5 c 128,-1,77
 341 127 341 127 328.5 127.5 c 128,-1,78
 316 128 316 128 312 128 c 0,79,80
 277 128 277 128 205 126 c 128,-1,81
 133 124 133 124 98 124 c 1,82,83
 100 138 100 138 110.5 143.5 c 128,-1,84
 121 149 121 149 133.5 148.5 c 128,-1,85
 146 148 146 148 160.5 150.5 c 128,-1,86
 175 153 175 153 183 160 c 0,87,88
 219 193 219 193 230 312 c 1,89,-1
 78 312 l 1,90,91
 79 331 79 331 98 338 c 128,-1,92
 117 345 117 345 141.5 341.5 c 128,-1,93
 166 338 166 338 191 337.5 c 128,-1,94
 216 337 216 337 230 341 c 1,95,96
 239 346 239 346 245 362 c 128,-1,97
 251 378 251 378 255 400.5 c 128,-1,98
 259 423 259 423 262 429 c 1,99,-1
 90 429 l 1,100,-1
 94 456 l 1,101,-1
 250 456 l 1,102,-1
 206 620 l 1,103,-1
 178 701 l 1,104,-1
 121 718 l 1,105,-1
 121 738 l 1,2,-1
EndSplineSet
EndChar

StartChar: brokenbar
Encoding: 166 166 104
Width: 531
Flags: W
LayerCount: 2
Fore
SplineSet
277 304 m 1,0,-1
 328 304 l 1,1,-1
 328 -48 l 1,2,-1
 277 -48 l 1,3,-1
 277 304 l 1,0,-1
277 804 m 1,4,-1
 328 804 l 1,5,-1
 328 452 l 1,6,-1
 277 452 l 1,7,-1
 277 804 l 1,4,-1
EndSplineSet
EndChar

StartChar: section
Encoding: 167 167 105
Width: 396
Flags: W
LayerCount: 2
Fore
SplineSet
176 530 m 1,0,1
 159 518 159 518 147.5 502 c 128,-1,2
 136 486 136 486 129.5 471.5 c 128,-1,3
 123 457 123 457 122.5 436.5 c 128,-1,4
 122 416 122 416 122.5 402 c 128,-1,5
 123 388 123 388 130.5 364.5 c 128,-1,6
 138 341 138 341 142 329 c 128,-1,7
 146 317 146 317 158.5 292 c 128,-1,8
 171 267 171 267 175.5 258 c 128,-1,9
 180 249 180 249 194 224 c 128,-1,10
 208 199 208 199 211 195 c 0,11,12
 218 182 218 182 229.5 158 c 128,-1,13
 241 134 241 134 246 124 c 1,14,15
 264 137 264 137 276.5 152 c 128,-1,16
 289 167 289 167 293.5 185.5 c 128,-1,17
 298 204 298 204 300.5 220 c 128,-1,18
 303 236 303 236 298 258 c 128,-1,19
 293 280 293 280 289 294.5 c 128,-1,20
 285 309 285 309 274.5 333 c 128,-1,21
 264 357 264 357 258 369 c 128,-1,22
 252 381 252 381 239.5 405 c 128,-1,23
 227 429 227 429 224 437 c 1,24,25
 219 446 219 446 209.5 466.5 c 128,-1,26
 200 487 200 487 192 502.5 c 128,-1,27
 184 518 184 518 176 530 c 1,0,1
277 798 m 0,28,29
 293 801 293 801 320 797.5 c 128,-1,30
 347 794 347 794 370.5 781 c 128,-1,31
 394 768 394 768 392 749 c 0,32,33
 391 731 391 731 381.5 726 c 128,-1,34
 372 721 372 721 358.5 726.5 c 128,-1,35
 345 732 345 732 331.5 740 c 128,-1,36
 318 748 318 748 304.5 756.5 c 128,-1,37
 291 765 291 765 285 767 c 0,38,39
 250 775 250 775 225 745 c 128,-1,40
 200 715 200 715 196 679 c 0,41,42
 192 638 192 638 203.5 595 c 128,-1,43
 215 552 215 552 236 512.5 c 128,-1,44
 257 473 257 473 279 435 c 128,-1,45
 301 397 301 397 320.5 353.5 c 128,-1,46
 340 310 340 310 346 273 c 0,47,48
 357 203 357 203 310 148 c 0,49,50
 306 143 306 143 292.5 133.5 c 128,-1,51
 279 124 279 124 270 115 c 128,-1,52
 261 106 261 106 261 97 c 0,53,54
 260 83 260 83 266.5 55.5 c 128,-1,55
 273 28 273 28 273 15 c 0,56,57
 272 -44 272 -44 234.5 -92 c 128,-1,58
 197 -140 197 -140 141 -148 c 1,59,60
 130 -151 130 -151 109 -148.5 c 128,-1,61
 88 -146 88 -146 67.5 -142 c 128,-1,62
 47 -138 47 -138 33 -126 c 128,-1,63
 19 -114 19 -114 21 -98 c 0,64,65
 24 -82 24 -82 32.5 -76 c 128,-1,66
 41 -70 41 -70 52.5 -74 c 128,-1,67
 64 -78 64 -78 75 -84.5 c 128,-1,68
 86 -91 86 -91 98.5 -99.5 c 128,-1,69
 111 -108 111 -108 117 -110 c 0,70,71
 158 -126 158 -126 191.5 -99 c 128,-1,72
 225 -72 225 -72 230 -28 c 0,73,74
 234 13 234 13 221.5 56 c 128,-1,75
 209 99 209 99 187 138.5 c 128,-1,76
 165 178 165 178 142 216 c 128,-1,77
 119 254 119 254 99.5 297 c 128,-1,78
 80 340 80 340 75 378 c 0,79,80
 66 453 66 453 110 503 c 0,81,82
 113 506 113 506 137.5 524 c 128,-1,83
 162 542 162 542 164 554 c 0,84,85
 167 566 167 566 159.5 592.5 c 128,-1,86
 152 619 152 619 152 628 c 0,87,88
 152 688 152 688 186 736.5 c 128,-1,89
 220 785 220 785 277 798 c 0,28,29
EndSplineSet
EndChar

StartChar: dieresis
Encoding: 168 168 106
Width: 333
Flags: W
LayerCount: 2
Fore
SplineSet
340 641 m 0,0,1
 360 648 360 648 374 634 c 128,-1,2
 388 620 388 620 385.5 600 c 128,-1,3
 383 580 383 580 363 572 c 0,4,5
 343 565 343 565 329 579 c 128,-1,6
 315 593 315 593 317.5 613 c 128,-1,7
 320 633 320 633 340 641 c 0,0,1
195 641 m 1,8,9
 215 648 215 648 229 634 c 128,-1,10
 243 620 243 620 240.5 600 c 128,-1,11
 238 580 238 580 219 572 c 1,12,13
 198 565 198 565 184.5 579 c 128,-1,14
 171 593 171 593 173.5 613 c 128,-1,15
 176 633 176 633 195 641 c 1,8,9
EndSplineSet
EndChar

StartChar: copyright
Encoding: 169 169 107
Width: 813
Flags: W
LayerCount: 2
Fore
SplineSet
668 351 m 1,0,1
 625 295 625 295 574 271 c 0,2,3
 534 252 534 252 491 248 c 128,-1,4
 448 244 448 244 410 255 c 128,-1,5
 372 266 372 266 337.5 286.5 c 128,-1,6
 303 307 303 307 279 338.5 c 128,-1,7
 255 370 255 370 240.5 406 c 128,-1,8
 226 442 226 442 226.5 484.5 c 128,-1,9
 227 527 227 527 244 570 c 256,10,11
 261 613 261 613 297 648 c 0,12,13
 335 684 335 684 391 704 c 0,14,15
 458 727 458 727 531 714 c 0,16,17
 539 712 539 712 562 704.5 c 128,-1,18
 585 697 585 697 598 696 c 0,19,20
 607 696 607 696 622.5 707 c 128,-1,21
 638 718 638 718 648 718 c 1,22,-1
 656 573 l 1,23,24
 643 575 643 575 633.5 586 c 128,-1,25
 624 597 624 597 615.5 615 c 128,-1,26
 607 633 607 633 601 640 c 0,27,28
 551 696 551 696 477 694 c 0,29,30
 423 693 423 693 384 662 c 128,-1,31
 345 631 345 631 328 584.5 c 128,-1,32
 311 538 311 538 311.5 484.5 c 128,-1,33
 312 431 312 431 330 385 c 128,-1,34
 348 339 348 339 387.5 308 c 128,-1,35
 427 277 427 277 480 277 c 1,36,37
 523 276 523 276 566 294 c 0,38,39
 618 315 618 315 645 362 c 1,40,-1
 668 351 l 1,0,1
430 818 m 0,41,42
 332 805 332 805 266 756 c 0,43,44
 211 716 211 716 177 659 c 128,-1,45
 143 602 143 602 133 542 c 128,-1,46
 123 482 123 482 134.5 419.5 c 128,-1,47
 146 357 146 357 176.5 304.5 c 128,-1,48
 207 252 207 252 259.5 211.5 c 128,-1,49
 312 171 312 171 379 154 c 1,50,51
 441 137 441 137 500 145 c 1,52,53
 586 155 586 155 652 198 c 0,54,55
 711 237 711 237 747.5 294.5 c 128,-1,56
 784 352 784 352 795.5 414 c 128,-1,57
 807 476 807 476 796 541 c 128,-1,58
 785 606 785 606 753.5 660 c 128,-1,59
 722 714 722 714 667.5 755 c 128,-1,60
 613 796 613 796 543 811 c 0,61,62
 479 825 479 825 430 818 c 0,41,42
426 849 m 0,63,64
 482 857 482 857 551 841 c 1,65,66
 625 825 625 825 684 780.5 c 128,-1,67
 743 736 743 736 777.5 677.5 c 128,-1,68
 812 619 812 619 825.5 549 c 128,-1,69
 839 479 839 479 828 412 c 128,-1,70
 817 345 817 345 778 282.5 c 128,-1,71
 739 220 739 220 676 177 c 0,72,73
 599 125 599 125 500 114 c 1,74,75
 438 106 438 106 367 124 c 1,76,77
 294 144 294 144 237 189 c 128,-1,78
 180 234 180 234 147.5 291.5 c 128,-1,79
 115 349 115 349 103 417.5 c 128,-1,80
 91 486 91 486 102.5 551.5 c 128,-1,81
 114 617 114 617 151.5 678.5 c 128,-1,82
 189 740 189 740 250 784 c 0,83,84
 321 835 321 835 426 849 c 0,63,64
EndSplineSet
EndChar

StartChar: ordfeminine
Encoding: 170 170 108
Width: 229
Flags: W
LayerCount: 2
Fore
SplineSet
137 566 m 1,0,1
 149 570 149 570 159 575 c 128,-1,2
 169 580 169 580 178 588.5 c 128,-1,3
 187 597 187 597 193 602.5 c 128,-1,4
 199 608 199 608 206 620.5 c 128,-1,5
 213 633 213 633 216 638 c 128,-1,6
 219 643 219 643 225 658.5 c 128,-1,7
 231 674 231 674 232.5 678.5 c 128,-1,8
 234 683 234 683 239.5 701 c 128,-1,9
 245 719 245 719 246 722 c 1,10,11
 189 719 189 719 154.5 670.5 c 128,-1,12
 120 622 120 622 137 566 c 1,0,1
215 612 m 1,13,14
 200 585 200 585 163 550.5 c 128,-1,15
 126 516 126 516 107 536 c 0,16,17
 87 557 87 557 105 620 c 1,18,19
 125 684 125 684 170 713.5 c 128,-1,20
 215 743 215 743 289 757 c 1,21,-1
 246 558 l 1,22,-1
 297 581 l 1,23,24
 291 573 291 573 281 562.5 c 128,-1,25
 271 552 271 552 257.5 541.5 c 128,-1,26
 244 531 244 531 232 531 c 128,-1,27
 220 531 220 531 214 546 c 1,28,29
 211 561 211 561 211 567.5 c 128,-1,30
 211 574 211 574 214.5 591 c 128,-1,31
 218 608 218 608 219 612 c 1,32,-1
 215 612 l 1,13,14
EndSplineSet
EndChar

StartChar: guillemotleft
Encoding: 171 171 109
Width: 396
Flags: W
LayerCount: 2
Fore
SplineSet
348 128 m 1,0,1
 334 129 334 129 321.5 140 c 128,-1,2
 309 151 309 151 302 162 c 128,-1,3
 295 173 295 173 284.5 193 c 128,-1,4
 274 213 274 213 270 218 c 0,5,6
 267 223 267 223 250 245 c 128,-1,7
 233 267 233 267 223 285 c 128,-1,8
 213 303 213 303 215 315 c 0,9,10
 216 324 216 324 224.5 333 c 128,-1,11
 233 342 233 342 246 353 c 128,-1,12
 259 364 259 364 262 366 c 2,13,-1
 363 464 l 2,14,15
 366 467 366 467 372.5 473.5 c 128,-1,16
 379 480 379 480 382 482.5 c 128,-1,17
 385 485 385 485 391 490 c 128,-1,18
 397 495 397 495 401.5 497 c 128,-1,19
 406 499 406 499 412.5 501 c 128,-1,20
 419 503 419 503 426 503 c 1,21,-1
 329 374 l 1,22,-1
 288 312 l 1,23,-1
 306 253 l 1,24,-1
 348 128 l 1,0,1
51 320 m 1,25,26
 81 343 81 343 131 392.5 c 128,-1,27
 181 442 181 442 199 458 c 0,28,29
 204 462 204 462 214 471.5 c 128,-1,30
 224 481 224 481 230 486.5 c 128,-1,31
 236 492 236 492 245.5 497 c 128,-1,32
 255 502 255 502 266 503 c 1,33,-1
 169 374 l 1,34,-1
 130 316 l 1,35,-1
 146 257 l 1,36,-1
 188 128 l 1,37,38
 180 129 180 129 173.5 131.5 c 128,-1,39
 167 134 167 134 161.5 140 c 128,-1,40
 156 146 156 146 153.5 149.5 c 128,-1,41
 151 153 151 153 145.5 162.5 c 128,-1,42
 140 172 140 172 138 175 c 0,43,44
 130 188 130 188 109 218.5 c 128,-1,45
 88 249 88 249 73.5 273 c 128,-1,46
 59 297 59 297 51 320 c 1,25,26
EndSplineSet
EndChar

StartChar: logicalnot
Encoding: 172 172 110
Width: 667
Flags: W
LayerCount: 2
Fore
SplineSet
78 558 m 1,0,-1
 641 558 l 1,1,-1
 641 257 l 1,2,-1
 594 257 l 1,3,-1
 594 511 l 1,4,-1
 78 511 l 1,5,-1
 78 558 l 1,0,-1
EndSplineSet
EndChar

StartChar: uni00AD
Encoding: 173 173 111
Width: 354
Flags: W
LayerCount: 2
Fore
SplineSet
348 370 m 1,0,-1
 352 366 l 1,1,-1
 348 370 l 1,0,-1
51 249 m 1,2,3
 64 290 64 290 89 310 c 128,-1,4
 114 330 114 330 143 331.5 c 128,-1,5
 172 333 172 333 207.5 333.5 c 128,-1,6
 243 334 243 334 277 335 c 1,7,8
 290 337 290 337 311.5 354.5 c 128,-1,9
 333 372 333 372 352 366 c 1,10,-1
 303 284 l 1,11,-1
 254 284 l 1,12,-1
 125 287 l 1,13,-1
 51 249 l 1,2,3
EndSplineSet
EndChar

StartChar: registered
Encoding: 174 174 112
Width: 813
Flags: W
LayerCount: 2
Fore
SplineSet
383 491 m 1,0,1
 429 491 429 491 461 499 c 0,2,3
 500 510 500 510 518.5 543.5 c 128,-1,4
 537 577 537 577 528 614.5 c 128,-1,5
 519 652 519 652 484 673 c 0,6,7
 473 679 473 679 454.5 684 c 128,-1,8
 436 689 436 689 415.5 688 c 128,-1,9
 395 687 395 687 387 676 c 0,10,11
 383 671 383 671 382 662 c 128,-1,12
 381 653 381 653 382 639.5 c 128,-1,13
 383 626 383 626 383 624 c 2,14,-1
 383 491 l 1,0,1
262 710 m 1,15,16
 276 710 276 710 350 714.5 c 128,-1,17
 424 719 424 719 471 714.5 c 128,-1,18
 518 710 518 710 555 691 c 0,19,20
 602 668 602 668 614.5 616 c 128,-1,21
 627 564 627 564 592 523 c 0,22,23
 582 510 582 510 565 500.5 c 128,-1,24
 548 491 548 491 537.5 487 c 128,-1,25
 527 483 527 483 504 476 c 1,26,27
 520 447 520 447 556 398 c 128,-1,28
 592 349 592 349 602 335 c 0,29,30
 602 334 602 334 607 327 c 128,-1,31
 612 320 612 320 613 318.5 c 128,-1,32
 614 317 614 317 618.5 311 c 128,-1,33
 623 305 623 305 624.5 303 c 128,-1,34
 626 301 626 301 630.5 296 c 128,-1,35
 635 291 635 291 637.5 289.5 c 128,-1,36
 640 288 640 288 644.5 284.5 c 128,-1,37
 649 281 649 281 653 279 c 128,-1,38
 657 277 657 277 662 275.5 c 128,-1,39
 667 274 667 274 672 273 c 1,40,-1
 672 257 l 1,41,42
 667 257 667 257 642 255 c 128,-1,43
 617 253 617 253 599.5 254.5 c 128,-1,44
 582 256 582 256 573 263 c 0,45,46
 553 279 553 279 534 304 c 128,-1,47
 515 329 515 329 494 362 c 128,-1,48
 473 395 473 395 462 409 c 0,49,50
 460 413 460 413 451.5 424.5 c 128,-1,51
 443 436 443 436 440.5 439.5 c 128,-1,52
 438 443 438 443 430 450.5 c 128,-1,53
 422 458 422 458 416.5 460.5 c 128,-1,54
 411 463 411 463 402 465.5 c 128,-1,55
 393 468 393 468 383 468 c 1,56,57
 383 456 383 456 381 431.5 c 128,-1,58
 379 407 379 407 378 388.5 c 128,-1,59
 377 370 377 370 379.5 347 c 128,-1,60
 382 324 382 324 388 309 c 128,-1,61
 394 294 394 294 408.5 283.5 c 128,-1,62
 423 273 423 273 445 273 c 1,63,-1
 445 257 l 1,64,-1
 254 257 l 1,65,-1
 254 273 l 1,66,67
 270 273 270 273 280.5 278.5 c 128,-1,68
 291 284 291 284 296.5 290.5 c 128,-1,69
 302 297 302 297 305 310 c 128,-1,70
 308 323 308 323 308.5 332.5 c 128,-1,71
 309 342 309 342 309 359 c 2,72,-1
 309 605 l 2,73,74
 309 606 309 606 309 610 c 0,75,76
 309 625 309 625 308.5 633 c 128,-1,77
 308 641 308 641 305.5 653 c 128,-1,78
 303 665 303 665 298.5 671.5 c 128,-1,79
 294 678 294 678 284.5 683.5 c 128,-1,80
 275 689 275 689 262 691 c 1,81,-1
 262 710 l 1,15,16
430 818 m 0,82,83
 332 805 332 805 266 756 c 0,84,85
 211 716 211 716 177 659 c 128,-1,86
 143 602 143 602 133 542 c 128,-1,87
 123 482 123 482 134.5 419.5 c 128,-1,88
 146 357 146 357 176.5 304.5 c 128,-1,89
 207 252 207 252 259.5 211.5 c 128,-1,90
 312 171 312 171 379 154 c 1,91,92
 441 137 441 137 500 145 c 1,93,94
 586 155 586 155 652 198 c 0,95,96
 711 237 711 237 747.5 294.5 c 128,-1,97
 784 352 784 352 795.5 414 c 128,-1,98
 807 476 807 476 796 541 c 128,-1,99
 785 606 785 606 753.5 660 c 128,-1,100
 722 714 722 714 667.5 755 c 128,-1,101
 613 796 613 796 543 811 c 0,102,103
 479 825 479 825 430 818 c 0,82,83
426 849 m 0,104,105
 482 857 482 857 551 841 c 1,106,107
 625 825 625 825 684 780.5 c 128,-1,108
 743 736 743 736 777.5 677.5 c 128,-1,109
 812 619 812 619 825.5 549 c 128,-1,110
 839 479 839 479 828 412 c 128,-1,111
 817 345 817 345 778 282.5 c 128,-1,112
 739 220 739 220 676 177 c 0,113,114
 599 125 599 125 500 114 c 1,115,116
 438 106 438 106 367 124 c 1,117,118
 294 144 294 144 237 189 c 128,-1,119
 180 234 180 234 147.5 291.5 c 128,-1,120
 115 349 115 349 103 417.5 c 128,-1,121
 91 486 91 486 102.5 551.5 c 128,-1,122
 114 617 114 617 151.5 678.5 c 128,-1,123
 189 740 189 740 250 784 c 0,124,125
 321 835 321 835 426 849 c 0,104,105
EndSplineSet
EndChar

StartChar: macron
Encoding: 175 175 113
Width: 333
Flags: W
LayerCount: 2
Fore
SplineSet
344 628 m 1,0,-1
 340 609 l 1,1,-1
 344 628 l 1,0,-1
152 636 m 1,2,-1
 348 636 l 1,3,4
 346 628 346 628 342 622.5 c 128,-1,5
 338 617 338 617 335.5 614.5 c 128,-1,6
 333 612 333 612 325.5 610.5 c 128,-1,7
 318 609 318 609 315.5 608.5 c 128,-1,8
 313 608 313 608 302 608.5 c 128,-1,9
 291 609 291 609 289 609 c 2,10,-1
 145 609 l 1,11,-1
 152 636 l 1,2,-1
EndSplineSet
EndChar

StartChar: degree
Encoding: 176 176 114
Width: 427
Flags: W
LayerCount: 2
Fore
SplineSet
261.5 704.5 m 128,-1,1
 231 699 231 699 210 681.5 c 128,-1,2
 189 664 189 664 180.5 641.5 c 128,-1,3
 172 619 172 619 170.5 593.5 c 128,-1,4
 169 568 169 568 179.5 544.5 c 128,-1,5
 190 521 190 521 206 502.5 c 128,-1,6
 222 484 222 484 248 476 c 128,-1,7
 274 468 274 468 304.5 473.5 c 128,-1,8
 335 479 335 479 356.5 496.5 c 128,-1,9
 378 514 378 514 386 536.5 c 128,-1,10
 394 559 394 559 395.5 584.5 c 128,-1,11
 397 610 397 610 386.5 634 c 128,-1,12
 376 658 376 658 360 676 c 128,-1,13
 344 694 344 694 318 702 c 128,-1,0
 292 710 292 710 261.5 704.5 c 128,-1,1
258 747 m 1,14,15
 299 755 299 755 334 743.5 c 128,-1,16
 369 732 369 732 390.5 707 c 128,-1,17
 412 682 412 682 425.5 649.5 c 128,-1,18
 439 617 439 617 437 582 c 128,-1,19
 435 547 435 547 423.5 516 c 128,-1,20
 412 485 412 485 382.5 462 c 128,-1,21
 353 439 353 439 312 431 c 1,22,23
 270 424 270 424 234 435.5 c 128,-1,24
 198 447 198 447 176.5 471.5 c 128,-1,25
 155 496 155 496 141 528.5 c 128,-1,26
 127 561 127 561 129 596 c 128,-1,27
 131 631 131 631 143.5 662 c 128,-1,28
 156 693 156 693 186 716.5 c 128,-1,29
 216 740 216 740 258 747 c 1,14,15
EndSplineSet
EndChar

StartChar: plusminus
Encoding: 177 177 115
Width: 667
Flags: W
LayerCount: 2
Fore
SplineSet
98 175 m 1,0,-1
 656 175 l 1,1,-1
 656 128 l 1,2,-1
 98 128 l 1,3,-1
 98 175 l 1,0,-1
352 804 m 1,4,-1
 398 804 l 1,5,-1
 398 570 l 1,6,-1
 656 570 l 1,7,-1
 656 523 l 1,8,-1
 398 523 l 1,9,-1
 398 292 l 1,10,-1
 352 292 l 1,11,-1
 352 523 l 1,12,-1
 94 523 l 1,13,-1
 94 570 l 1,14,-1
 352 570 l 1,15,-1
 352 804 l 1,4,-1
EndSplineSet
EndChar

StartChar: two.superior
Encoding: 178 178 116
Width: 281
Flags: W
LayerCount: 2
Fore
SplineSet
129 769 m 1,0,1
 148 825 148 825 191 845 c 1,2,3
 220 855 220 855 250.5 853.5 c 128,-1,4
 281 852 281 852 306 832 c 128,-1,5
 331 812 331 812 335 780 c 0,6,7
 337 764 337 764 332 746.5 c 128,-1,8
 327 729 327 729 319.5 714.5 c 128,-1,9
 312 700 312 700 296.5 682 c 128,-1,10
 281 664 281 664 269.5 652 c 128,-1,11
 258 640 258 640 237 622.5 c 128,-1,12
 216 605 216 605 206 597 c 128,-1,13
 196 589 196 589 174 573 c 128,-1,14
 152 557 152 557 148 554 c 1,15,-1
 332 570 l 1,16,17
 316 544 316 544 284 533.5 c 128,-1,18
 252 523 252 523 218 526 c 128,-1,19
 184 529 184 529 146.5 528.5 c 128,-1,20
 109 528 109 528 82 523 c 1,21,22
 85 534 85 534 95.5 544.5 c 128,-1,23
 106 555 106 555 122.5 566.5 c 128,-1,24
 139 578 139 578 144.5 582.5 c 128,-1,25
 150 587 150 587 169.5 603.5 c 128,-1,26
 189 620 189 620 197.5 627.5 c 128,-1,27
 206 635 206 635 222.5 651 c 128,-1,28
 239 667 239 667 248 679 c 128,-1,29
 257 691 257 691 266.5 706.5 c 128,-1,30
 276 722 276 722 280 738 c 1,31,32
 292 774 292 774 268.5 807.5 c 128,-1,33
 245 841 245 841 207 827 c 1,34,35
 168 815 168 815 152 757 c 1,36,-1
 129 769 l 1,0,1
EndSplineSet
EndChar

StartChar: three.superior
Encoding: 179 179 117
Width: 281
Flags: W
LayerCount: 2
Fore
SplineSet
156 777 m 1,0,-1
 160 773 l 1,1,-1
 156 777 l 1,0,-1
176 687 m 1,2,-1
 180 683 l 1,3,-1
 176 687 l 1,2,-1
160 777 m 1,4,5
 166 817 166 817 207.5 838.5 c 128,-1,6
 249 860 249 860 289 846 c 0,7,8
 311 838 311 838 318.5 821 c 128,-1,9
 326 804 326 804 320.5 786 c 128,-1,10
 315 768 315 768 301 753 c 0,11,12
 284 736 284 736 258 718 c 1,13,14
 295 714 295 714 309.5 681.5 c 128,-1,15
 324 649 324 649 307 616 c 1,16,17
 289 577 289 577 245.5 552.5 c 128,-1,18
 202 528 202 528 156 527 c 1,19,20
 96 527 96 527 82 562 c 1,21,22
 99 565 99 565 120.5 555.5 c 128,-1,23
 142 546 142 546 148 544 c 0,24,25
 176 537 176 537 219 564 c 0,26,27
 233 573 233 573 246.5 588.5 c 128,-1,28
 260 604 260 604 268 621.5 c 128,-1,29
 276 639 276 639 271.5 657 c 128,-1,30
 267 675 267 675 246 685 c 0,31,32
 237 690 237 690 227 691 c 128,-1,33
 217 692 217 692 199.5 689.5 c 128,-1,34
 182 687 182 687 180 687 c 1,35,36
 186 705 186 705 223.5 725.5 c 128,-1,37
 261 746 261 746 271 761 c 0,38,39
 285 782 285 782 272.5 803.5 c 128,-1,40
 260 825 260 825 234 822 c 0,41,42
 217 821 217 821 192 800.5 c 128,-1,43
 167 780 167 780 160 777 c 1,4,5
EndSplineSet
EndChar

StartChar: acute
Encoding: 180 180 118
Width: 333
Flags: W
LayerCount: 2
Fore
SplineSet
195 550 m 1,0,-1
 267 659 l 1,1,-1
 302 706 l 1,2,-1
 367 710 l 1,3,4
 351 687 351 687 314 649.5 c 128,-1,5
 277 612 277 612 267 601 c 0,6,7
 266 600 266 600 260 592.5 c 128,-1,8
 254 585 254 585 252 583 c 128,-1,9
 250 581 250 581 244.5 575 c 128,-1,10
 239 569 239 569 236 567 c 128,-1,11
 233 565 233 565 227.5 560.5 c 128,-1,12
 222 556 222 556 217.5 554.5 c 128,-1,13
 213 553 213 553 207 551.5 c 128,-1,14
 201 550 201 550 195 550 c 1,0,-1
EndSplineSet
EndChar

StartChar: mu
Encoding: 181 181 119
Width: 500
Flags: W
LayerCount: 2
Fore
SplineSet
336 206 m 1,0,-1
 340 202 l 1,1,-1
 336 206 l 1,0,-1
133 179 m 1,2,3
 131 157 131 157 122 117 c 128,-1,4
 113 77 113 77 110 62 c 1,5,6
 109 50 109 50 106.5 24.5 c 128,-1,7
 104 -1 104 -1 101 -20 c 128,-1,8
 98 -39 98 -39 92 -55 c 0,9,10
 82 -79 82 -79 57 -84.5 c 128,-1,11
 32 -90 32 -90 22 -63 c 1,12,13
 17 -44 17 -44 26.5 -18 c 128,-1,14
 36 8 36 8 54 39.5 c 128,-1,15
 72 71 72 71 76 81 c 0,16,17
 89 114 89 114 102.5 154.5 c 128,-1,18
 116 195 116 195 123.5 220 c 128,-1,19
 131 245 131 245 146 297.5 c 128,-1,20
 161 350 161 350 165 366 c 0,21,22
 168 375 168 375 173.5 403.5 c 128,-1,23
 179 432 179 432 185.5 453.5 c 128,-1,24
 192 475 192 475 203 485 c 0,25,26
 207 489 207 489 215 491 c 128,-1,27
 223 493 223 493 230 493 c 128,-1,28
 237 493 237 493 247.5 492 c 128,-1,29
 258 491 258 491 262 491 c 1,30,31
 258 468 258 468 250.5 438.5 c 128,-1,32
 243 409 243 409 237.5 390.5 c 128,-1,33
 232 372 232 372 220 336 c 128,-1,34
 208 300 208 300 204 288 c 0,35,36
 204 287 204 287 203 283 c 0,37,38
 181 214 181 214 195 187 c 0,39,40
 210 159 210 159 233.5 157.5 c 128,-1,41
 257 156 257 156 277 170.5 c 128,-1,42
 297 185 297 185 312 206 c 0,43,44
 349 261 349 261 376 339.5 c 128,-1,45
 403 418 403 418 414 491 c 1,46,-1
 477 491 l 1,47,48
 470 441 470 441 439.5 347 c 128,-1,49
 409 253 409 253 406 241 c 0,50,51
 406 240 406 240 405 236 c 0,52,53
 388 166 388 166 418 159 c 0,54,55
 430 157 430 157 439.5 165.5 c 128,-1,56
 449 174 449 174 455 186.5 c 128,-1,57
 461 199 461 199 471 210 c 128,-1,58
 481 221 481 221 492 222 c 1,59,60
 472 152 472 152 445 131 c 1,61,62
 413 108 413 108 389 115 c 128,-1,63
 365 122 365 122 350.5 147 c 128,-1,64
 336 172 336 172 336 202 c 1,65,-1
 332 202 l 1,66,67
 320 171 320 171 293 148 c 128,-1,68
 266 125 266 125 236 118 c 128,-1,69
 206 111 206 111 177.5 126 c 128,-1,70
 149 141 149 141 137 179 c 1,71,-1
 133 179 l 1,2,3
EndSplineSet
EndChar

StartChar: paragraph
Encoding: 182 182 120
Width: 479
Flags: W
LayerCount: 2
Fore
SplineSet
320 73 m 1,0,-1
 328 585 l 1,1,2
 293 579 293 579 273.5 550.5 c 128,-1,3
 254 522 254 522 250 484 c 0,4,5
 231 282 231 282 244 183 c 0,6,7
 251 137 251 137 266.5 110.5 c 128,-1,8
 282 84 282 84 320 73 c 1,0,-1
441 42 m 1,9,10
 440 33 440 33 436 28 c 128,-1,11
 432 23 432 23 427 21 c 128,-1,12
 422 19 422 19 413.5 19.5 c 128,-1,13
 405 20 405 20 400 21 c 128,-1,14
 395 22 395 22 384.5 24.5 c 128,-1,15
 374 27 374 27 371 28 c 0,16,17
 256 53 256 53 201 120 c 0,18,19
 163 167 163 167 133.5 223 c 128,-1,20
 104 279 104 279 102 327 c 0,21,22
 99 392 99 392 149.5 472.5 c 128,-1,23
 200 553 200 553 258 589 c 0,24,25
 347 644 347 644 527 648 c 1,26,-1
 511 623 l 1,27,-1
 355 601 l 1,28,-1
 348 238 l 1,29,-1
 344 62 l 1,30,-1
 441 42 l 1,9,10
EndSplineSet
EndChar

StartChar: periodcentered
Encoding: 183 183 121
Width: 188
Flags: W
LayerCount: 2
Fore
SplineSet
145 477 m 0,0,1
 170 484 170 484 176 455 c 1,2,3
 181 423 181 423 160 401 c 0,4,5
 153 393 153 393 145 391 c 0,6,7
 115 382 115 382 111 413 c 1,8,9
 108 445 108 445 129 467 c 0,10,11
 136 474 136 474 145 477 c 0,0,1
EndSplineSet
EndChar

StartChar: cedilla
Encoding: 184 184 122
Width: 333
Flags: W
LayerCount: 2
Fore
SplineSet
113 58 m 1,0,1
 116 61 116 61 123.5 73.5 c 128,-1,2
 131 86 131 86 135 92 c 128,-1,3
 139 98 139 98 147 108 c 128,-1,4
 155 118 155 118 161.5 123 c 128,-1,5
 168 128 168 128 177 132 c 128,-1,6
 186 136 186 136 195 136 c 1,7,-1
 172 97 l 1,8,9
 204 94 204 94 220 72 c 128,-1,10
 236 50 236 50 232 21.5 c 128,-1,11
 228 -7 228 -7 207 -28 c 256,12,13
 186 -49 186 -49 154 -60 c 128,-1,14
 122 -71 122 -71 97.5 -73 c 128,-1,15
 73 -75 73 -75 35 -75 c 1,16,17
 44 -57 44 -57 59 -56 c 0,18,19
 131 -48 131 -48 164 -16 c 0,20,21
 184 3 184 3 180 25.5 c 128,-1,22
 176 48 176 48 148 55 c 0,23,24
 137 58 137 58 113 58 c 1,0,1
EndSplineSet
EndChar

StartChar: one.superior
Encoding: 185 185 123
Width: 281
Flags: W
LayerCount: 2
Fore
SplineSet
168 530 m 1,0,-1
 168 527 l 1,1,-1
 289 527 l 1,2,-1
 168 530 l 1,0,-1
168 835 m 1,3,-1
 172 831 l 1,4,-1
 168 835 l 1,3,-1
172 835 m 1,5,6
 176 848 176 848 202.5 852 c 128,-1,7
 229 856 229 856 254.5 854 c 128,-1,8
 280 852 280 852 297 855 c 1,9,-1
 219 558 l 1,10,-1
 289 542 l 1,11,-1
 293 527 l 1,12,13
 245 538 245 538 156 527 c 1,14,-1
 242 823 l 1,15,-1
 172 835 l 1,5,6
EndSplineSet
EndChar

StartChar: ordmasculine
Encoding: 186 186 124
Width: 208
Flags: W
LayerCount: 2
Fore
SplineSet
176 718 m 0,0,1
 158 709 158 709 148.5 685 c 128,-1,2
 139 661 139 661 140 637 c 128,-1,3
 141 613 141 613 147 593 c 0,4,5
 153 575 153 575 169.5 564 c 128,-1,6
 186 553 186 553 203 562 c 0,7,8
 228 575 228 575 238 616.5 c 128,-1,9
 248 658 248 658 237 683 c 1,10,11
 230 703 230 703 212.5 715 c 128,-1,12
 195 727 195 727 176 718 c 0,0,1
199 747 m 0,13,14
 228 754 228 754 248.5 731.5 c 128,-1,15
 269 709 269 709 273 679 c 1,16,17
 277 638 277 638 251.5 588 c 128,-1,18
 226 538 226 538 188 528 c 0,19,20
 156 520 156 520 133 544 c 128,-1,21
 110 568 110 568 106 601 c 0,22,23
 101 646 101 646 128.5 691.5 c 128,-1,24
 156 737 156 737 199 747 c 0,13,14
EndSplineSet
EndChar

StartChar: guillemotright
Encoding: 187 187 125
Width: 396
Flags: W
LayerCount: 2
Fore
SplineSet
246 503 m 1,0,1
 259 502 259 502 271.5 491 c 128,-1,2
 284 480 284 480 291.5 468.5 c 128,-1,3
 299 457 299 457 309 438 c 128,-1,4
 319 419 319 419 323 413 c 0,5,6
 326 409 326 409 343 386.5 c 128,-1,7
 360 364 360 364 370 346 c 128,-1,8
 380 328 380 328 379 316 c 0,9,10
 378 309 378 309 372 300.5 c 128,-1,11
 366 292 366 292 360 287 c 128,-1,12
 354 282 354 282 344.5 274 c 128,-1,13
 335 266 335 266 332 264 c 0,14,15
 289 226 289 226 234 171 c 0,16,17
 233 170 233 170 224 160.5 c 128,-1,18
 215 151 215 151 211.5 148.5 c 128,-1,19
 208 146 208 146 200.5 140 c 128,-1,20
 193 134 193 134 186.5 131.5 c 128,-1,21
 180 129 180 129 172 128 c 1,22,-1
 270 261 l 1,23,-1
 307 313 l 1,24,-1
 290 370 l 1,25,-1
 246 503 l 1,0,1
86 503 m 1,26,27
 94 503 94 503 100.5 500.5 c 128,-1,28
 107 498 107 498 112.5 492 c 128,-1,29
 118 486 118 486 121 482.5 c 128,-1,30
 124 479 124 479 129.5 469.5 c 128,-1,31
 135 460 135 460 137 456 c 0,32,33
 145 443 145 443 166 412 c 128,-1,34
 187 381 187 381 201.5 357.5 c 128,-1,35
 216 334 216 334 227 312 c 1,36,37
 209 299 209 299 188.5 281 c 128,-1,38
 168 263 168 263 154.5 249 c 128,-1,39
 141 235 141 235 119 212.5 c 128,-1,40
 97 190 97 190 86 179 c 0,41,42
 82 175 82 175 73 165.5 c 128,-1,43
 64 156 64 156 59 151.5 c 128,-1,44
 54 147 54 147 46 140.5 c 128,-1,45
 38 134 38 134 29.5 131 c 128,-1,46
 21 128 21 128 12 128 c 1,47,-1
 107 257 l 1,48,-1
 147 316 l 1,49,-1
 132 370 l 1,50,-1
 86 503 l 1,26,27
EndSplineSet
EndChar

StartChar: onequarter
Encoding: 188 188 126
Width: 677
Flags: W
LayerCount: 2
Fore
SplineSet
430 277 m 1,0,-1
 535 277 l 1,1,-1
 574 405 l 1,2,3
 534 390 534 390 493 353 c 128,-1,4
 452 316 452 316 430 277 c 1,0,-1
164 745 m 1,5,-1
 285 745 l 1,6,-1
 232 534 l 1,7,-1
 216 457 l 1,8,-1
 281 425 l 1,9,-1
 148 425 l 1,10,11
 159 464 159 464 180.5 536 c 128,-1,12
 202 608 202 608 210 636 c 0,13,14
 211 640 211 640 215.5 653 c 128,-1,15
 220 666 220 666 222.5 674.5 c 128,-1,16
 225 683 225 683 227.5 696 c 128,-1,17
 230 709 230 709 226 712 c 1,18,19
 218 727 218 727 160 730 c 1,20,-1
 164 745 l 1,5,-1
383 249 m 1,21,22
 419 334 419 334 555 419 c 0,23,24
 558 421 558 421 572 430.5 c 128,-1,25
 586 440 586 440 592 443.5 c 128,-1,26
 598 447 598 447 610 451 c 128,-1,27
 622 455 622 455 633 456 c 1,28,-1
 582 277 l 1,29,-1
 633 280 l 1,30,31
 630 266 630 266 622.5 260.5 c 128,-1,32
 615 255 615 255 607.5 256 c 128,-1,33
 600 257 600 257 590 254.5 c 128,-1,34
 580 252 580 252 574 244 c 0,35,36
 566 235 566 235 560 218 c 128,-1,37
 554 201 554 201 551 187.5 c 128,-1,38
 548 174 548 174 544 152 c 128,-1,39
 540 130 540 130 539 124 c 1,40,-1
 488 120 l 1,41,-1
 527 249 l 1,42,-1
 383 249 l 1,21,22
109 120 m 1,43,44
 121 147 121 147 143.5 176 c 128,-1,45
 166 205 166 205 197 238.5 c 128,-1,46
 228 272 228 272 241 288 c 2,47,-1
 535 652 l 1,48,-1
 634 773 l 1,49,50
 634 773 634 773 639 779 c 128,-1,51
 644 785 644 785 645.5 786.5 c 128,-1,52
 647 788 647 788 651.5 792.5 c 128,-1,53
 656 797 656 797 658.5 798 c 128,-1,54
 661 799 661 799 665.5 801 c 128,-1,55
 670 803 670 803 674.5 802.5 c 128,-1,56
 679 802 679 802 684 800 c 1,57,58
 660 779 660 779 636.5 751 c 128,-1,59
 613 723 613 723 585.5 686 c 128,-1,60
 558 649 558 649 544 632 c 2,61,-1
 265 288 l 1,62,-1
 167 167 l 2,63,64
 166 165 166 165 158 155 c 128,-1,65
 150 145 150 145 147 142 c 128,-1,66
 144 139 144 139 137.5 132.5 c 128,-1,67
 131 126 131 126 124 123.5 c 128,-1,68
 117 121 117 121 109 120 c 1,43,44
EndSplineSet
EndChar

StartChar: onehalf
Encoding: 189 189 127
Width: 677
Flags: W
LayerCount: 2
Fore
SplineSet
160 745 m 1,0,-1
 281 745 l 1,1,-1
 207 448 l 1,2,3
 266 444 266 444 277 425 c 1,4,-1
 145 425 l 1,5,-1
 227 718 l 1,6,-1
 156 730 l 1,7,-1
 160 745 l 1,0,-1
438 355 m 1,8,9
 428 359 428 359 424 364.5 c 128,-1,10
 420 370 420 370 421 377 c 128,-1,11
 422 384 422 384 425 390.5 c 128,-1,12
 428 397 428 397 434 405 c 0,13,14
 464 450 464 450 520 452 c 0,15,16
 573 454 573 454 604.5 413 c 128,-1,17
 636 372 636 372 612 323 c 1,18,19
 596 293 596 293 566 263.5 c 128,-1,20
 536 234 536 234 495.5 201.5 c 128,-1,21
 455 169 455 169 438 152 c 1,22,-1
 617 171 l 1,23,-1
 589 132 l 1,24,-1
 523 128 l 1,25,-1
 367 120 l 1,26,27
 371 132 371 132 380 141 c 128,-1,28
 389 150 389 150 405 160.5 c 128,-1,29
 421 171 421 171 426 175 c 0,30,31
 431 180 431 180 451 197 c 128,-1,32
 471 214 471 214 480 222 c 128,-1,33
 489 230 489 230 506 246.5 c 128,-1,34
 523 263 523 263 532 275 c 128,-1,35
 541 287 541 287 551 303.5 c 128,-1,36
 561 320 561 320 566 335 c 0,37,38
 577 372 577 372 554 405 c 128,-1,39
 531 438 531 438 492 425 c 0,40,41
 453 413 453 413 438 355 c 1,8,9
102 120 m 1,42,43
 157 202 157 202 229.5 291 c 128,-1,44
 302 380 302 380 390.5 483.5 c 128,-1,45
 479 587 479 587 528 648 c 2,46,-1
 630 773 l 1,47,48
 630 773 630 773 635 779 c 128,-1,49
 640 785 640 785 641.5 786.5 c 128,-1,50
 643 788 643 788 647.5 792.5 c 128,-1,51
 652 797 652 797 654.5 798 c 128,-1,52
 657 799 657 799 661.5 801 c 128,-1,53
 666 803 666 803 670.5 802.5 c 128,-1,54
 675 802 675 802 680 800 c 1,55,56
 658 781 658 781 636 754.5 c 128,-1,57
 614 728 614 728 588.5 694 c 128,-1,58
 563 660 563 660 550 644 c 2,59,-1
 261 288 l 1,60,-1
 160 163 l 2,61,62
 158 161 158 161 150.5 151 c 128,-1,63
 143 141 143 141 140 138.5 c 128,-1,64
 137 136 137 136 130 130.5 c 128,-1,65
 123 125 123 125 116.5 123 c 128,-1,66
 110 121 110 121 102 120 c 1,42,43
EndSplineSet
EndChar

StartChar: threequarters
Encoding: 190 190 128
Width: 677
Flags: W
LayerCount: 2
Fore
SplineSet
430 277 m 1,0,-1
 535 277 l 1,1,-1
 574 405 l 1,2,3
 534 390 534 390 493 353 c 128,-1,4
 452 316 452 316 430 277 c 1,0,-1
156 671 m 1,5,6
 160 711 160 711 201 732 c 128,-1,7
 242 753 242 753 281 741 c 0,8,9
 312 732 312 732 317 705.5 c 128,-1,10
 322 679 322 679 303 655 c 0,11,12
 292 642 292 642 258 616 c 1,13,14
 299 603 299 603 309 566.5 c 128,-1,15
 319 530 319 530 294 495 c 0,16,17
 272 464 272 464 237 445 c 128,-1,18
 202 426 202 426 164 422 c 0,19,20
 95 415 95 415 78 456 c 1,21,22
 95 459 95 459 116.5 449.5 c 128,-1,23
 138 440 138 440 145 439 c 0,24,25
 173 432 173 432 215 458 c 0,26,27
 230 468 230 468 243.5 484.5 c 128,-1,28
 257 501 257 501 264.5 519 c 128,-1,29
 272 537 272 537 266 555 c 128,-1,30
 260 573 260 573 238 583 c 0,31,32
 231 587 231 587 221.5 587.5 c 128,-1,33
 212 588 212 588 205.5 587 c 128,-1,34
 199 586 199 586 188 584 c 128,-1,35
 177 582 177 582 172 581 c 1,36,37
 181 600 181 600 218.5 619.5 c 128,-1,38
 256 639 256 639 267 655 c 0,39,40
 282 677 282 677 269.5 698.5 c 128,-1,41
 257 720 257 720 230 717 c 0,42,43
 213 715 213 715 188 695 c 128,-1,44
 163 675 163 675 156 671 c 1,5,6
152 671 m 1,45,-1
 156 667 l 1,46,-1
 152 671 l 1,45,-1
383 249 m 1,47,48
 419 334 419 334 555 419 c 0,49,50
 558 421 558 421 572 430.5 c 128,-1,51
 586 440 586 440 592 443.5 c 128,-1,52
 598 447 598 447 610 451 c 128,-1,53
 622 455 622 455 633 456 c 1,54,-1
 582 277 l 1,55,-1
 633 280 l 1,56,57
 630 266 630 266 622.5 260.5 c 128,-1,58
 615 255 615 255 607.5 256 c 128,-1,59
 600 257 600 257 590 254.5 c 128,-1,60
 580 252 580 252 574 244 c 0,61,62
 566 235 566 235 560 218 c 128,-1,63
 554 201 554 201 551 187.5 c 128,-1,64
 548 174 548 174 544 152 c 128,-1,65
 540 130 540 130 539 124 c 1,66,-1
 488 120 l 1,67,-1
 527 249 l 1,68,-1
 383 249 l 1,47,48
109 120 m 1,69,70
 121 147 121 147 143.5 176 c 128,-1,71
 166 205 166 205 197 238.5 c 128,-1,72
 228 272 228 272 241 288 c 2,73,-1
 535 652 l 1,74,-1
 634 773 l 1,75,76
 634 773 634 773 639 779 c 128,-1,77
 644 785 644 785 645.5 786.5 c 128,-1,78
 647 788 647 788 651.5 792.5 c 128,-1,79
 656 797 656 797 658.5 798 c 128,-1,80
 661 799 661 799 665.5 801 c 128,-1,81
 670 803 670 803 674.5 802.5 c 128,-1,82
 679 802 679 802 684 800 c 1,83,84
 660 779 660 779 636.5 751 c 128,-1,85
 613 723 613 723 585.5 686 c 128,-1,86
 558 649 558 649 544 632 c 2,87,-1
 265 288 l 1,88,-1
 167 167 l 2,89,90
 166 165 166 165 158 155 c 128,-1,91
 150 145 150 145 147 142 c 128,-1,92
 144 139 144 139 137.5 132.5 c 128,-1,93
 131 126 131 126 124 123.5 c 128,-1,94
 117 121 117 121 109 120 c 1,69,70
EndSplineSet
EndChar

StartChar: questiondown
Encoding: 191 191 129
Width: 323
Flags: W
LayerCount: 2
Fore
SplineSet
195 -59 m 1,0,1
 194 -98 194 -98 170.5 -119.5 c 128,-1,2
 147 -141 147 -141 116.5 -141.5 c 128,-1,3
 86 -142 86 -142 54 -126.5 c 128,-1,4
 22 -111 22 -111 6 -83 c 0,5,6
 -21 -35 -21 -35 1 42 c 128,-1,7
 23 119 23 119 70 145 c 0,8,9
 89 156 89 156 137 167 c 128,-1,10
 185 178 185 178 207 193 c 0,11,12
 219 202 219 202 238.5 242 c 128,-1,13
 258 282 258 282 273 284 c 1,14,15
 269 173 269 173 188 136 c 0,16,17
 173 129 173 129 143 121.5 c 128,-1,18
 113 114 113 114 90 104 c 128,-1,19
 67 94 67 94 52 77 c 0,20,21
 30 52 30 52 28 16 c 128,-1,22
 26 -20 26 -20 46 -49.5 c 128,-1,23
 66 -79 66 -79 102 -85 c 0,24,25
 124 -89 124 -89 153.5 -75 c 128,-1,26
 183 -61 183 -61 195 -59 c 1,0,1
270 449 m 0,27,28
 298 459 298 459 302 429 c 0,29,30
 307 397 307 397 286 373 c 0,31,32
 279 364 279 364 270 362 c 0,33,34
 242 354 242 354 238 385 c 0,35,36
 234 418 234 418 256 440 c 0,37,38
 262 447 262 447 270 449 c 0,27,28
EndSplineSet
EndChar

StartChar: Agrave
Encoding: 192 192 130
Width: 552
Flags: W
LayerCount: 2
Fore
SplineSet
320 128 m 1,0,-1
 320 124 l 1,1,-1
 445 124 l 1,2,-1
 320 128 l 1,0,-1
-4 128 m 1,3,-1
 0 124 l 1,4,-1
 -4 128 l 1,3,-1
398 632 m 1,5,-1
 254 398 l 1,6,7
 302 386 302 386 395 398 c 1,8,-1
 406 632 l 1,9,-1
 398 632 l 1,5,-1
402 948 m 1,10,-1
 467 944 l 1,11,-1
 491 902 l 1,12,-1
 543 788 l 1,13,14
 535 788 535 788 528 790.5 c 128,-1,15
 521 793 521 793 517 794.5 c 128,-1,16
 513 796 513 796 507 802.5 c 128,-1,17
 501 809 501 809 499 811.5 c 128,-1,18
 497 814 497 814 490.5 823.5 c 128,-1,19
 484 833 484 833 483 835 c 0,20,21
 474 848 474 848 457.5 870.5 c 128,-1,22
 441 893 441 893 427.5 912 c 128,-1,23
 414 931 414 931 402 948 c 1,10,-1
0 128 m 1,24,25
 3 138 3 138 14 142 c 128,-1,26
 25 146 25 146 40 147.5 c 128,-1,27
 55 149 55 149 62 153 c 0,28,29
 69 156 69 156 75 161.5 c 128,-1,30
 81 167 81 167 85 171 c 128,-1,31
 89 175 89 175 95.5 184 c 128,-1,32
 102 193 102 193 104 195.5 c 128,-1,33
 106 198 106 198 112.5 209.5 c 128,-1,34
 119 221 119 221 120 222 c 0,35,36
 143 261 143 261 194 348.5 c 128,-1,37
 245 436 245 436 284.5 501 c 128,-1,38
 324 566 324 566 363 624 c 0,39,40
 368 632 368 632 383 657 c 128,-1,41
 398 682 398 682 409 699.5 c 128,-1,42
 420 717 420 717 437 734 c 128,-1,43
 454 751 454 751 469 753 c 1,44,45
 469 538 469 538 457 362 c 0,46,47
 456 356 456 356 450 307.5 c 128,-1,48
 444 259 444 259 444.5 227.5 c 128,-1,49
 445 196 445 196 455 175 c 0,50,51
 462 161 462 161 472.5 155 c 128,-1,52
 483 149 483 149 497 151 c 128,-1,53
 511 153 511 153 520.5 155.5 c 128,-1,54
 530 158 530 158 546 165 c 0,55,56
 549 167 549 167 551 167 c 1,57,58
 550 131 550 131 496 125 c 0,59,60
 467 121 467 121 401 124 c 128,-1,61
 335 127 335 127 305 124 c 1,62,-1
 309 148 l 1,63,64
 339 149 339 149 357 163.5 c 128,-1,65
 375 178 375 178 381.5 204 c 128,-1,66
 388 230 388 230 390 254.5 c 128,-1,67
 392 279 392 279 392 312.5 c 128,-1,68
 392 346 392 346 395 362 c 1,69,70
 391 363 391 363 359 366.5 c 128,-1,71
 327 370 327 370 309 371 c 128,-1,72
 291 372 291 372 267 368 c 128,-1,73
 243 364 243 364 233 353 c 0,74,75
 218 338 218 338 205.5 315.5 c 128,-1,76
 193 293 193 293 178 258 c 128,-1,77
 163 223 163 223 159 214 c 0,78,79
 159 213 159 213 154.5 205 c 128,-1,80
 150 197 150 197 148.5 194 c 128,-1,81
 147 191 147 191 143.5 182 c 128,-1,82
 140 173 140 173 141 170.5 c 128,-1,83
 142 168 142 168 143 160 c 1,84,85
 149 144 149 144 195 144 c 1,86,-1
 195 124 l 1,87,-1
 0 128 l 1,24,25
EndSplineSet
EndChar

